<svg width="82" height="97" viewBox="0 0 82 97" fill="none" xmlns="http://www.w3.org/2000/svg">
<path d="M82.0007 55.1814C81.334 61.9041 74.6445 63.5425 68.9353 63.752L53.6924 63.7497V43.9857L69.5076 43.9834C74.8139 44.1992 81.5228 46.0036 82.0007 52.3257V55.182V55.1814ZM61.2415 58.4944C65.7202 58.2386 75.1481 60.0785 74.0825 52.7228C73.4301 49.7029 69.9242 49.2422 67.3346 49.1237L61.2415 49.126V58.4938V58.4944Z" fill="url(#paint0_linear_2116_1574)"/>
<path d="M77.138 33.2476C77.4425 33.3438 77.8053 33.3272 78.1229 33.3776C79.8873 33.6563 81.987 34.4426 81.9418 36.5606H78.7679C78.6014 36.5606 78.3593 36.1131 78.1624 35.966C77.0058 35.1019 73.2253 35.1505 72.9683 37.1083C72.6472 39.5548 74.9364 40.023 76.865 39.7437C77.4413 39.6601 78.5613 39.3706 78.682 38.7313C78.6729 38.7182 78.4154 38.7886 78.3679 38.7886H75.8515L75.7657 38.7027V37.0745H81.999V41.8726H79.9405C79.984 41.7027 79.667 40.7309 79.5685 40.7315C78.6483 41.6883 77.2576 41.9842 75.9682 42.0466C72.5374 42.2131 69.2908 41.0428 69.5872 37.0436C69.7778 34.4752 72.1791 33.4096 74.474 33.2997L74.565 33.2471H77.1386L77.138 33.2476Z" fill="url(#paint1_linear_2116_1574)"/>
<path d="M0.962891 43.9873H20.3778C23.4951 44.2357 27.0633 45.0701 27.2722 48.8117C27.4067 51.2251 26.194 52.6237 24.0662 53.497C23.8774 53.5749 23.6347 53.6138 23.4613 53.6922C23.3938 53.7225 23.3577 53.6647 23.3806 53.8118C25.4598 54.1752 27.1606 55.7959 27.326 57.954C27.4731 59.8752 27.0089 61.9091 27.7272 63.7513H19.9497C19.4868 62.197 20.0968 60.3828 19.52 58.8394C18.97 57.3686 17.5759 57.0475 16.1492 56.9514L8.51196 56.9537L8.51196 63.7513H0.962891L0.962891 43.9873ZM8.51196 52.1556H17.9193C18.1373 52.1556 18.7056 51.8975 18.8916 51.7556C19.7277 51.1192 19.6894 49.6804 18.7886 49.1167C18.6512 49.0309 17.9902 48.7848 17.8626 48.7848H8.51254V52.155L8.51196 52.1556Z" fill="url(#paint2_linear_2116_1574)"/>
<path d="M51.2904 43.9873V48.7854H36.879V51.2989H51.0042V56.097H36.879V58.8388L51.5193 58.8674V63.7513H29.4443L29.4443 43.9873H51.2904Z" fill="url(#paint3_linear_2116_1574)"/>
<path d="M18.7495 33.418L21.2664 38.1022L23.8967 33.418H28.1854V41.8724H24.9829V36.6743L21.9824 41.8764L20.3622 41.8604L17.4344 36.6743V41.8724H14.2891L14.2891 33.418H18.7495Z" fill="url(#paint4_linear_2116_1574)"/>
<path d="M65.5853 38.1594V33.418H68.7878V41.8724H65.5567L60.267 36.7882V41.8724H57.0645V33.418H60.6956L65.5853 38.1594Z" fill="url(#paint5_linear_2116_1574)"/>
<path d="M0.962891 41.8725L5.10856 33.4747L9.45796 33.4141L13.8881 41.8725H10.3421C10.1533 41.552 9.96959 40.8567 9.76471 40.5929C9.70805 40.5196 9.67142 40.4916 9.57356 40.4984L4.94717 40.511L4.28045 41.8731H0.962891V41.8725ZM8.62642 38.3878L7.31016 35.5321L5.93838 38.3878H8.62642Z" fill="url(#paint6_linear_2116_1574)"/>
<path d="M41.5096 41.8725H37.9923L37.2964 40.4996L32.4679 40.5374L31.8161 41.8731H28.585L32.7861 33.4141L37.1069 33.4461L41.5096 41.8725ZM36.2479 38.3878L34.8189 35.5321L33.5026 38.3878H36.2479Z" fill="url(#paint7_linear_2116_1574)"/>
<path d="M51.8037 33.418V35.1892L46.371 39.53H51.861V41.8724H41.6816V40.1298L46.9999 35.6459H41.7389V33.418H51.8037Z" fill="url(#paint8_linear_2116_1574)"/>
<path d="M55.9785 33.418H52.7188V41.8718H55.9785V33.418Z" fill="url(#paint9_linear_2116_1574)"/>
<defs>
<linearGradient id="paint0_linear_2116_1574" x1="57.2309" y1="7.09808" x2="115.911" y2="36.3029" gradientUnits="userSpaceOnUse">
<stop stop-color="#C8C8C8"/>
<stop offset="1" stop-color="#565656"/>
</linearGradient>
<linearGradient id="paint1_linear_2116_1574" x1="71.1222" y1="16.8001" x2="97.0449" y2="29.5056" gradientUnits="userSpaceOnUse">
<stop stop-color="#C8C8C8"/>
<stop offset="1" stop-color="#565656"/>
</linearGradient>
<linearGradient id="paint2_linear_2116_1574" x1="4.30842" y1="7.11052" x2="60.977" y2="33.7821" gradientUnits="userSpaceOnUse">
<stop stop-color="#C8C8C8"/>
<stop offset="1" stop-color="#565656"/>
</linearGradient>
<linearGradient id="paint3_linear_2116_1574" x1="32.2037" y1="7.11052" x2="81.8202" y2="26.3714" gradientUnits="userSpaceOnUse">
<stop stop-color="#C8C8C8"/>
<stop offset="1" stop-color="#565656"/>
</linearGradient>
<linearGradient id="paint4_linear_2116_1574" x1="16.0261" y1="17.6358" x2="43.1299" y2="33.1121" gradientUnits="userSpaceOnUse">
<stop stop-color="#C8C8C8"/>
<stop offset="1" stop-color="#565656"/>
</linearGradient>
<linearGradient id="paint5_linear_2116_1574" x1="58.5299" y1="17.6432" x2="83.1355" y2="29.5017" gradientUnits="userSpaceOnUse">
<stop stop-color="#C8C8C8"/>
<stop offset="1" stop-color="#565656"/>
</linearGradient>
<linearGradient id="paint6_linear_2116_1574" x1="2.57853" y1="17.6308" x2="28.6537" y2="31.4782" gradientUnits="userSpaceOnUse">
<stop stop-color="#C8C8C8"/>
<stop offset="1" stop-color="#565656"/>
</linearGradient>
<linearGradient id="paint7_linear_2116_1574" x1="30.2005" y1="17.6308" x2="56.2751" y2="31.4773" gradientUnits="userSpaceOnUse">
<stop stop-color="#C8C8C8"/>
<stop offset="1" stop-color="#565656"/>
</linearGradient>
<linearGradient id="paint8_linear_2116_1574" x1="42.9541" y1="17.6432" x2="65.3581" y2="27.0186" gradientUnits="userSpaceOnUse">
<stop stop-color="#C8C8C8"/>
<stop offset="1" stop-color="#565656"/>
</linearGradient>
<linearGradient id="paint9_linear_2116_1574" x1="53.1262" y1="17.6443" x2="61.4084" y2="18.7542" gradientUnits="userSpaceOnUse">
<stop stop-color="#C8C8C8"/>
<stop offset="1" stop-color="#565656"/>
</linearGradient>
</defs>
</svg>
