<svg width="47" height="19" viewBox="0 0 47 19" fill="none" xmlns="http://www.w3.org/2000/svg">
<path d="M47.0005 13.147C46.6138 17.0461 42.734 17.9964 39.4227 18.1179L30.582 18.1166L30.582 6.65367L39.7547 6.65234C42.8322 6.77748 46.7233 7.82402 47.0005 11.4908V13.1474V13.147ZM34.9604 15.0685C37.558 14.9202 43.0261 15.9873 42.408 11.7211C42.0297 9.96956 39.9963 9.70236 38.4944 9.63366L34.9604 9.63498V15.0682V15.0685Z" fill="#AEAEB2"/>
<path d="M44.1801 0.42416C44.3567 0.479923 44.5671 0.470297 44.7513 0.499506C45.7746 0.661152 46.9925 1.11721 46.9662 2.34565H45.1254C45.0288 2.34565 44.8884 2.08609 44.7742 2.00078C44.1034 1.49958 41.9108 1.5278 41.7617 2.6633C41.5755 4.08226 42.9032 4.35377 44.0218 4.19179C44.356 4.14333 45.0056 3.97538 45.0756 3.60463C45.0703 3.59699 44.9209 3.63782 44.8934 3.63782L43.4339 3.63782L43.3841 3.58803V2.64372L46.9994 2.64372V5.42654H45.8055C45.8307 5.32796 45.6469 4.76436 45.5898 4.76469C45.056 5.31966 44.2495 5.49126 43.5016 5.52744C41.5118 5.62403 39.6288 4.94525 39.8007 2.62579C39.9113 1.13613 41.304 0.518094 42.635 0.454365L42.6878 0.423828L44.1804 0.423828L44.1801 0.42416Z" fill="#AEAEB2"/>
<path d="M0 6.65234L11.2604 6.65234C13.0684 6.7964 15.1379 7.28034 15.2591 9.45044C15.3371 10.8501 14.6337 11.6614 13.3996 12.1679C13.2901 12.213 13.1494 12.2356 13.0488 12.2811C13.0096 12.2987 12.9887 12.2651 13.002 12.3504C14.2079 12.5612 15.1943 13.5012 15.2903 14.7529C15.3756 15.8671 15.1064 17.0468 15.5229 18.1152H11.0121C10.7436 17.2137 11.0974 16.1615 10.7629 15.2664C10.4439 14.4133 9.63533 14.2271 8.80785 14.1713L4.37837 14.1727L4.37837 18.1152H0L0 6.65234ZM4.37837 11.3899L9.83448 11.3899C9.96095 11.3899 10.2905 11.2402 10.3984 11.1578C10.8834 10.7887 10.8611 9.95429 10.3387 9.62735C10.259 9.57756 9.87564 9.43484 9.80162 9.43484L4.3787 9.43484V11.3895L4.37837 11.3899Z" fill="#AEAEB2"/>
<path d="M29.188 6.65234V9.43517L20.8296 9.43517V10.893L29.022 10.893V13.6758L20.8296 13.6758V15.266L29.3208 15.2826V18.1152H16.5176L16.5176 6.65234L29.188 6.65234Z" fill="#AEAEB2"/>
<path d="M10.3155 0.521484L11.7753 3.23826L13.3008 0.521484L15.7882 0.521484V5.42495H13.9308V2.41011L12.1905 5.42728L11.2509 5.41798L9.55275 2.41011V5.42495H7.72852L7.72852 0.521484L10.3155 0.521484Z" fill="#AEAEB2"/>
<path d="M37.481 3.27145V0.521484L39.3385 0.521484V5.42495H37.4644L34.3965 2.47617V5.42495H32.5391V0.521484L34.6451 0.521484L37.481 3.27145Z" fill="#AEAEB2"/>
<path d="M0 5.42727L2.40443 0.556668L4.92703 0.521484L7.49643 5.42727H5.43985C5.33032 5.2414 5.22377 4.83812 5.10494 4.6851C5.07208 4.64261 5.05084 4.62635 4.99408 4.63033L2.31083 4.63764L1.92415 5.42761H0L0 5.42727ZM4.44475 3.40621L3.68133 1.74992L2.88572 3.40621L4.44475 3.40621Z" fill="#D5D5D5"/>
<path d="M23.5156 5.42727H21.4756L21.072 4.631L18.2716 4.6529L17.8936 5.42761H16.0195L18.4562 0.521484L20.9622 0.540072L23.5156 5.42727ZM20.464 3.40621L19.6351 1.74992L18.8717 3.40621L20.464 3.40621Z" fill="#D5D5D5"/>
<path d="M29.4869 0.521484V1.54878L26.336 4.0664L29.5201 4.0664V5.42495L23.6162 5.42495V4.41425L26.7008 1.81365L23.6494 1.81365V0.521484L29.4869 0.521484Z" fill="#D5D5D5"/>
<path d="M31.9082 0.521484L30.0176 0.521484V5.42462H31.9082V0.521484Z" fill="#D5D5D5"/>
</svg>
