<svg width="105" height="32" viewBox="0 0 105 32" fill="none" xmlns="http://www.w3.org/2000/svg">
<path fill-rule="evenodd" clip-rule="evenodd" d="M28.0498 21.3527V12.1436H35.5262V21.3527H33.7V13.9038H29.8756V21.3527H28.0498ZM40.8681 16.046H39.8317C38.9682 16.046 38.5362 16.3542 38.5362 16.9572C38.5362 17.5481 38.9562 17.8433 39.7951 17.8433C40.1655 17.8433 40.5228 17.8192 40.8681 17.7576V16.046ZM42.5585 14.6426V21.3523H40.8681V19.0242C40.5406 19.0839 40.1939 19.1624 39.7749 19.1745L38.3758 21.3523H36.4759L38.1471 18.9375C37.2706 18.5681 36.8092 17.93 36.8092 16.9326C36.8092 15.5658 37.808 14.6426 39.7826 14.6426H42.5585ZM53.9831 15.209C54.5008 15.7137 54.7599 16.4033 54.7599 17.302V21.3523H53.0209V17.6218C53.0209 16.6003 52.4781 16.0585 51.6757 16.0585C50.7992 16.0585 50.1953 16.6865 50.1953 17.6714V21.3527H48.4558V17.6348C48.4558 16.6374 47.925 16.0585 47.0986 16.0585C46.2476 16.0585 45.6307 16.6865 45.6307 17.6839V21.3527H43.8911V14.6426H45.5936V15.6029C45.976 14.9012 46.7653 14.4461 47.6414 14.4581C48.4803 14.4581 49.2576 14.8646 49.6155 15.64C50.1091 14.9012 51.0217 14.4581 52.0211 14.4581C52.8234 14.4581 53.4769 14.7033 53.9831 15.209ZM68.3811 19.37C68.7264 19.0006 68.8993 18.5455 68.8993 18.0042C68.8993 17.4619 68.7264 17.0068 68.3811 16.6369C68.0358 16.268 67.5912 16.0831 67.0364 16.0831C66.4937 16.0831 66.0491 16.268 65.7043 16.6369C65.3585 17.0068 65.1856 17.4619 65.1856 18.0042C65.1856 18.5455 65.359 19.0011 65.7043 19.3705C66.0496 19.7399 66.4937 19.9243 67.0364 19.9243C67.5912 19.9243 68.0358 19.7399 68.3811 19.3705M69.7137 15.4921C70.3426 16.1693 70.6513 17.0068 70.6513 17.9916C70.6513 18.9765 70.3306 19.8135 69.7011 20.4912C69.0722 21.1678 68.2828 21.5122 67.3321 21.5122C66.5062 21.5122 65.7433 21.1519 65.2227 20.5143V24.1104H63.4832V14.6426H65.2102V15.523C65.7626 14.8352 66.4937 14.4707 67.3447 14.4707C68.2949 14.4707 69.0842 14.815 69.7137 15.4921ZM74.8832 19.9123C75.4134 19.9123 75.8454 19.7273 76.2028 19.358C76.5611 18.9765 76.746 18.5209 76.746 17.9916C76.746 17.4619 76.5611 17.0068 76.2032 16.6374C75.8454 16.268 75.4134 16.0835 74.8832 16.0835C74.3524 16.0835 73.9084 16.268 73.5506 16.6374C73.1932 17.0068 73.0203 17.4624 73.0203 17.9916C73.0203 18.5209 73.1932 18.9765 73.5506 19.358C73.9084 19.7273 74.3524 19.9118 74.8832 19.9118M72.2922 15.4921C72.9712 14.8025 73.8347 14.4581 74.8832 14.4581C75.9316 14.4581 76.7951 14.8025 77.4742 15.4921C78.1523 16.1693 78.4856 17.0068 78.4856 17.9916C78.4856 18.9886 78.1523 19.8261 77.4742 20.5032C76.7951 21.1799 75.9316 21.5252 74.8832 21.5252C73.8347 21.5252 72.9712 21.1799 72.2922 20.5032C71.6136 19.8261 71.2808 18.989 71.2808 17.9916C71.2808 17.0068 71.6136 16.1693 72.2922 15.4921ZM83.3834 14.6426H85.1235V21.3527H83.3834V19.094C82.8744 19.3844 82.323 19.5304 81.8905 19.5304C81.0891 19.5304 80.4967 19.3825 79.966 19.0256C79.4362 18.6442 79.14 17.93 79.14 16.8955V14.6426H80.8671V16.7727C80.8671 17.5606 81.274 17.9546 82.0884 17.9546C82.545 17.9546 82.9341 17.891 83.3839 17.7114V14.6426H83.3834ZM90.8728 21.3527L88.1956 18.2541V21.3527H86.4561V14.6325H88.1956V17.2948L90.6383 14.6426H92.8344L89.8364 17.7504L93.0073 21.3527H90.8728Z" fill="url(#paint0_linear_1265_1078)"/>
<path fill-rule="evenodd" clip-rule="evenodd" d="M97.5908 16.6226C97.233 16.2407 96.7885 16.0563 96.2457 16.0563C95.6909 16.0563 95.2464 16.2407 94.8886 16.6226C94.5433 17.0045 94.3704 17.4596 94.3704 17.9889C94.3704 18.5307 94.5433 18.9863 94.9011 19.3682C95.2589 19.7497 95.703 19.9341 96.2457 19.9341C96.7885 19.9341 97.233 19.7497 97.5908 19.3682C97.9482 18.9863 98.1336 18.5307 98.1336 17.9889C98.1336 17.4596 97.9482 17.0045 97.5908 16.6226ZM98.109 14.6403H99.7619V21.35H98.109V20.4639C97.5311 21.1632 96.8135 21.5104 95.9621 21.5104C94.9998 21.5104 94.1979 21.1781 93.5685 20.501C92.9395 19.8238 92.6313 18.9743 92.6313 17.9648C92.6313 16.9549 92.952 16.1179 93.581 15.4653C94.2105 14.8007 95.0123 14.4684 95.9621 14.4684C96.801 14.4684 97.5412 14.8489 98.109 15.5202V14.6403ZM59.5722 12.9538C59.5722 12.3754 60.0288 11.9443 60.6207 11.9443C61.2005 11.9443 61.645 12.3999 61.645 12.9538C61.645 13.5572 61.2005 14.0003 60.6207 14.0003C60.0288 14.0003 59.5722 13.5572 59.5722 12.9538ZM57.4257 17.3123H60.8432C60.6828 16.4377 60.0533 15.9089 59.1653 15.9089C58.2887 15.9089 57.6352 16.4382 57.4257 17.3123ZM57.9314 11.9443C58.5113 11.9443 58.9678 12.3999 58.9678 12.9538C58.9678 13.5572 58.5238 14.0003 57.9314 14.0003C57.339 14.0003 56.895 13.5572 56.895 12.9538C56.895 12.3999 57.3516 11.9443 57.9314 11.9443ZM62.4715 18.6049H57.4257C57.6723 19.5527 58.3263 20.0328 59.3873 20.0328C60.115 20.0328 60.9255 19.7607 61.54 19.2743L62.2403 20.3738C61.3912 21.167 60.4237 21.4979 59.3131 21.4979C58.1284 21.4979 57.2278 21.1535 56.5988 20.4764C55.9698 19.7993 55.6611 18.9618 55.6611 17.9894C55.6611 16.9674 55.9819 16.1304 56.6359 15.4658C57.2899 14.8007 58.1289 14.4679 59.1653 14.4679C60.14 14.4679 60.9539 14.7757 61.5829 15.3791C62.2124 15.9826 62.5331 16.795 62.5331 17.8411C62.5331 18.0751 62.509 18.3342 62.4715 18.6049Z" fill="url(#paint1_linear_1265_1078)"/>
<path fill-rule="evenodd" clip-rule="evenodd" d="M19.663 8.18652C18.7975 10.4062 16.8273 10.8681 13.9733 10.8681C13.667 10.8681 13.3636 10.8633 13.0708 10.8589C12.7876 10.8551 12.5199 10.8507 12.2574 10.8507C12.0243 10.8507 11.7893 10.8536 11.5576 10.8637C11.9573 9.88224 12.5955 9.21522 13.5038 8.81068C14.7699 8.24721 16.416 8.24143 17.8685 8.23709C18.5014 8.23468 19.1072 8.23228 19.663 8.18652Z" fill="url(#paint2_linear_1265_1078)"/>
<path fill-rule="evenodd" clip-rule="evenodd" d="M20.5517 8.89914C19.2716 11.6876 16.4186 11.9669 13.973 11.9669C13.436 11.9669 12.9217 11.9539 12.4454 11.9511L11.8294 14.36C14.9839 11.7883 19.1555 14.3379 18.7096 18.2186C18.409 20.8323 16.5457 22.5415 14.5745 23.0327C12.4271 23.5683 10.048 22.7669 8.98121 20.5785C8.86803 20.3473 8.67106 19.884 8.59593 19.6365L10.8604 19.0547C10.9004 19.1852 10.9683 19.3114 11.0396 19.4265C12.5557 21.8716 15.6278 20.6488 15.9745 18.1122C16.3276 15.5318 12.7069 14.1573 11.0569 17.1731L9.04863 16.3173L9.01396 16.3018L9.98246 12.4139C10.0422 12.1374 10.2435 11.3654 10.2782 11.2388C11.3728 7.21354 14.9141 7.14996 17.7545 7.13937C16.5799 6.65054 15.2921 6.37988 13.9403 6.37988C8.45 6.37988 4 10.8299 4 16.3201C4 21.8104 8.45 26.2604 13.9403 26.2604C19.4305 26.2604 23.8805 21.8104 23.8805 16.3201C23.8805 13.3689 22.5937 10.7196 20.5517 8.89914Z" fill="url(#paint3_linear_1265_1078)"/>
<defs>
<linearGradient id="paint0_linear_1265_1078" x1="81.7458" y1="41.87" x2="2.11809" y2="26.4872" gradientUnits="userSpaceOnUse">
<stop stop-color="#34FA56"/>
<stop offset="1" stop-color="#4CE15A"/>
</linearGradient>
<linearGradient id="paint1_linear_1265_1078" x1="92.1163" y1="35.7071" x2="37.5081" y2="26.7474" gradientUnits="userSpaceOnUse">
<stop stop-color="#34FA56"/>
<stop offset="1" stop-color="#4CE15A"/>
</linearGradient>
<linearGradient id="paint2_linear_1265_1078" x1="18.2578" y1="14.8477" x2="8.06897" y2="13.7517" gradientUnits="userSpaceOnUse">
<stop stop-color="#34FA56"/>
<stop offset="1" stop-color="#4CE15A"/>
</linearGradient>
<linearGradient id="paint3_linear_1265_1078" x1="20.4339" y1="55.7645" x2="-4.81404" y2="54.8659" gradientUnits="userSpaceOnUse">
<stop stop-color="#34FA56"/>
<stop offset="1" stop-color="#4CE15A"/>
</linearGradient>
</defs>
</svg>
