<svg width="20" height="21" viewBox="0 0 20 21" fill="none" xmlns="http://www.w3.org/2000/svg">
<path fill-rule="evenodd" clip-rule="evenodd" d="M16.5517 2.89914C15.2716 5.6876 12.4186 5.9669 9.973 5.9669C9.436 5.9669 8.9217 5.9539 8.4454 5.9511L7.8294 8.36C10.9839 5.7883 15.1555 8.3379 14.7096 12.2186C14.409 14.8323 12.5457 16.5415 10.5745 17.0327C8.4271 17.5683 6.048 16.7669 4.98121 14.5785C4.86803 14.3473 4.67106 13.884 4.59593 13.6365L6.8604 13.0547C6.9004 13.1852 6.9683 13.3114 7.0396 13.4265C8.5557 15.8716 11.6278 14.6488 11.9745 12.1122C12.3276 9.5318 8.7069 8.1573 7.0569 11.1731L5.04863 10.3173L5.01396 10.3018L5.98246 6.4139C6.0422 6.1374 6.2435 5.3654 6.2782 5.2388C7.3728 1.21354 10.9141 1.14996 13.7545 1.13937C12.5799 0.650543 11.2921 0.379883 9.9403 0.379883C4.45 0.379883 0 4.8299 0 10.3201C0 15.8104 4.45 20.2604 9.9403 20.2604C15.4305 20.2604 19.8805 15.8104 19.8805 10.3201C19.8805 7.3689 18.5937 4.7196 16.5517 2.89914Z" fill="url(#paint0_linear_2486_2563)"/>
<defs>
<linearGradient id="paint0_linear_2486_2563" x1="16.4339" y1="49.7645" x2="-8.81404" y2="48.8659" gradientUnits="userSpaceOnUse">
<stop stop-color="#34FA56"/>
<stop offset="1" stop-color="#4CE15A"/>
</linearGradient>
</defs>
</svg>
