<svg width="105" height="32" viewBox="0 0 105 32" fill="none" xmlns="http://www.w3.org/2000/svg">
<path d="M5 7.03538C5.19497 5.98396 6.51824 5.60663 7.17695 6.50367C7.53952 6.99725 7.36054 7.7516 7.39775 8.33958C7.65023 12.3349 13.0552 13.4408 14.8515 9.92117C15.4032 8.84023 15.1987 8.16184 15.2955 7.04983C15.393 5.93168 16.9746 5.60756 17.526 6.60485C17.8169 7.13071 17.6958 8.57668 17.5927 9.1905C17.1668 11.7291 15.0963 13.8544 12.5598 14.3237L12.5288 14.4156L12.5318 17.132C14.9025 17.5523 16.8639 19.4141 17.47 21.7303C17.6527 22.4287 17.8326 23.986 17.6155 24.6512C17.3612 25.4301 16.3599 25.7044 15.7264 25.1903C15.1252 24.7022 15.3281 24.0518 15.2977 23.3777C15.2316 21.9155 14.5858 20.6472 13.2886 19.9209C10.7193 18.4823 7.58226 20.2173 7.39775 23.1339C7.35255 23.8479 7.59764 24.6739 6.96445 25.1875C6.22671 25.7856 5.18205 25.3336 5 24.4381V22.9343L5.14392 22.0191C5.67347 19.546 7.66007 17.6215 10.1347 17.1147L10.1325 14.3101C7.72188 13.9024 5.75558 11.9594 5.18052 9.60227L5 8.50872V7.03538Z" fill="url(#paint0_linear_1265_1043)"/>
<path d="M11.5465 25.5736C11.4395 25.5838 11.254 25.5838 11.147 25.5736C8.01675 25.2738 8.58659 20.5235 11.6812 20.9734C14.3517 21.3615 14.2527 25.3153 11.5465 25.5736Z" fill="url(#paint1_linear_1265_1043)"/>
<path d="M37.1739 10.4514C41.4239 10.1512 44.2463 14.7856 41.9876 18.4196C40.025 21.5772 35.4131 21.6944 33.2825 18.6468C30.9694 15.3382 33.1595 10.7349 37.1739 10.4514ZM37.2969 12.6305C35.3051 12.8067 34.0655 15.0116 34.8488 16.8371C35.823 19.1075 38.8659 19.3492 40.1055 17.1843C41.2926 15.1116 39.7094 12.417 37.2972 12.6305H37.2969Z" fill="url(#paint2_linear_1265_1043)"/>
<path d="M58.2587 18.5813L53.9181 18.5742C53.665 19.0816 53.5204 19.7517 53.2394 20.2345C52.632 21.2782 50.9815 20.7385 51.1946 19.5124C52.1556 16.8757 53.3384 14.3168 54.3849 11.7106C55.0236 10.3507 56.8177 10.1877 57.6495 11.4701C57.7852 11.6792 57.8691 11.9046 57.9703 12.1319C58.9953 14.4319 59.8618 16.8075 60.8764 19.113C61.2568 19.9832 60.7214 20.8923 59.7318 20.7776C58.7274 20.661 58.6539 19.3024 58.2581 18.5816L58.2587 18.5813ZM57.4029 16.5199L56.0965 13.2048L54.7594 16.5199H57.4026H57.4029Z" fill="url(#paint3_linear_1265_1043)"/>
<path d="M27.4993 14.7701L29.9586 10.95C31.0638 9.78573 32.5534 11.2163 31.673 12.4778L28.6836 17.0122C28.6012 17.8766 28.7359 18.81 28.6679 19.6667C28.6202 20.2682 28.2364 20.7532 27.6076 20.7867C25.7938 20.8839 26.6103 18.1264 26.4156 17.0642L23.3555 12.4778C22.7656 11.6087 23.2051 10.4352 24.3494 10.5336C24.8752 10.5788 25.1142 10.9872 25.3786 11.3781C26.1195 12.4735 26.7846 13.655 27.499 14.7701H27.4993Z" fill="url(#paint4_linear_1265_1043)"/>
<path d="M48.6433 12.8663V19.7874C48.6433 19.8206 48.5483 20.1079 48.5259 20.1611C48.1925 20.9514 46.9723 21.0105 46.5682 20.2635C46.5285 20.19 46.3997 19.88 46.3997 19.8179V12.866H44.1406C42.7737 12.866 42.5538 10.718 44.1394 10.5938L50.9036 10.5937C52.5218 10.7069 52.2856 12.866 50.9021 12.866L48.643 12.866L48.6433 12.8663Z" fill="url(#paint5_linear_1265_1043)"/>
<defs>
<linearGradient id="paint0_linear_1265_1043" x1="5" y1="15.7295" x2="17.7149" y2="15.7295" gradientUnits="userSpaceOnUse">
<stop stop-color="#1FA2FF"/>
<stop offset="0.5" stop-color="#12D8FA"/>
<stop offset="1" stop-color="#7BB3F4"/>
</linearGradient>
<linearGradient id="paint1_linear_1265_1043" x1="9.06152" y1="23.2623" x2="13.6311" y2="23.2623" gradientUnits="userSpaceOnUse">
<stop stop-color="#1FA2FF"/>
<stop offset="0.5" stop-color="#12D8FA"/>
<stop offset="1" stop-color="#7BB3F4"/>
</linearGradient>
<linearGradient id="paint2_linear_1265_1043" x1="32.3398" y1="15.6497" x2="42.7865" y2="15.6497" gradientUnits="userSpaceOnUse">
<stop stop-color="#1FA2FF"/>
<stop offset="0.5" stop-color="#12D8FA"/>
<stop offset="1" stop-color="#7BB3F4"/>
</linearGradient>
<linearGradient id="paint3_linear_1265_1043" x1="51.1758" y1="15.691" x2="60.9994" y2="15.691" gradientUnits="userSpaceOnUse">
<stop stop-color="#1FA2FF"/>
<stop offset="0.5" stop-color="#12D8FA"/>
<stop offset="1" stop-color="#7BB3F4"/>
</linearGradient>
<linearGradient id="paint4_linear_1265_1043" x1="23.0938" y1="15.6544" x2="31.9397" y2="15.6544" gradientUnits="userSpaceOnUse">
<stop stop-color="#1FA2FF"/>
<stop offset="0.5" stop-color="#12D8FA"/>
<stop offset="1" stop-color="#7BB3F4"/>
</linearGradient>
<linearGradient id="paint5_linear_1265_1043" x1="43.0312" y1="15.6921" x2="52.0303" y2="15.6921" gradientUnits="userSpaceOnUse">
<stop stop-color="#1FA2FF"/>
<stop offset="0.5" stop-color="#12D8FA"/>
<stop offset="1" stop-color="#7BB3F4"/>
</linearGradient>
</defs>
</svg>
