<svg width="44" height="117" viewBox="0 0 44 117" fill="none" xmlns="http://www.w3.org/2000/svg">
<path d="M12.3202 116.601C2.67677 115.645 0.326464 106.049 0.0260077 97.8594L0.0292892 75.9941L28.3799 75.9941L28.3832 98.6804C28.0737 106.292 25.4853 115.916 16.4166 116.601L12.3193 116.601L12.3202 116.601ZM7.56783 86.8229C7.93479 93.2475 5.29552 106.771 15.8468 105.243C20.1789 104.307 20.8397 99.278 21.0096 95.5633L21.0064 86.8229L7.56865 86.8229L7.56783 86.8229Z" fill="black"/>
<path d="M12.3202 116.601C2.67677 115.645 0.326464 106.049 0.0260077 97.8594L0.0292892 75.9941L28.3799 75.9941L28.3832 98.6804C28.0737 106.292 25.4853 115.916 16.4166 116.601L12.3193 116.601L12.3202 116.601ZM7.56783 86.8229C7.93479 93.2475 5.29552 106.771 15.8468 105.243C20.1789 104.307 20.8397 99.278 21.0096 95.5633L21.0064 86.8229L7.56865 86.8229L7.56783 86.8229Z" fill="url(#paint0_linear_519_890)"/>
<path d="M43.7847 109.634C43.6468 110.07 43.6706 110.591 43.5984 111.047C43.1986 113.577 42.0706 116.589 39.0324 116.525L39.0324 111.972C39.0324 111.733 39.6743 111.386 39.8853 111.103C41.1249 109.444 41.0551 104.021 38.2467 103.652C34.7373 103.192 34.0658 106.476 34.4664 109.242C34.5862 110.069 35.0016 111.675 35.9186 111.849C35.9375 111.835 35.8365 111.466 35.8365 111.398L35.8365 107.788L35.9597 107.665L38.2952 107.665L38.2952 116.607L31.4126 116.607L31.4126 113.654C31.6564 113.716 33.0503 113.261 33.0495 113.12C31.6769 111.8 31.2525 109.805 31.163 107.956C30.9241 103.034 32.6029 98.3772 38.3395 98.8024C42.0238 99.0758 43.5524 102.52 43.71 105.812L43.7855 105.943L43.7855 109.635L43.7847 109.634Z" fill="black"/>
<path d="M43.7847 109.634C43.6468 110.07 43.6706 110.591 43.5984 111.047C43.1986 113.577 42.0706 116.589 39.0324 116.525L39.0324 111.972C39.0324 111.733 39.6743 111.386 39.8853 111.103C41.1249 109.444 41.0551 104.021 38.2467 103.652C34.7373 103.192 34.0658 106.476 34.4664 109.242C34.5862 110.069 35.0016 111.675 35.9186 111.849C35.9375 111.835 35.8365 111.466 35.8365 111.398L35.8365 107.788L35.9597 107.665L38.2952 107.665L38.2952 116.607L31.4126 116.607L31.4126 113.654C31.6564 113.716 33.0503 113.261 33.0495 113.12C31.6769 111.8 31.2525 109.805 31.163 107.956C30.9241 103.034 32.6029 98.3772 38.3395 98.8024C42.0238 99.0758 43.5524 102.52 43.71 105.812L43.7855 105.943L43.7855 109.635L43.7847 109.634Z" fill="url(#paint1_linear_519_890)"/>
<path d="M28.3802 0.361328L28.3802 28.2112C28.024 32.6827 26.8271 37.8012 21.4599 38.1008C17.998 38.2938 15.9917 36.5542 14.739 33.502C14.6273 33.2311 14.5715 32.883 14.459 32.6343C14.4155 32.5374 14.4984 32.4857 14.2874 32.5186C13.7662 35.501 11.4413 37.9408 8.3456 38.178C5.58976 38.389 2.6722 37.7232 0.0296423 38.7535L0.0296428 27.5971C2.25927 26.933 4.8616 27.8081 7.07563 26.9806C9.18541 26.1917 9.64595 24.1919 9.78386 22.1454L9.78058 11.1901L0.0296435 11.1901L0.029644 0.361327L28.3802 0.361328ZM16.6632 11.1901L16.6632 24.6845C16.6632 24.9973 17.0334 25.8124 17.237 26.0792C18.1499 27.2786 20.2137 27.2236 21.0223 25.9315C21.1454 25.7344 21.4984 24.7863 21.4984 24.6032L21.4984 11.191L16.664 11.191L16.6632 11.1901Z" fill="black"/>
<path d="M28.3802 0.361328L28.3802 28.2112C28.024 32.6827 26.8271 37.8012 21.4599 38.1008C17.998 38.2938 15.9917 36.5542 14.739 33.502C14.6273 33.2311 14.5715 32.883 14.459 32.6343C14.4155 32.5374 14.4984 32.4857 14.2874 32.5186C13.7662 35.501 11.4413 37.9408 8.3456 38.178C5.58976 38.389 2.6722 37.7232 0.0296423 38.7535L0.0296428 27.5971C2.25927 26.933 4.8616 27.8081 7.07563 26.9806C9.18541 26.1917 9.64595 24.1919 9.78386 22.1454L9.78058 11.1901L0.0296435 11.1901L0.029644 0.361327L28.3802 0.361328ZM16.6632 11.1901L16.6632 24.6845C16.6632 24.9973 17.0334 25.8124 17.237 26.0792C18.1499 27.2786 20.2137 27.2236 21.0223 25.9315C21.1454 25.7344 21.4984 24.7863 21.4984 24.6032L21.4984 11.191L16.664 11.191L16.6632 11.1901Z" fill="url(#paint2_linear_519_890)"/>
<path d="M28.3802 72.55L21.4976 72.55L21.4976 51.8775L17.8921 51.8775L17.8921 72.1396L11.0095 72.1396L11.0095 51.8775L7.07645 51.8775L7.03541 72.8784L0.0296426 72.8784L0.029644 41.2129L28.3802 41.2129L28.3802 72.55Z" fill="black"/>
<path d="M28.3802 72.55L21.4976 72.55L21.4976 51.8775L17.8921 51.8775L17.8921 72.1396L11.0095 72.1396L11.0095 51.8775L7.07645 51.8775L7.03541 72.8784L0.0296426 72.8784L0.029644 41.2129L28.3802 41.2129L28.3802 72.55Z" fill="url(#paint3_linear_519_890)"/>
<path d="M43.5394 25.8768L36.8202 29.4872L43.5394 33.2602L43.5394 39.4122L31.4119 39.4122L31.4119 34.8183L38.8684 34.8183L31.4062 30.5142L31.4292 28.1902L38.8684 23.9903L31.4119 23.9903L31.4119 19.4785L43.5394 19.4785L43.5394 25.8768Z" fill="black"/>
<path d="M43.5394 25.8768L36.8202 29.4872L43.5394 33.2602L43.5394 39.4122L31.4119 39.4122L31.4119 34.8183L38.8684 34.8183L31.4062 30.5142L31.4292 28.1902L38.8684 23.9903L31.4119 23.9903L31.4119 19.4785L43.5394 19.4785L43.5394 25.8768Z" fill="url(#paint4_linear_519_890)"/>
<path d="M36.7381 93.0606L43.5394 93.0606L43.5394 97.6545L31.4119 97.6545L31.4119 93.0196L38.705 85.4318L31.4119 85.4318L31.4119 80.8379L43.5394 80.8379L43.5394 86.0467L36.7381 93.0606Z" fill="black"/>
<path d="M36.7381 93.0606L43.5394 93.0606L43.5394 97.6545L31.4119 97.6545L31.4119 93.0196L38.705 85.4318L31.4119 85.4318L31.4119 80.8379L43.5394 80.8379L43.5394 86.0467L36.7381 93.0606Z" fill="url(#paint5_linear_519_890)"/>
<path d="M31.412 0.361328L43.4583 6.3081L43.5453 12.5471L31.412 18.9019L31.412 13.8154C31.8718 13.5445 32.8692 13.281 33.2476 12.9871C33.3527 12.9059 33.3929 12.8533 33.3831 12.7129L33.365 6.0766L31.4112 5.12022L31.4112 0.361328L31.412 0.361328ZM36.4106 11.3543L40.507 9.46619L36.4106 7.49844L36.4106 11.3543Z" fill="black"/>
<path d="M31.412 0.361328L43.4583 6.3081L43.5453 12.5471L31.412 18.9019L31.412 13.8154C31.8718 13.5445 32.8692 13.281 33.2476 12.9871C33.3527 12.9059 33.3929 12.8533 33.3831 12.7129L33.365 6.0766L31.4112 5.12022L31.4112 0.361328L31.412 0.361328ZM36.4106 11.3543L40.507 9.46619L36.4106 7.49844L36.4106 11.3543Z" fill="url(#paint6_linear_519_890)"/>
<path d="M31.412 58.5261L31.412 53.4807L33.3814 52.4824L33.3273 45.5563L31.4112 44.6213L31.4112 39.9863L43.5453 46.0127L43.4993 52.2107L31.412 58.5261ZM36.4106 50.9785L40.507 48.9287L36.4106 47.0405L36.4106 50.9785Z" fill="black"/>
<path d="M31.412 58.5261L31.412 53.4807L33.3814 52.4824L33.3273 45.5563L31.4112 44.6213L31.4112 39.9863L43.5453 46.0127L43.4993 52.2107L31.412 58.5261ZM36.4106 50.9785L40.507 48.9287L36.4106 47.0405L36.4106 50.9785Z" fill="url(#paint7_linear_519_890)"/>
<path d="M43.5394 73.2912L40.9987 73.2912L34.772 65.4981L34.772 73.3733L31.4119 73.3733L31.4119 58.7715L33.9116 58.7715L40.3436 66.4003L40.3436 58.8536L43.5394 58.8536L43.5394 73.2912Z" fill="black"/>
<path d="M43.5394 73.2912L40.9987 73.2912L34.772 65.4981L34.772 73.3733L31.4119 73.3733L31.4119 58.7715L33.9116 58.7715L40.3436 66.4003L40.3436 58.8536L43.5394 58.8536L43.5394 73.2912Z" fill="url(#paint8_linear_519_890)"/>
<path d="M43.5394 79.2795L43.5394 74.6035L31.4127 74.6035L31.4127 79.2795L43.5394 79.2795Z" fill="black"/>
<path d="M43.5394 79.2795L43.5394 74.6035L31.4127 74.6035L31.4127 79.2795L43.5394 79.2795Z" fill="url(#paint9_linear_519_890)"/>
<defs>
<linearGradient id="paint0_linear_519_890" x1="81.2935" y1="81.07" x2="39.4004" y2="165.244" gradientUnits="userSpaceOnUse">
<stop stop-color="#C8C8C8"/>
<stop offset="1" stop-color="#565656"/>
</linearGradient>
<linearGradient id="paint1_linear_519_890" x1="67.378" y1="101.004" x2="49.1525" y2="138.189" gradientUnits="userSpaceOnUse">
<stop stop-color="#C8C8C8"/>
<stop offset="1" stop-color="#565656"/>
</linearGradient>
<linearGradient id="paint2_linear_519_890" x1="81.2783" y1="5.16034" x2="43.0191" y2="86.4489" gradientUnits="userSpaceOnUse">
<stop stop-color="#C8C8C8"/>
<stop offset="1" stop-color="#565656"/>
</linearGradient>
<linearGradient id="paint3_linear_519_890" x1="81.2783" y1="45.1711" x2="53.6494" y2="116.344" gradientUnits="userSpaceOnUse">
<stop stop-color="#C8C8C8"/>
<stop offset="1" stop-color="#565656"/>
</linearGradient>
<linearGradient id="paint4_linear_519_890" x1="66.1783" y1="21.9702" x2="43.9782" y2="60.8494" gradientUnits="userSpaceOnUse">
<stop stop-color="#C8C8C8"/>
<stop offset="1" stop-color="#565656"/>
</linearGradient>
<linearGradient id="paint5_linear_519_890" x1="66.1676" y1="82.94" x2="49.1571" y2="118.236" gradientUnits="userSpaceOnUse">
<stop stop-color="#C8C8C8"/>
<stop offset="1" stop-color="#565656"/>
</linearGradient>
<linearGradient id="paint6_linear_519_890" x1="66.1857" y1="2.6789" x2="46.3221" y2="40.0826" gradientUnits="userSpaceOnUse">
<stop stop-color="#C8C8C8"/>
<stop offset="1" stop-color="#565656"/>
</linearGradient>
<linearGradient id="paint7_linear_519_890" x1="66.1857" y1="42.3038" x2="46.3235" y2="79.7065" gradientUnits="userSpaceOnUse">
<stop stop-color="#C8C8C8"/>
<stop offset="1" stop-color="#565656"/>
</linearGradient>
<linearGradient id="paint8_linear_519_890" x1="66.1676" y1="60.5967" x2="52.7191" y2="92.7343" gradientUnits="userSpaceOnUse">
<stop stop-color="#C8C8C8"/>
<stop offset="1" stop-color="#565656"/>
</linearGradient>
<linearGradient id="paint9_linear_519_890" x1="66.1661" y1="75.188" x2="64.5739" y2="87.0684" gradientUnits="userSpaceOnUse">
<stop stop-color="#C8C8C8"/>
<stop offset="1" stop-color="#565656"/>
</linearGradient>
</defs>
</svg>

