<svg width="118" height="45" viewBox="0 0 118 45" fill="none" xmlns="http://www.w3.org/2000/svg">
<g clip-path="url(#clip0_2120_1596)">
<path d="M117.112 32.1156C116.166 41.7601 106.573 44.1211 98.3838 44.4307L76.5186 44.4518L76.487 16.1012L99.1732 16.0726C106.785 16.3736 116.412 18.9513 117.107 28.0192L117.112 32.1156ZM87.3389 36.9012C93.7631 36.5271 107.29 39.1513 105.75 28.6017C104.809 24.2706 99.7792 23.6154 96.0644 23.4497L87.324 23.4626L87.3389 36.9012Z" fill="black"/>
<path d="M117.112 32.1156C116.166 41.7601 106.573 44.1211 98.3838 44.4307L76.5186 44.4518L76.487 16.1012L99.1732 16.0726C106.785 16.3736 116.412 18.9513 117.107 28.0192L117.112 32.1156ZM87.3389 36.9012C93.7631 36.5271 107.29 39.1513 105.75 28.6017C104.809 24.2706 99.7792 23.6154 96.0644 23.4497L87.324 23.4626L87.3389 36.9012Z" fill="url(#paint0_linear_2120_1596)"/>
<path d="M110.109 0.658831C110.545 0.796245 111.066 0.771863 111.522 0.843555C114.053 1.24053 117.066 2.36518 117.005 5.40345L112.452 5.40852C112.213 5.40879 111.866 4.76727 111.583 4.55659C109.922 3.31884 104.499 3.39468 104.133 6.20349C103.677 9.7134 106.962 10.3812 109.728 9.97756C110.554 9.85684 112.16 9.43965 112.333 8.52246C112.319 8.50357 111.95 8.60498 111.882 8.60506L108.272 8.60908L108.149 8.48602L108.146 6.15052L117.088 6.14055L117.096 13.0232L114.143 13.0264C114.205 12.7826 113.748 11.3892 113.607 11.3901C112.289 12.7642 110.294 13.1908 108.445 13.2824C103.524 13.5268 98.8649 11.8532 99.2837 6.1161C99.553 2.4315 102.995 0.899059 106.287 0.73779L106.418 0.662144L110.11 0.658029L110.109 0.658831Z" fill="black"/>
<path d="M110.109 0.658831C110.545 0.796245 111.066 0.771863 111.522 0.843555C114.053 1.24053 117.066 2.36518 117.005 5.40345L112.452 5.40852C112.213 5.40879 111.866 4.76727 111.583 4.55659C109.922 3.31884 104.499 3.39468 104.133 6.20349C103.677 9.7134 106.962 10.3812 109.728 9.97756C110.554 9.85684 112.16 9.43965 112.333 8.52246C112.319 8.50357 111.95 8.60498 111.882 8.60506L108.272 8.60908L108.149 8.48602L108.146 6.15052L117.088 6.14055L117.096 13.0232L114.143 13.0264C114.205 12.7826 113.748 11.3892 113.607 11.3901C112.289 12.7642 110.294 13.1908 108.445 13.2824C103.524 13.5268 98.8649 11.8532 99.2837 6.1161C99.553 2.4315 102.995 0.899059 106.287 0.73779L106.418 0.662144L110.11 0.658029L110.109 0.658831Z" fill="url(#paint1_linear_2120_1596)"/>
<path d="M0.854145 16.1846L28.704 16.1536C33.1759 16.5048 38.2957 17.696 38.6013 23.0628C38.7982 26.5245 37.0608 28.5328 34.01 29.7889C33.7392 29.9009 33.3912 29.9571 33.1426 30.0698C33.0458 30.1134 32.994 30.0306 33.0271 30.2416C36.0101 30.7594 38.4525 33.0816 38.6931 36.1771C38.9072 38.9327 38.2446 41.851 39.2779 44.4924L28.1215 44.5048C27.4549 42.2759 28.3271 39.6726 27.4971 37.4595C26.7059 35.3506 24.7056 34.8923 22.6589 34.7567L11.7036 34.7722L11.7145 44.5231L0.885742 44.5352L0.854145 16.1846ZM11.696 27.8895L25.1904 27.8745C25.5032 27.8741 26.3179 27.503 26.5844 27.2991C27.7828 26.3849 27.7255 24.3212 26.4325 23.514C26.2353 23.3911 25.2868 23.0392 25.1037 23.0394L11.6915 23.0543L11.6969 27.8887L11.696 27.8895Z" fill="black"/>
<path d="M0.854145 16.1846L28.704 16.1536C33.1759 16.5048 38.2957 17.696 38.6013 23.0628C38.7982 26.5245 37.0608 28.5328 34.01 29.7889C33.7392 29.9009 33.3912 29.9571 33.1426 30.0698C33.0458 30.1134 32.994 30.0306 33.0271 30.2416C36.0101 30.7594 38.4525 33.0816 38.6931 36.1771C38.9072 38.9327 38.2446 41.851 39.2779 44.4924L28.1215 44.5048C27.4549 42.2759 28.3271 39.6726 27.4971 37.4595C26.7059 35.3506 24.7056 34.8923 22.6589 34.7567L11.7036 34.7722L11.7145 44.5231L0.885742 44.5352L0.854145 16.1846ZM11.696 27.8895L25.1904 27.8745C25.5032 27.8741 26.3179 27.503 26.5844 27.2991C27.7828 26.3849 27.7255 24.3212 26.4325 23.514C26.2353 23.3911 25.2868 23.0392 25.1037 23.0394L11.6915 23.0543L11.6969 27.8887L11.696 27.8895Z" fill="url(#paint2_linear_2120_1596)"/>
<path d="M73.0428 16.1048L73.0505 22.9874L52.378 23.0104L52.382 26.6159L72.6441 26.5933L72.6518 33.4759L52.3897 33.4985L52.394 37.4315L73.395 37.4492L73.4028 44.4549L41.7373 44.4902L41.7057 16.1397L73.0428 16.1048Z" fill="black"/>
<path d="M73.0428 16.1048L73.0505 22.9874L52.378 23.0104L52.382 26.6159L72.6441 26.5933L72.6518 33.4759L52.3897 33.4985L52.394 37.4315L73.395 37.4492L73.4028 44.4549L41.7373 44.4902L41.7057 16.1397L73.0428 16.1048Z" fill="url(#paint3_linear_2120_1596)"/>
<path d="M26.3525 0.997374L29.9704 7.71254L33.7359 0.989144L39.8879 0.982288L39.9015 13.1098L35.3076 13.1149L35.2992 5.6584L31.0035 13.1254L28.6794 13.105L24.4713 5.67047L24.4796 13.127L19.9678 13.132L19.9543 1.0045L26.3525 0.997374Z" fill="black"/>
<path d="M26.3525 0.997374L29.9704 7.71254L33.7359 0.989144L39.8879 0.982288L39.9015 13.1098L35.3076 13.1149L35.2992 5.6584L31.0035 13.1254L28.6794 13.105L24.4713 5.67047L24.4796 13.127L19.9678 13.132L19.9543 1.0045L26.3525 0.997374Z" fill="url(#paint4_linear_2120_1596)"/>
<path d="M93.5439 7.72366L93.5363 0.922362L98.1302 0.917242L98.1437 13.0447L93.5088 13.0499L85.9129 5.76526L85.921 13.0584L81.3271 13.0635L81.3136 0.935985L86.5224 0.93018L93.5439 7.72366Z" fill="black"/>
<path d="M93.5439 7.72366L93.5363 0.922362L98.1302 0.917242L98.1437 13.0447L93.5088 13.0499L85.9129 5.76526L85.921 13.0584L81.3271 13.0635L81.3136 0.935985L86.5224 0.93018L93.5439 7.72366Z" fill="url(#paint5_linear_2120_1596)"/>
<path d="M0.850585 13.1535L6.78393 1.10057L13.0228 1.00662L19.3911 13.1328L14.3046 13.1385C14.0332 12.679 13.7686 11.6819 13.4743 11.3038C13.393 11.1988 13.3403 11.1587 13.2 11.1686L6.56368 11.1941L5.60948 13.149L0.850585 13.1535ZM11.838 8.14265L9.94531 4.04835L7.98212 8.14695L11.838 8.14265Z" fill="black"/>
<path d="M0.850585 13.1535L6.78393 1.10057L13.0228 1.00662L19.3911 13.1328L14.3046 13.1385C14.0332 12.679 13.7686 11.6819 13.4743 11.3038C13.393 11.1988 13.3403 11.1587 13.2 11.1686L6.56368 11.1941L5.60948 13.149L0.850585 13.1535ZM11.838 8.14265L9.94531 4.04835L7.98212 8.14695L11.838 8.14265Z" fill="url(#paint6_linear_2120_1596)"/>
<path d="M59.0154 13.0879L53.97 13.0935L52.9695 11.1252L46.0434 11.1871L45.1106 13.1042L40.4756 13.1094L46.4885 0.968566L52.6865 1.00766L59.0154 13.0879ZM51.4622 8.09773L49.4078 4.00361L47.5242 8.10212L51.4622 8.09773Z" fill="black"/>
<path d="M59.0154 13.0879L53.97 13.0935L52.9695 11.1252L46.0434 11.1871L45.1106 13.1042L40.4756 13.1094L46.4885 0.968566L52.6865 1.00766L59.0154 13.0879ZM51.4622 8.09773L49.4078 4.00361L47.5242 8.10212L51.4622 8.09773Z" fill="url(#paint7_linear_2120_1596)"/>
<path d="M73.7669 0.944216L73.7697 3.48491L65.9836 9.7203L73.8588 9.71152L73.8625 13.0716L59.2607 13.0879L59.258 10.5882L66.8796 4.14769L59.3329 4.1561L59.3293 0.960308L73.7669 0.944216Z" fill="black"/>
<path d="M73.7669 0.944216L73.7697 3.48491L65.9836 9.7203L73.8588 9.71152L73.8625 13.0716L59.2607 13.0879L59.258 10.5882L66.8796 4.14769L59.3329 4.1561L59.3293 0.960308L73.7669 0.944216Z" fill="url(#paint8_linear_2120_1596)"/>
<path d="M79.7553 0.937434L75.0793 0.942646L75.0928 13.0693L79.7688 13.0641L79.7553 0.937434Z" fill="black"/>
<path d="M79.7553 0.937434L75.0793 0.942646L75.0928 13.0693L79.7688 13.0641L79.7553 0.937434Z" fill="url(#paint9_linear_2120_1596)"/>
</g>
<defs>
<linearGradient id="paint0_linear_2120_1596" x1="81.5039" y1="-36.818" x2="165.725" y2="4.98123" gradientUnits="userSpaceOnUse">
<stop stop-color="#C8C8C8"/>
<stop offset="1" stop-color="#565656"/>
</linearGradient>
<linearGradient id="paint1_linear_2120_1596" x1="101.453" y1="-22.9248" x2="138.658" y2="-4.74079" gradientUnits="userSpaceOnUse">
<stop stop-color="#C8C8C8"/>
<stop offset="1" stop-color="#565656"/>
</linearGradient>
<linearGradient id="paint2_linear_2120_1596" x1="5.5942" y1="-36.7188" x2="86.9254" y2="1.44978" gradientUnits="userSpaceOnUse">
<stop stop-color="#C8C8C8"/>
<stop offset="1" stop-color="#565656"/>
</linearGradient>
<linearGradient id="paint3_linear_2120_1596" x1="45.6049" y1="-36.7628" x2="116.809" y2="-9.21322" gradientUnits="userSpaceOnUse">
<stop stop-color="#C8C8C8"/>
<stop offset="1" stop-color="#565656"/>
</linearGradient>
<linearGradient id="paint4_linear_2120_1596" x1="22.4207" y1="-21.6372" x2="61.3246" y2="0.519602" gradientUnits="userSpaceOnUse">
<stop stop-color="#C8C8C8"/>
<stop offset="1" stop-color="#565656"/>
</linearGradient>
<linearGradient id="paint5_linear_2120_1596" x1="83.3905" y1="-21.6945" x2="118.705" y2="-4.72338" gradientUnits="userSpaceOnUse">
<stop stop-color="#C8C8C8"/>
<stop offset="1" stop-color="#565656"/>
</linearGradient>
<linearGradient id="paint6_linear_2120_1596" x1="3.1294" y1="-21.6228" x2="40.5552" y2="-1.80087" gradientUnits="userSpaceOnUse">
<stop stop-color="#C8C8C8"/>
<stop offset="1" stop-color="#565656"/>
</linearGradient>
<linearGradient id="paint7_linear_2120_1596" x1="42.7543" y1="-21.6677" x2="80.1791" y2="-1.84719" gradientUnits="userSpaceOnUse">
<stop stop-color="#C8C8C8"/>
<stop offset="1" stop-color="#565656"/>
</linearGradient>
<linearGradient id="paint8_linear_2120_1596" x1="61.0472" y1="-21.6698" x2="93.1998" y2="-8.25715" gradientUnits="userSpaceOnUse">
<stop stop-color="#C8C8C8"/>
<stop offset="1" stop-color="#565656"/>
</linearGradient>
<linearGradient id="paint9_linear_2120_1596" x1="75.6385" y1="-21.6847" x2="87.5207" y2="-20.1057" gradientUnits="userSpaceOnUse">
<stop stop-color="#C8C8C8"/>
<stop offset="1" stop-color="#565656"/>
</linearGradient>
<clipPath id="clip0_2120_1596">
<rect width="44" height="117" fill="white" transform="translate(0.524414 44.5654) rotate(-90.0639)"/>
</clipPath>
</defs>
</svg>
