<svg width="34" height="45" viewBox="0 0 34 45" fill="none" xmlns="http://www.w3.org/2000/svg">
<path d="M14.5438 10.9684L13.2023 10.5465L14.5438 10.9684ZM10.5695 17.638L11.4137 16.5132L10.5695 17.638ZM11.5077 20.6207L12.8492 21.0426L11.5077 20.6207ZM15.482 23.6034L14.6379 22.4787L15.482 23.6034ZM18.518 23.6034L19.3621 22.4787L18.518 23.6034ZM22.4923 20.6207L21.1508 21.0426L22.4923 20.6207ZM23.4305 17.638L22.5863 16.5132L23.4305 17.638ZM19.4562 10.9684L20.7977 10.5465L19.4562 10.9684ZM22.9439 40.3332L22.0435 41.4134H22.0435L22.9439 40.3332ZM21.1837 38.866L22.084 37.7858L21.1837 38.866ZM12.8163 38.866L11.916 37.7858H11.916L12.8163 38.866ZM11.0561 40.3332L11.9565 41.4134H11.9565L11.0561 40.3332ZM28.2493 26.586L26.8433 26.5622L26.8431 26.5756L26.8431 26.589L28.2493 26.586ZM28.25 26.5468L27.1957 25.6163L28.25 26.5468ZM5.75075 26.5477L6.805 25.617H6.805L5.75075 26.5477ZM12.0876 12.8118V14.2181C13.8455 14.2181 15.3628 13.0512 15.8852 11.3904L14.5438 10.9684L13.2023 10.5465C13.0333 11.084 12.5674 11.4056 12.0876 11.4056V12.8118ZM10.5695 17.638L11.4137 16.5132C10.9424 16.1596 10.8068 15.605 10.9728 15.0772C11.1378 14.5526 11.5437 14.2181 12.0876 14.2181V12.8118V11.4056C8.13308 11.4056 6.70232 16.4938 9.72543 18.7627L10.5695 17.638ZM11.5077 20.6207L12.8492 21.0426C13.3695 19.3886 12.8074 17.5593 11.4137 16.5132L10.5695 17.638L9.72543 18.7627C10.142 19.0753 10.3375 19.6544 10.1663 20.1987L11.5077 20.6207ZM15.482 23.6034L14.6379 22.4787C14.183 22.82 13.6865 22.7762 13.29 22.4787C12.887 22.1762 12.6571 21.6533 12.8492 21.0426L11.5077 20.6207L10.1663 20.1987C9.58524 22.046 10.3305 23.774 11.6018 24.7281C12.8797 25.6872 14.7569 25.9058 16.3261 24.7281L15.482 23.6034ZM18.518 23.6034L19.3621 22.4787C17.9568 21.424 16.0432 21.424 14.6379 22.4787L15.482 23.6034L16.3261 24.7281C16.7311 24.4241 17.2689 24.4241 17.6739 24.7281L18.518 23.6034ZM22.4923 20.6207L21.1508 21.0426C21.3429 21.6533 21.113 22.1762 20.71 22.4787C20.3135 22.7762 19.817 22.82 19.3621 22.4787L18.518 23.6034L17.6739 24.7281C19.2431 25.9058 21.1203 25.6872 22.3982 24.7281C23.6695 23.774 24.4148 22.046 23.8337 20.1987L22.4923 20.6207ZM23.4305 17.638L22.5863 16.5132C21.1926 17.5593 20.6305 19.3886 21.1508 21.0426L22.4923 20.6207L23.8337 20.1987C23.6625 19.6544 23.858 19.0753 24.2746 18.7627L23.4305 17.638ZM21.9124 12.8118V14.2181C22.4563 14.2181 22.8622 14.5526 23.0272 15.0772C23.1932 15.605 23.0576 16.1596 22.5863 16.5132L23.4305 17.638L24.2746 18.7627C27.2977 16.4938 25.8669 11.4056 21.9124 11.4056V12.8118ZM19.4562 10.9684L18.1148 11.3904C18.6372 13.0512 20.1545 14.2181 21.9124 14.2181V12.8118V11.4056C21.4326 11.4056 20.9667 11.084 20.7977 10.5465L19.4562 10.9684ZM19.4562 10.9684L20.7977 10.5465C19.6117 6.77618 14.3882 6.77618 13.2023 10.5465L14.5438 10.9684L15.8852 11.3904C16.2455 10.2449 17.7545 10.2449 18.1148 11.3904L19.4562 10.9684ZM2 16.625H3.40625C3.40625 9.11738 9.49238 3.03125 17 3.03125V1.625V0.21875C7.93908 0.21875 0.59375 7.56408 0.59375 16.625H2ZM17 1.625V3.03125C24.5076 3.03125 30.5938 9.11738 30.5938 16.625H32H33.4062C33.4062 7.56408 26.0609 0.21875 17 0.21875V1.625ZM28.25 27.5648H26.8438V37.96H28.25H29.6562V27.5648H28.25ZM5.75 37.96H7.15625V27.5648H5.75H4.34375V37.96H5.75ZM22.9439 40.3332L23.8443 39.253L22.084 37.7858L21.1837 38.866L20.2833 39.9463L22.0435 41.4134L22.9439 40.3332ZM12.8163 38.866L11.916 37.7858L10.1557 39.253L11.0561 40.3332L11.9565 41.4134L13.7167 39.9463L12.8163 38.866ZM21.1837 38.866L22.084 37.7858C21.1134 36.9768 20.2874 36.285 19.549 35.8108C18.7768 35.3148 17.964 34.9637 17 34.9637V36.37V37.7762C17.225 37.7762 17.5059 37.8412 18.0291 38.1772C18.5862 38.535 19.2575 39.0913 20.2833 39.9463L21.1837 38.866ZM12.8163 38.866L13.7167 39.9463C14.7425 39.0913 15.4138 38.535 15.9709 38.1772C16.4941 37.8412 16.775 37.7762 17 37.7762V36.37V34.9637C16.036 34.9637 15.2232 35.3148 14.451 35.8108C13.7126 36.285 12.8866 36.9768 11.916 37.7858L12.8163 38.866ZM5.75 37.96H4.34375C4.34375 39.3775 4.33993 40.6048 4.47603 41.5189C4.60964 42.4164 4.95202 43.543 6.11145 44.0615L6.68559 42.7778L7.25973 41.4941C7.48356 41.5942 7.35815 41.7784 7.25787 41.1048C7.16007 40.4478 7.15625 39.4755 7.15625 37.96H5.75ZM11.0561 40.3332L10.1557 39.253C8.97463 40.2375 8.20791 40.8719 7.6252 41.231C7.02191 41.6028 7.05357 41.4019 7.25973 41.4941L6.68559 42.7778L6.11145 44.0615C7.25319 44.5722 8.32513 44.1033 9.10073 43.6254C9.89688 43.1347 10.8476 42.3377 11.9565 41.4134L11.0561 40.3332ZM28.25 37.96H26.8438C26.8438 39.4755 26.8399 40.4478 26.7421 41.1048C26.6418 41.7784 26.5164 41.5942 26.7403 41.4941L27.3144 42.7778L27.8886 44.0615C29.048 43.543 29.3904 42.4164 29.524 41.5189C29.6601 40.6048 29.6562 39.3775 29.6562 37.96H28.25ZM22.9439 40.3332L22.0435 41.4134C23.1524 42.3377 24.1031 43.1347 24.8993 43.6254C25.6749 44.1033 26.7468 44.5722 27.8886 44.0615L27.3144 42.7778L26.7403 41.4941C26.9464 41.4019 26.9781 41.6028 26.3748 41.231C25.7921 40.8719 25.0254 40.2375 23.8443 39.253L22.9439 40.3332ZM28.25 27.5648H29.6562C29.6562 27.2189 29.6562 26.8917 29.6556 26.583L28.2493 26.586L26.8431 26.589C26.8438 26.8942 26.8438 27.2182 26.8438 27.5648H28.25ZM32 16.625H30.5938C30.5938 20.0735 29.3115 23.2191 27.1957 25.6163L28.25 26.5468L29.3043 27.4774C31.8562 24.5861 33.4062 20.7849 33.4062 16.625H32ZM28.25 26.5468L27.1957 25.6163C24.7028 28.4407 21.0599 30.2188 17 30.2188V31.625V33.0312C21.9003 33.0312 26.3002 30.8811 29.3043 27.4774L28.25 26.5468ZM28.2493 26.586L29.6554 26.6098L29.656 26.5707L28.25 26.5468L26.844 26.523L26.8433 26.5622L28.2493 26.586ZM5.75 27.5648H7.15625C7.15625 27.2038 7.15625 26.8672 7.157 26.551L5.75075 26.5477L4.3445 26.5444C4.34375 26.8645 4.34375 27.2045 4.34375 27.5648H5.75ZM17 31.625V30.2188C12.9405 30.2188 9.29791 28.4411 6.805 25.617L5.75075 26.5477L4.6965 27.4783C7.70064 30.8815 12.1001 33.0312 17 33.0312V31.625ZM5.75075 26.5477L6.805 25.617C4.68878 23.2197 3.40625 20.0739 3.40625 16.625H2H0.59375C0.59375 20.7853 2.1441 24.5869 4.6965 27.4783L5.75075 26.5477Z" fill="#FFBB00"/>
</svg>
