<svg width="23" height="17" viewBox="0 0 23 17" fill="none" xmlns="http://www.w3.org/2000/svg">
<path d="M15.8945 4.3958C16.0838 5.27748 16.0838 6.45883 16.0838 8.31144C16.0838 10.1635 16.0838 11.3448 15.8946 12.2264M15.8945 4.3958C15.8226 4.0608 15.7233 3.76907 15.5863 3.50022C15.1487 2.6413 14.4503 1.94298 13.5914 1.50534C12.615 1.00781 11.3367 1.00781 8.78019 1.00781C6.22368 1.00781 4.94543 1.00781 3.96897 1.50534C3.11005 1.94298 2.41173 2.6413 1.97409 3.50022C1.47656 4.47668 1.47656 5.75493 1.47656 8.31144C1.47656 10.868 1.47656 12.1462 1.97409 13.1227C2.41173 13.9816 3.11005 14.6799 3.96897 15.1175C4.94543 15.6151 6.22368 15.6151 8.78019 15.6151C11.3367 15.6151 12.615 15.6151 13.5914 15.1175C14.4503 14.6799 15.1487 13.9816 15.5863 13.1227C15.7234 12.8536 15.8227 12.5617 15.8946 12.2264M15.8945 4.3958L16.0838 4.31431L16.4475 4.15539C18.7553 3.14697 19.9092 2.64276 20.7354 3.18334C21.5615 3.72393 21.5615 4.98318 21.5615 7.50169V9.1212C21.5616 11.6397 21.5615 12.899 20.7354 13.4395C19.9092 13.9801 18.7553 13.4759 16.4475 12.4675L16.0838 12.3086L15.8946 12.2264M6.04133 8.31144C6.04133 6.68112 6.04133 5.86596 6.36252 5.39473C6.64267 4.9837 7.07328 4.71869 7.5473 4.66558C8.09074 4.60469 8.75301 5.01228 10.0776 5.82744C11.4021 6.6426 12.0644 7.05018 12.2866 7.5823C12.4805 8.04643 12.4805 8.57646 12.2866 9.04059C12.0644 9.57271 11.4021 9.98029 10.0776 10.7955C8.75301 11.6106 8.09074 12.0182 7.5473 11.9573C7.07328 11.9042 6.64267 11.6392 6.36252 11.2282C6.04133 10.7569 6.04133 9.94177 6.04133 8.31144Z" stroke="white" stroke-width="1.36943"/>
</svg>
