<svg width="46" height="45" viewBox="0 0 46 45" fill="none" xmlns="http://www.w3.org/2000/svg">
<path d="M43.4766 26.0304C43.3829 24.964 42.9323 23.0366 42.611 21.9803C39.9251 13.1684 30.328 13.9202 23.1078 11.4295L21.0766 16.1745C23.8061 17.5688 25.5874 20.4823 24.6092 23.5698C22.887 29.0063 15.3389 27.7515 13.5274 23.1414C12.1911 19.7416 13.9 17.2074 16.8079 15.5197L15.5486 10.526C11.6725 11.5879 8.48681 14.817 7.71828 18.8147C6.08976 27.2819 13.997 35.0642 22.4162 33.1312C28.3804 31.7614 31.3397 25.3812 28.7418 19.8554C28.5924 19.5375 27.5472 18.1566 27.7034 18.0127L32.8042 19.4271C32.3201 25.7605 32.6012 34.4318 39.4265 37.2616C39.5135 37.5851 39.3417 37.6152 39.2168 37.7959C35.5415 43.1254 25.8295 45.5927 19.7336 44.7171C-0.149938 41.8627 -6.19331 15.5041 10.3674 4.15019C26.6761 -7.03307 48.0487 6.90975 44.9066 26.3951L43.4766 30.8412C43.3773 29.2796 43.6127 27.5719 43.4766 26.0293L43.4766 26.0304Z" fill="url(#paint0_linear_224_1908)"/>
<path d="M41.1299 35.3322C40.8733 35.6188 38.3681 33.7605 38.0357 33.4136C35.246 30.5035 35.1601 24.7278 35.1523 20.8885C35.1501 19.7251 35.5918 18.6376 35.1635 17.3716C42.4416 19.9348 40.6291 29.2319 41.1299 35.3333L41.1299 35.3322Z" fill="url(#paint1_linear_224_1908)"/>
<defs>
<linearGradient id="paint0_linear_224_1908" x1="128.124" y1="5.75739" x2="92.0721" y2="108.816" gradientUnits="userSpaceOnUse">
<stop stop-color="#C8C8C8"/>
<stop offset="1" stop-color="#565656"/>
</linearGradient>
<linearGradient id="paint1_linear_224_1908" x1="52.2832" y1="19.6204" x2="29.0418" y2="41.839" gradientUnits="userSpaceOnUse">
<stop stop-color="#C8C8C8"/>
<stop offset="1" stop-color="#565656"/>
</linearGradient>
</defs>
</svg>

