<svg width="47" height="132" viewBox="0 0 47 132" fill="none" xmlns="http://www.w3.org/2000/svg">
<path d="M43.9991 0.167969C46.4614 0.62456 47.345 3.72348 45.2443 5.26609C44.0884 6.11518 42.3218 5.69604 40.9448 5.78318C31.5883 6.37444 28.9986 19.0322 37.241 23.2388C39.7724 24.5308 41.3611 24.0519 43.9653 24.2787C46.5838 24.507 47.3429 28.2109 45.0074 29.5022C43.7759 30.1834 40.3896 29.8997 38.9521 29.6584C33.0071 28.661 28.0299 23.8121 26.9309 17.872L26.7156 17.7993L20.3543 17.8065C19.3698 23.3583 15.0099 27.9516 9.58552 29.3711C7.95 29.7989 4.30303 30.2202 2.74529 29.7117C0.921088 29.1161 0.278689 26.7713 1.48282 25.2877C2.62574 23.8797 4.14891 24.3551 5.72754 24.2838C9.15197 24.1289 12.122 22.6166 13.823 19.5789C17.192 13.5618 13.1288 6.21528 6.29864 5.78318C4.62639 5.67731 2.692 6.25129 1.48931 4.76845C0.0885659 3.04075 1.14722 0.594311 3.24437 0.167967L6.76603 0.167967L8.90928 0.505009C14.7009 1.74515 19.2078 6.39749 20.3946 12.1927L26.9626 12.1877C27.9176 6.54224 32.4677 1.93744 37.9878 0.590711L40.5487 0.167968L43.9991 0.167969Z" fill="url(#paint0_linear_2006_408)"/>
<path d="M0.585288 15.4991C0.561522 15.2485 0.561522 14.8143 0.585288 14.5636C1.28746 7.23297 12.412 8.56746 11.3584 15.8146C10.4495 22.0686 1.19024 21.8367 0.585288 15.4991Z" fill="url(#paint1_linear_2006_408)"/>
<path d="M35.9978 75.5161C36.7007 85.4689 25.8477 92.0787 17.3373 86.789C9.94258 82.1928 9.66819 71.3924 16.8051 66.403C24.5535 60.9858 35.3338 66.1149 35.9978 75.5161ZM30.8946 75.8041C30.482 71.1396 25.3183 68.2365 21.0434 70.0708C15.7263 72.3523 15.1603 79.4785 20.2303 82.3815C25.0843 85.1614 31.3944 81.4539 30.8946 75.8049L30.8946 75.8041Z" fill="url(#paint2_linear_2006_408)"/>
<path d="M16.9613 124.896L16.9779 114.731C15.7896 114.138 14.2204 113.799 13.0897 113.141C10.6454 111.719 11.9093 107.854 14.7807 108.353C20.9554 110.603 26.948 113.373 33.0515 115.824C36.2361 117.32 36.6178 121.521 33.6147 123.469C33.125 123.787 32.5971 123.983 32.0649 124.22C26.6787 126.621 21.1153 128.65 15.7162 131.026C13.6781 131.917 11.5492 130.663 11.8179 128.346C12.0908 125.993 15.2725 125.821 16.9606 124.894L16.9613 124.896ZM21.7887 122.892L29.5522 119.832L21.7887 116.701L21.7887 122.891L21.7887 122.892Z" fill="url(#paint3_linear_2006_408)"/>
<path d="M25.8857 52.8602L34.8317 58.6194C37.5583 61.2078 34.208 64.6963 31.2539 62.6344L20.6349 55.6336C18.6105 55.4406 16.4248 55.756 14.4183 55.5969C13.0097 55.4852 11.874 54.5865 11.7955 53.1137C11.5679 48.8661 18.0257 50.7782 20.5132 50.3223L31.2539 43.1558C33.2891 41.7745 36.0373 42.8037 35.8068 45.4834C35.701 46.7149 34.7446 47.2745 33.8292 47.8939C31.264 49.6288 28.4971 51.1865 25.8857 52.8595L25.8857 52.8602Z" fill="url(#paint4_linear_2006_408)"/>
<path d="M30.342 102.381L14.1337 102.381C14.0559 102.381 13.3833 102.159 13.2587 102.106C11.4078 101.325 11.2696 98.4676 13.0189 97.5213C13.191 97.4284 13.9169 97.1267 14.0624 97.1267L30.3427 97.1267L30.3427 91.8363C30.3427 88.6351 35.3731 88.1201 35.6641 91.8334L35.6641 107.674C35.399 111.464 30.3427 110.911 30.3427 107.671L30.3427 102.38L30.342 102.381Z" fill="url(#paint5_linear_2006_408)"/>
<defs>
<linearGradient id="paint0_linear_2006_408" x1="131.452" y1="3.89004" x2="114.82" y2="77.1256" gradientUnits="userSpaceOnUse">
<stop stop-color="#C8C8C8"/>
<stop offset="1" stop-color="#565656"/>
</linearGradient>
<linearGradient id="paint1_linear_2006_408" x1="31.6942" y1="11.0173" x2="23.2113" y2="35.7896" gradientUnits="userSpaceOnUse">
<stop stop-color="#C8C8C8"/>
<stop offset="1" stop-color="#565656"/>
</linearGradient>
<linearGradient id="paint2_linear_2006_408" x1="81.5807" y1="67.2534" x2="61.9266" y2="123.682" gradientUnits="userSpaceOnUse">
<stop stop-color="#C8C8C8"/>
<stop offset="1" stop-color="#565656"/>
</linearGradient>
<linearGradient id="paint3_linear_2006_408" x1="80.2123" y1="111.184" x2="62.2945" y2="164.684" gradientUnits="userSpaceOnUse">
<stop stop-color="#C8C8C8"/>
<stop offset="1" stop-color="#565656"/>
</linearGradient>
<linearGradient id="paint4_linear_2006_408" x1="80.7141" y1="45.1325" x2="65.9935" y2="94.3041" gradientUnits="userSpaceOnUse">
<stop stop-color="#C8C8C8"/>
<stop offset="1" stop-color="#565656"/>
</linearGradient>
<linearGradient id="paint5_linear_2006_408" x1="80.2189" y1="91.8726" x2="64.9377" y2="141.691" gradientUnits="userSpaceOnUse">
<stop stop-color="#C8C8C8"/>
<stop offset="1" stop-color="#565656"/>
</linearGradient>
</defs>
</svg>

