<svg width="21" height="22" viewBox="0 0 21 22" fill="none" xmlns="http://www.w3.org/2000/svg">
<path d="M17.8244 2.28531L17.3591 2.92578L17.8244 2.28531ZM18.992 3.45292L18.3516 3.91825L18.992 3.45292ZM2.00797 3.45292L2.64844 3.91825L2.00797 3.45292ZM3.17558 2.28531L3.64091 2.92578L3.17558 2.28531ZM3.17558 19.2694L3.64091 18.6289L3.17558 19.2694ZM2.00797 18.1018L2.64844 17.6364L2.00797 18.1018ZM17.8244 19.2694L17.3591 18.6289L17.8244 19.2694ZM18.992 18.1018L18.3516 17.6364L18.992 18.1018ZM12.0538 16.6174C12.3644 16.9252 12.8656 16.923 13.1734 16.6124C13.4812 16.3019 13.4789 15.8006 13.1684 15.4928L12.0538 16.6174ZM10.7502 14.2107L11.3075 13.6485L10.7502 14.2107ZM10.7502 7.34395L10.1929 6.78166L10.7502 7.34395ZM13.1684 6.06185C13.4789 5.75407 13.4812 5.25282 13.1734 4.94228C12.8656 4.63174 12.3644 4.6295 12.0538 4.93728L13.1684 6.06185ZM8.40989 11.1081L7.62457 11.2082L7.62457 11.2082L8.40989 11.1081ZM8.40989 10.4466L7.62457 10.3465L7.62457 10.3465L8.40989 10.4466ZM10.5 1.27734L10.5 2.06901C12.4967 2.06901 13.9306 2.0701 15.041 2.1904C16.1365 2.3091 16.8229 2.53619 17.3591 2.92578L17.8244 2.28531L18.2898 1.64484C17.4386 1.02646 16.4418 0.749572 15.2115 0.616279C13.996 0.484592 12.4614 0.485679 10.5 0.485679L10.5 1.27734ZM20 10.7773L20.7917 10.7773C20.7917 8.81595 20.7928 7.28132 20.6611 6.06585C20.5278 4.83556 20.2509 3.83871 19.6325 2.98759L18.992 3.45292L18.3516 3.91825C18.7412 4.45448 18.9682 5.14082 19.0869 6.23639C19.2072 7.34678 19.2083 8.78069 19.2083 10.7773L20 10.7773ZM17.8244 2.28531L17.3591 2.92578C17.7399 3.20248 18.0749 3.5374 18.3516 3.91825L18.992 3.45292L19.6325 2.98759C19.2581 2.47233 18.805 2.0192 18.2898 1.64484L17.8244 2.28531ZM1 10.7773L1.79167 10.7773C1.79167 8.78068 1.79276 7.34678 1.91306 6.23639C2.03176 5.14082 2.25885 4.45448 2.64844 3.91825L2.00797 3.45292L1.3675 2.98759C0.749122 3.83871 0.47223 4.83556 0.338937 6.06585C0.20725 7.28132 0.208337 8.81595 0.208337 10.7773L1 10.7773ZM10.5 1.27734L10.5 0.485679C8.53861 0.485679 7.00398 0.484591 5.78851 0.616278C4.55822 0.749571 3.56137 1.02646 2.71025 1.64484L3.17558 2.28531L3.64091 2.92578C4.17714 2.53619 4.86348 2.3091 5.95905 2.1904C7.06944 2.0701 8.50334 2.06901 10.5 2.06901L10.5 1.27734ZM2.00797 3.45292L2.64844 3.91825C2.92514 3.53741 3.26006 3.20248 3.64091 2.92578L3.17558 2.28531L2.71025 1.64484C2.19499 2.0192 1.74186 2.47233 1.3675 2.98759L2.00797 3.45292ZM10.5 20.2773L10.5 19.4857C8.50334 19.4857 7.06944 19.4846 5.95905 19.3643C4.86348 19.2456 4.17714 19.0185 3.64091 18.6289L3.17558 19.2694L2.71025 19.9098C3.56137 20.5282 4.55822 20.8051 5.7885 20.9384C7.00398 21.0701 8.53861 21.069 10.5 21.069L10.5 20.2773ZM1 10.7773L0.208337 10.7773C0.208337 12.7387 0.207249 14.2734 0.338936 15.4888C0.472229 16.7191 0.749121 17.716 1.36749 18.5671L2.00797 18.1018L2.64844 17.6364C2.25885 17.1002 2.03176 16.4139 1.91306 15.3183C1.79276 14.2079 1.79167 12.774 1.79167 10.7773L1 10.7773ZM3.17558 19.2694L3.64091 18.6289C3.26006 18.3522 2.92514 18.0173 2.64844 17.6364L2.00797 18.1018L1.36749 18.5671C1.74186 19.0824 2.19499 19.5355 2.71025 19.9098L3.17558 19.2694ZM10.5 20.2773L10.5 21.069C12.4614 21.069 13.996 21.0701 15.2115 20.9384C16.4418 20.8051 17.4386 20.5282 18.2898 19.9098L17.8244 19.2694L17.3591 18.6289C16.8229 19.0185 16.1365 19.2456 15.041 19.3643C13.9306 19.4846 12.4967 19.4857 10.5 19.4857L10.5 20.2773ZM20 10.7773L19.2083 10.7773C19.2083 12.774 19.2072 14.2079 19.0869 15.3183C18.9682 16.4139 18.7412 17.1002 18.3516 17.6364L18.992 18.1018L19.6325 18.5671C20.2509 17.716 20.5278 16.7191 20.6611 15.4888C20.7928 14.2734 20.7917 12.7387 20.7917 10.7773L20 10.7773ZM17.8244 19.2694L18.2898 19.9098C18.805 19.5355 19.2581 19.0824 19.6325 18.5671L18.992 18.1018L18.3516 17.6364C18.0749 18.0173 17.7399 18.3522 17.3591 18.6289L17.8244 19.2694ZM12.6111 16.0551L13.1684 15.4928L11.3075 13.6485L10.7502 14.2107L10.1929 14.773L12.0538 16.6174L12.6111 16.0551ZM10.7502 7.34395L11.3075 7.90623L13.1684 6.06185L12.6111 5.49957L12.0538 4.93728L10.1929 6.78166L10.7502 7.34395ZM10.7502 14.2107L11.3075 13.6485C10.5522 12.8999 10.0342 12.3848 9.68363 11.9483C9.34311 11.5243 9.22629 11.2519 9.1952 11.008L8.40989 11.1081L7.62457 11.2082C7.70774 11.8606 8.01905 12.4042 8.44912 12.9397C8.86915 13.4627 9.46411 14.0507 10.1929 14.773L10.7502 14.2107ZM10.7502 7.34395L10.1929 6.78166C9.46411 7.50399 8.86915 8.09198 8.44912 8.61499C8.01905 9.1505 7.70774 9.69405 7.62457 10.3465L8.40989 10.4466L9.1952 10.5467C9.22629 10.3028 9.34311 10.0304 9.68363 9.60642C10.0342 9.16992 10.5522 8.65477 11.3075 7.90623L10.7502 7.34395ZM8.40989 11.1081L9.1952 11.008C9.17568 10.8548 9.17568 10.6999 9.1952 10.5467L8.40989 10.4466L7.62457 10.3465C7.58811 10.6326 7.58811 10.9221 7.62457 11.2082L8.40989 11.1081Z" fill="#797979"/>
</svg>
