<svg width="119" height="39" viewBox="0 0 119 39" fill="none" xmlns="http://www.w3.org/2000/svg">
<path d="M29.6553 5.54048L28.8904 6.59327L29.6553 5.54048ZM31.5746 7.45977L30.5218 8.22467L31.5746 7.45977ZM3.6567 7.45977L4.70949 8.22466L3.6567 7.45977ZM5.57598 5.54048L6.34088 6.59327L5.57598 5.54048ZM5.57598 33.4584L6.34088 32.4056L5.57598 33.4584ZM3.6567 31.5391L4.70948 30.7742L3.6567 31.5391ZM29.6553 33.4584L28.8904 32.4056L29.6553 33.4584ZM31.5746 31.5391L30.5218 30.7742L31.5746 31.5391ZM20.1698 29.0991C20.6802 29.6051 21.5042 29.6014 22.0101 29.0909C22.516 28.5805 22.5123 27.7565 22.0019 27.2506L20.1698 29.0991ZM18.0269 25.1431L18.943 24.2189L18.0269 25.1431ZM18.0269 13.8557L17.1109 12.9315L17.1109 12.9315L18.0269 13.8557ZM22.0019 11.7482C22.5123 11.2423 22.516 10.4184 22.0101 9.90792C21.5042 9.39747 20.6802 9.39379 20.1698 9.89971L22.0019 11.7482ZM14.18 20.0431L12.8891 20.2076L12.8891 20.2076L14.18 20.0431ZM14.18 18.9558L12.8891 18.7912L12.8891 18.7912L14.18 18.9558ZM17.6156 3.88362L17.6156 5.18494C20.8977 5.18494 23.2547 5.18672 25.0799 5.38448C26.8808 5.57959 28.009 5.95287 28.8904 6.59327L29.6553 5.54048L30.4202 4.4877C29.0212 3.47123 27.3826 3.01609 25.3603 2.79698C23.3623 2.58052 20.8397 2.5823 17.6156 2.5823L17.6156 3.88362ZM33.2314 19.4994L34.5328 19.4994C34.5328 16.2754 34.5346 13.7528 34.3181 11.7548C34.099 9.7325 33.6438 8.09392 32.6274 6.69488L31.5746 7.45977L30.5218 8.22467C31.1622 9.1061 31.5355 10.2343 31.7306 12.0352C31.9283 13.8604 31.9301 16.2174 31.9301 19.4994L33.2314 19.4994ZM29.6553 5.54048L28.8904 6.59327C29.5164 7.0481 30.067 7.59864 30.5218 8.22467L31.5746 7.45977L32.6274 6.69488C32.012 5.8479 31.2672 5.10306 30.4202 4.4877L29.6553 5.54048ZM1.99983 19.4994L3.30115 19.4994C3.30115 16.2174 3.30294 13.8604 3.50069 12.0351C3.6958 10.2343 4.06909 9.1061 4.70949 8.22466L3.6567 7.45977L2.60391 6.69487C1.58744 8.09392 1.1323 9.7325 0.913197 11.7548C0.696732 13.7528 0.698518 16.2754 0.698518 19.4994L1.99983 19.4994ZM17.6156 3.88362L17.6156 2.5823C14.3916 2.5823 11.869 2.58052 9.87103 2.79698C7.84872 3.01608 6.21013 3.47123 4.81109 4.48769L5.57598 5.54048L6.34088 6.59327C7.22231 5.95287 8.3505 5.57959 10.1514 5.38447C11.9766 5.18672 14.3336 5.18494 17.6156 5.18494L17.6156 3.88362ZM3.6567 7.45977L4.70949 8.22466C5.16432 7.59864 5.71485 7.0481 6.34088 6.59327L5.57598 5.54048L4.81109 4.48769C3.96412 5.10306 3.21927 5.8479 2.60391 6.69487L3.6567 7.45977ZM17.6156 35.1152L17.6156 33.8139C14.3336 33.8139 11.9766 33.8121 10.1514 33.6144C8.35049 33.4193 7.22231 33.046 6.34088 32.4056L5.57598 33.4584L4.81109 34.5112C6.21013 35.5276 7.84871 35.9828 9.87103 36.2019C11.869 36.4183 14.3916 36.4165 17.6156 36.4166L17.6156 35.1152ZM1.99983 19.4994L0.698518 19.4994C0.698518 22.7235 0.696731 25.2461 0.913195 27.244C1.1323 29.2664 1.58744 30.9049 2.60391 32.304L3.6567 31.5391L4.70948 30.7742C4.06909 29.8928 3.6958 28.7646 3.50069 26.9637C3.30294 25.1385 3.30115 22.7815 3.30115 19.4994L1.99983 19.4994ZM5.57598 33.4584L6.34088 32.4056C5.71485 31.9507 5.16432 31.4002 4.70948 30.7742L3.6567 31.5391L2.60391 32.304C3.21927 33.151 3.96411 33.8958 4.81109 34.5112L5.57598 33.4584ZM17.6156 35.1152L17.6156 36.4166C20.8397 36.4166 23.3623 36.4183 25.3603 36.2019C27.3826 35.9828 29.0211 35.5276 30.4202 34.5112L29.6553 33.4584L28.8904 32.4056C28.009 33.046 26.8808 33.4193 25.0799 33.6144C23.2547 33.8121 20.8977 33.8139 17.6156 33.8139L17.6156 35.1152ZM33.2314 19.4994L31.9301 19.4994C31.9301 22.7815 31.9283 25.1385 31.7306 26.9637C31.5355 28.7646 31.1622 29.8928 30.5218 30.7742L31.5746 31.5391L32.6274 32.304C33.6438 30.9049 34.099 29.2664 34.3181 27.244C34.5345 25.2461 34.5328 22.7235 34.5328 19.4994L33.2314 19.4994ZM29.6553 33.4584L30.4202 34.5112C31.2672 33.8958 32.012 33.151 32.6274 32.304L31.5746 31.5391L30.5218 30.7742C30.067 31.4002 29.5164 31.9507 28.8904 32.4056L29.6553 33.4584ZM21.0858 28.1749L22.0019 27.2506L18.943 24.2189L18.0269 25.1431L17.1109 26.0674L20.1698 29.0991L21.0858 28.1749ZM18.0269 13.8557L18.943 14.78L22.0019 11.7482L21.0858 10.824L20.1698 9.89971L17.1109 12.9315L18.0269 13.8557ZM18.0269 25.1431L18.943 24.2189C17.7015 22.9885 16.8499 22.1417 16.2737 21.4242C15.714 20.7272 15.522 20.2795 15.4708 19.8786L14.18 20.0431L12.8891 20.2076C13.0258 21.2801 13.5375 22.1736 14.2445 23.0538C14.9349 23.9136 15.9129 24.8801 17.1109 26.0674L18.0269 25.1431ZM18.0269 13.8557L17.1109 12.9315C15.9129 14.1188 14.9349 15.0853 14.2445 15.945C13.5375 16.8253 13.0258 17.7187 12.8891 18.7912L14.18 18.9558L15.4708 19.1203C15.522 18.7194 15.714 18.2717 16.2737 17.5747C16.8499 16.8572 17.7015 16.0104 18.943 14.78L18.0269 13.8557ZM14.18 20.0431L15.4708 19.8786C15.4388 19.6268 15.4388 19.3721 15.4708 19.1203L14.18 18.9558L12.8891 18.7912C12.8292 19.2615 12.8292 19.7374 12.8891 20.2076L14.18 20.0431Z" fill="white"/>
<path d="M44.061 7.33936H51.5225C53.4014 7.33936 54.8286 7.48991 55.8042 7.79102C56.7798 8.09212 57.6048 8.7666 58.2793 9.81445C58.9538 10.8503 59.291 12.1149 59.291 13.6084C59.291 16.3424 58.0685 18.1431 55.6235 19.0103C58.5744 19.9377 60.0498 22.0033 60.0498 25.207C60.0498 27.0257 59.4657 28.6156 58.2974 29.9766C57.1411 31.3255 54.9189 32 51.6309 32H44.061V7.33936ZM48.0537 17.5649H50.6372C52.4559 17.5649 53.6543 17.2337 54.2324 16.5713C54.8105 15.8968 55.0996 15.0296 55.0996 13.9697C55.0996 12.7292 54.7684 11.8439 54.106 11.314C53.4435 10.772 52.4198 10.501 51.0347 10.501H48.0537V17.5649ZM48.0537 28.73H51.3418C54.3529 28.73 55.8584 27.3991 55.8584 24.7373C55.8584 23.7015 55.5392 22.7741 54.9009 21.9551C54.2625 21.1361 52.9618 20.7266 50.9985 20.7266H48.0537V28.73ZM68.8481 7.33936H73.4189L80.0312 32H75.894L74.3403 25.8213H67.1318L65.6143 32H61.7119L68.8481 7.33936ZM73.5273 22.6055L70.7271 11.314L67.9448 22.6055H73.5273ZM94.4302 23.7075L98.188 24.2314C97.4172 29.7116 94.7253 32.4517 90.1123 32.4517C87.1133 32.4517 84.8791 31.3014 83.4097 29.001C81.9403 26.7005 81.2056 23.6232 81.2056 19.769C81.2056 15.6138 81.9824 12.4281 83.5361 10.2119C85.0898 7.99577 87.3301 6.8877 90.2568 6.8877C94.7855 6.8877 97.4412 9.69401 98.2241 15.3066L94.4302 15.8667C94.0207 12.133 92.6356 10.2661 90.2749 10.2661C87.1193 10.2661 85.5415 13.512 85.5415 20.0039C85.5415 26.0501 87.1193 29.0732 90.2749 29.0732C91.5396 29.0732 92.479 28.6156 93.0933 27.7002C93.7196 26.7728 94.1652 25.4419 94.4302 23.7075ZM101.584 7.33936H105.667V19.1006L113.111 7.33936H117.429L111.069 16.3906L118.513 32H114.086L108.576 19.769L105.667 23.9062V32H101.584V7.33936Z" fill="white"/>
</svg>
