<svg width="39" height="39" viewBox="0 0 39 39" fill="none" xmlns="http://www.w3.org/2000/svg">
<g clip-path="url(#clip0_2006_160)">
<path d="M16.6832 21.0591C16.1324 20.3656 15.5004 19.835 14.7924 19.4747C15.4191 19.0944 15.9554 18.6236 16.3997 18.0677C17.1492 17.1279 17.5302 15.9472 17.5302 14.5584C17.5302 13.4013 17.225 12.3383 16.6218 11.3967C16.0204 10.4587 15.1265 9.70365 13.9653 9.15498C12.8258 8.61718 11.4551 8.34375 9.88934 8.34375H0.995117V31.3733H10.2974C11.8216 31.3733 13.1815 31.0945 14.341 30.5476C15.522 29.9899 16.443 29.2094 17.0751 28.2298C17.709 27.2466 18.0305 26.1293 18.0305 24.9088C18.0305 23.4801 17.5754 22.1836 16.6814 21.0555L16.6832 21.0591ZM11.9589 16.8635C11.4081 17.3108 10.6081 17.5371 9.57687 17.5371H5.73027V12.4343H9.57687C10.6026 12.4343 11.4009 12.6697 11.9499 13.1315C12.4772 13.5751 12.7319 14.1872 12.7319 15.0002C12.7319 15.8132 12.479 16.4398 11.9571 16.8635H11.9589ZM5.73027 21.6223H9.86042C10.9422 21.6223 11.7729 21.8848 12.4032 22.4262C13.0064 22.9441 13.2989 23.634 13.2989 24.5358C13.2989 25.4376 13.0262 26.0732 12.4682 26.5476C11.8885 27.0419 11.0541 27.2918 9.98683 27.2918H5.73208V21.6223H5.73027Z" fill="#D5D5D5"/>
<path d="M36.2052 17.2055C35.4883 15.9071 34.4751 14.884 33.1893 14.167C31.9053 13.4499 30.4226 13.0859 28.7846 13.0859C27.1466 13.0859 25.5538 13.4608 24.2391 14.1978C22.9226 14.9366 21.8878 16.0031 21.16 17.363C20.434 18.7229 20.0674 20.32 20.0674 22.1091C20.0674 23.8981 20.4466 25.4953 21.1925 26.8552C21.9401 28.2169 22.9858 29.287 24.3005 30.0349C25.6152 30.7846 27.1232 31.163 28.7846 31.163C30.8235 31.163 32.5572 30.6433 33.937 29.6202C35.3149 28.5953 36.281 27.2644 36.8084 25.66L36.8463 25.546H32.8119L32.7884 25.5948C32.0118 27.1702 30.6664 27.9688 28.7864 27.9688C27.4753 27.9688 26.3557 27.5523 25.4545 26.732C24.575 25.9317 24.0711 24.8615 23.9519 23.5468H37.1443L37.1551 23.4726C37.24 22.9439 37.2816 22.3463 37.2816 21.6962C37.2816 20.0104 36.9186 18.4984 36.2034 17.2019L36.2052 17.2055ZM25.5159 17.4391C26.3737 16.6713 27.4211 16.282 28.6275 16.282C29.9585 16.282 31.0908 16.6767 31.992 17.4572C32.8678 18.2159 33.332 19.2336 33.3717 20.483H23.9863C24.1632 19.2136 24.6761 18.1905 25.5141 17.4409L25.5159 17.4391Z" fill="#D5D5D5"/>
<path d="M33.0679 8.88281H24.2803V10.9707H33.0679V8.88281Z" fill="#D5D5D5"/>
</g>
<defs>
<clipPath id="clip0_2006_160">
<rect width="37.7559" height="37.7559" fill="white" transform="translate(0.28125 0.621094)"/>
</clipPath>
</defs>
</svg>

