<svg width="128" height="39" viewBox="0 0 128 39" fill="none" xmlns="http://www.w3.org/2000/svg">
<g style="mix-blend-mode:difference">
<path fill-rule="evenodd" clip-rule="evenodd" d="M15.0005 22.152L21.6292 28.7808C21.981 29.1325 22.458 29.3301 22.9555 29.3301C23.4529 29.3301 23.93 29.1325 24.2817 28.7808C24.6335 28.429 24.8311 27.952 24.8311 27.4545C24.8311 26.9571 24.6335 26.48 24.2817 26.1283L17.6505 19.4995L24.2805 12.8708C24.4546 12.6966 24.5926 12.4899 24.6868 12.2623C24.781 12.0348 24.8294 11.791 24.8294 11.5447C24.8293 11.2985 24.7808 11.0546 24.6865 10.8272C24.5922 10.5997 24.454 10.393 24.2799 10.2189C24.1057 10.0448 23.8989 9.90674 23.6714 9.81256C23.4439 9.71838 23.2 9.66994 22.9538 9.66999C22.7075 9.67005 22.4637 9.71861 22.2362 9.8129C22.0087 9.90719 21.8021 10.0454 21.628 10.2195L15.0005 16.8483L8.37173 10.2195C8.19885 10.0404 7.99202 9.89743 7.76331 9.79906C7.5346 9.70068 7.28859 9.64884 7.03963 9.64656C6.79067 9.64428 6.54375 9.69161 6.31328 9.78578C6.0828 9.87994 5.87339 10.0191 5.69726 10.195C5.52113 10.371 5.38181 10.5803 5.28742 10.8107C5.19304 11.0411 5.14548 11.2879 5.14752 11.5369C5.14957 11.7858 5.20118 12.0319 5.29933 12.2607C5.39749 12.4895 5.54023 12.6965 5.71923 12.8695L12.3505 19.4995L5.72048 26.1295C5.54148 26.3026 5.39874 26.5095 5.30058 26.7383C5.20243 26.9671 5.15082 27.2132 5.14877 27.4622C5.14673 27.7111 5.19429 27.958 5.28867 28.1884C5.38306 28.4188 5.52238 28.6281 5.69851 28.804C5.87464 28.98 6.08405 29.1191 6.31453 29.2133C6.545 29.3074 6.79192 29.3548 7.04088 29.3525C7.28984 29.3502 7.53585 29.2984 7.76456 29.2C7.99327 29.1016 8.2001 28.9587 8.37298 28.7795L15.0005 22.152Z" fill="#D2D2D2"/>
<path d="M40.9209 32V7.33936H50.5322C52.1582 7.33936 53.5072 7.50798 54.5791 7.84521C55.651 8.18245 56.5785 8.88704 57.3613 9.95898C58.1442 11.0309 58.5356 12.2896 58.5356 13.7349C58.5356 15.0959 58.1382 16.2822 57.3433 17.2939C56.5483 18.2936 55.4523 18.932 54.0552 19.209C55.7896 19.5101 57.1024 20.2147 57.9937 21.3228C58.8849 22.4308 59.3306 23.7437 59.3306 25.2612C59.3306 27.1642 58.7043 28.7661 57.4517 30.0669C56.2111 31.3556 54.2961 32 51.7065 32H40.9209ZM45.1304 17.6914H50.5503C51.6584 17.6914 52.5316 17.3602 53.1699 16.6978C53.8203 16.0353 54.1455 15.1922 54.1455 14.1685C54.1455 13.0363 53.7782 12.2052 53.0435 11.6753C52.3088 11.1333 51.4476 10.8623 50.46 10.8623H45.1304V17.6914ZM45.1304 28.2964H50.8755C52.092 28.2964 53.0495 27.9772 53.748 27.3389C54.4587 26.7005 54.814 25.8394 54.814 24.7554C54.814 23.7196 54.4526 22.8704 53.73 22.208C53.0194 21.5456 52.0739 21.2144 50.8936 21.2144H45.1304V28.2964ZM82.7446 32H77.9932L76.0239 26.1284H66.5391L64.606 32H60.812L68.9961 7.33936H74.4702L82.7446 32ZM74.8315 22.5693L71.2363 11.5669L67.6411 22.5693H74.8315ZM99.5103 23.4365L103.629 23.8882C103.364 26.3573 102.407 28.3927 100.757 29.9946C99.1188 31.5845 96.9629 32.3794 94.2891 32.3794C92.0368 32.3794 90.2061 31.8133 88.7969 30.6812C87.3997 29.549 86.3218 28.0133 85.563 26.0742C84.8042 24.1351 84.4248 21.9972 84.4248 19.6606C84.4248 15.9028 85.3161 12.8496 87.0986 10.501C88.8812 8.1403 91.3322 6.95996 94.4517 6.95996C96.8966 6.95996 98.9321 7.71273 100.558 9.21826C102.184 10.7238 103.208 12.8797 103.629 15.686L99.5103 16.1196C98.7515 12.3979 97.0773 10.5371 94.4878 10.5371C92.8257 10.5371 91.5309 11.314 90.6035 12.8677C89.6882 14.4093 89.2305 16.6496 89.2305 19.5884C89.2305 22.5754 89.7243 24.8337 90.7119 26.3633C91.6995 27.8809 93.0063 28.6396 94.6323 28.6396C95.9331 28.6396 97.0412 28.1278 97.9565 27.104C98.8719 26.0802 99.3898 24.8577 99.5103 23.4365ZM126.538 32H121.569L116.366 19.4438L111.597 25.7671V32H107.152V7.33936H111.597V20.293C112.163 19.4137 112.572 18.8055 112.825 18.4683L121.009 7.33936H125.508L119.654 15.4512L126.538 32Z" fill="#D5D5D5"/>
</g>
</svg>
