<svg width="201" height="65" viewBox="0 0 201 65" fill="none" xmlns="http://www.w3.org/2000/svg">
<g opacity="0.46">
<path d="M55.2443 6.13L53.7993 8.11883L55.2443 6.13ZM58.87 9.75575L56.8812 11.2007L58.87 9.75575ZM6.13001 9.75574L8.11884 11.2007L6.13001 9.75574ZM9.75575 6.13L11.2007 8.11883L9.75575 6.13ZM9.75575 58.87L11.2007 56.8812L9.75575 58.87ZM6.13 55.2443L8.11884 53.7993L6.13 55.2443ZM55.2443 58.87L53.7993 56.8812L55.2443 58.87ZM58.87 55.2443L56.8812 53.7993L58.87 55.2443ZM37.325 50.6349C38.2893 51.5907 39.8459 51.5837 40.8016 50.6194C41.7573 49.6551 41.7504 48.0986 40.7861 47.1428L37.325 50.6349ZM33.2769 43.1616L35.0075 41.4156L33.2769 43.1616ZM33.2769 21.8384L31.5464 20.0924L33.2769 21.8384ZM40.7861 17.8572C41.7504 16.9014 41.7574 15.3449 40.8016 14.3806C39.8459 13.4163 38.2893 13.4093 37.325 14.3651L40.7861 17.8572ZM26.0096 33.527L23.571 33.8379L23.571 33.8379L26.0096 33.527ZM26.0096 31.473L23.571 31.1621L23.571 31.1621L26.0096 31.473ZM32.5 3.00001L32.5 5.45834C38.7002 5.45834 43.1528 5.46171 46.6009 5.83528C50.0029 6.20387 52.1342 6.90905 53.7993 8.11883L55.2443 6.13L56.6892 4.14117C54.0463 2.22095 50.9508 1.36113 47.1304 0.947222C43.3561 0.538298 38.5906 0.54167 32.5 0.541669L32.5 3.00001ZM62 32.5L64.4583 32.5C64.4583 26.4094 64.4617 21.6439 64.0528 17.8696C63.6389 14.0492 62.7791 10.9537 60.8588 8.31078L58.87 9.75575L56.8812 11.2007C58.091 12.8658 58.7961 14.9971 59.1647 18.3992C59.5383 21.8472 59.5417 26.2999 59.5417 32.5L62 32.5ZM55.2443 6.13L53.7993 8.11883C54.9819 8.97806 56.0219 10.0181 56.8812 11.2007L58.87 9.75575L60.8588 8.31078C59.6964 6.71075 58.2893 5.30366 56.6892 4.14117L55.2443 6.13ZM3.00001 32.5L5.45834 32.5C5.45834 26.2998 5.46172 21.8472 5.83529 18.3991C6.20388 14.9971 6.90906 12.8658 8.11884 11.2007L6.13001 9.75574L4.14118 8.31077C2.22096 10.9537 1.36114 14.0492 0.947228 17.8696C0.538303 21.6439 0.541675 26.4094 0.541674 32.5L3.00001 32.5ZM32.5 3.00001L32.5 0.541669C26.4094 0.541669 21.6439 0.538296 17.8696 0.94722C14.0492 1.36113 10.9537 2.22095 8.31078 4.14117L9.75575 6.13L11.2007 8.11883C12.8658 6.90905 14.9971 6.20387 18.3992 5.83528C21.8472 5.46171 26.2999 5.45834 32.5 5.45834L32.5 3.00001ZM6.13001 9.75574L8.11884 11.2007C8.97807 10.0181 10.0181 8.97806 11.2007 8.11883L9.75575 6.13L8.31078 4.14117C6.71075 5.30365 5.30366 6.71074 4.14118 8.31077L6.13001 9.75574ZM32.5 62L32.5 59.5417C26.2999 59.5417 21.8472 59.5383 18.3992 59.1647C14.9971 58.7961 12.8658 58.0909 11.2007 56.8812L9.75575 58.87L8.31078 60.8588C10.9537 62.779 14.0492 63.6389 17.8696 64.0528C21.6439 64.4617 26.4094 64.4583 32.5 64.4583L32.5 62ZM3.00001 32.5L0.541674 32.5C0.541674 38.5906 0.538301 43.3561 0.947225 47.1304C1.36113 50.9508 2.22096 54.0463 4.14117 56.6892L6.13 55.2443L8.11884 53.7993C6.90905 52.1342 6.20387 50.0029 5.83529 46.6008C5.46171 43.1528 5.45834 38.7002 5.45834 32.5L3.00001 32.5ZM9.75575 58.87L11.2007 56.8812C10.0181 56.0219 8.97807 54.9819 8.11884 53.7993L6.13 55.2443L4.14117 56.6892C5.30366 58.2893 6.71075 59.6963 8.31078 60.8588L9.75575 58.87ZM32.5 62L32.5 64.4583C38.5906 64.4583 43.3561 64.4617 47.1304 64.0528C50.9508 63.6389 54.0463 62.779 56.6892 60.8588L55.2443 58.87L53.7993 56.8812C52.1342 58.091 50.0029 58.7961 46.6009 59.1647C43.1528 59.5383 38.7002 59.5417 32.5 59.5417L32.5 62ZM62 32.5L59.5417 32.5C59.5417 38.7002 59.5383 43.1528 59.1647 46.6009C58.7961 50.0029 58.091 52.1342 56.8812 53.7993L58.87 55.2443L60.8588 56.6892C62.7791 54.0463 63.6389 50.9508 64.0528 47.1304C64.4617 43.3561 64.4583 38.5906 64.4583 32.5L62 32.5ZM55.2443 58.87L56.6892 60.8588C58.2893 59.6963 59.6963 58.2893 60.8588 56.6892L58.87 55.2443L56.8812 53.7993C56.0219 54.9819 54.9819 56.0219 53.7993 56.8812L55.2443 58.87ZM39.0556 48.8889L40.7861 47.1428L35.0075 41.4156L33.2769 43.1616L31.5464 44.9076L37.325 50.6349L39.0556 48.8889ZM33.2769 21.8384L35.0075 23.5844L40.7861 17.8572L39.0556 16.1111L37.325 14.3651L31.5464 20.0924L33.2769 21.8384ZM33.2769 43.1616L35.0075 41.4156C32.6622 39.0912 31.0535 37.4915 29.965 36.136C28.9075 34.8194 28.5448 33.9736 28.4482 33.2162L26.0096 33.527L23.571 33.8379C23.8293 35.8639 24.796 37.5518 26.1315 39.2147C27.4358 40.8388 29.2833 42.6646 31.5464 44.9076L33.2769 43.1616ZM33.2769 21.8384L31.5464 20.0924C29.2833 22.3354 27.4358 24.1612 26.1315 25.7853C24.796 27.4482 23.8293 29.1361 23.571 31.1621L26.0096 31.473L28.4482 31.7838C28.5448 31.0264 28.9075 30.1806 29.9649 28.864C31.0535 27.5085 32.6622 25.9088 35.0075 23.5844L33.2769 21.8384ZM26.0096 33.527L28.4482 33.2162C28.3876 32.7406 28.3876 32.2594 28.4482 31.7838L26.0096 31.473L23.571 31.1621C23.4578 32.0505 23.4578 32.9495 23.571 33.8379L26.0096 33.527Z" fill="#797979"/>
<path opacity="0.9" d="M81.4464 13.1066H93.9706C97.1244 13.1066 99.52 13.3593 101.158 13.8647C102.795 14.3701 104.18 15.5023 105.312 17.2611C106.444 18.9997 107.01 21.1225 107.01 23.6293C107.01 28.2185 104.958 31.2409 100.854 32.6964C105.807 34.2531 108.284 37.7203 108.284 43.0979C108.284 46.1506 107.303 48.8191 105.342 51.1036C103.402 53.3679 99.6717 54.5 94.1525 54.5H81.4464V13.1066ZM88.1482 30.2705H92.4847C95.5374 30.2705 97.5489 29.7145 98.5193 28.6026C99.4897 27.4705 99.9749 26.0149 99.9749 24.2358C99.9749 22.1535 99.4189 20.6676 98.307 19.7781C97.1951 18.8683 95.4767 18.4134 93.1518 18.4134H88.1482V30.2705ZM88.1482 49.0112H93.6673C98.7215 49.0112 101.249 46.7773 101.249 42.3094C101.249 40.5708 100.713 39.0141 99.6413 37.6394C98.5699 36.2647 96.3865 35.5773 93.0912 35.5773H88.1482V49.0112ZM121.189 13.1066H128.861L139.96 54.5H133.016L130.408 44.1289H118.308L115.761 54.5H109.211L121.189 13.1066ZM129.043 38.7311L124.343 19.7781L119.673 38.7311H129.043ZM162.266 40.5809L168.573 41.4603C167.279 50.6589 162.761 55.2581 155.018 55.2581C149.984 55.2581 146.234 53.3274 143.768 49.4661C141.301 45.6047 140.068 40.4394 140.068 33.9701C140.068 26.9954 141.372 21.6481 143.98 17.9282C146.588 14.2084 150.348 12.3485 155.261 12.3485C162.862 12.3485 167.32 17.0589 168.634 26.4799L162.266 27.4199C161.578 21.1528 159.253 18.0192 155.291 18.0192C149.994 18.0192 147.346 23.4676 147.346 34.3643C147.346 44.513 149.994 49.5874 155.291 49.5874C157.414 49.5874 158.991 48.8191 160.022 47.2827C161.073 45.726 161.821 43.4921 162.266 40.5809ZM172.411 13.1066H179.265V32.8481L191.758 13.1066H199.006L188.332 28.2993L200.826 54.5H193.396L184.147 33.9701L179.265 40.9145V54.5H172.411V13.1066Z" fill="#797979"/>
</g>
</svg>
