<svg width="20" height="20" viewBox="0 0 20 20" fill="none" xmlns="http://www.w3.org/2000/svg">
<path d="M6.3605 9.93417H5.69044H6.3605ZM13.5078 9.93417H14.1779H13.5078ZM9.93417 13.5078V14.1779V13.5078ZM11.783 18.6768L11.921 19.3325L11.783 18.6768ZM8.08533 18.6768L7.94735 19.3325L8.08533 18.6768ZM1.65989 6.55812L1.03957 6.30476H1.03957L1.65989 6.55812ZM1.19153 11.783L0.535829 11.921L1.19153 11.783ZM8.08533 1.19153L7.94735 0.535829L8.08533 1.19153ZM11.783 1.19153L11.921 0.53583L11.783 1.19153ZM18.1365 6.59035L18.331 7.23157L18.1365 6.59035ZM1.73079 6.59003L1.92528 5.94882L1.73079 6.59003ZM18.2094 6.56056L17.5891 6.81374C17.9816 7.77566 18.1983 8.82878 18.1983 9.93417H18.8683H19.5384C19.5384 8.65219 19.2869 7.4273 18.8298 6.30738L18.2094 6.56056ZM18.8683 9.93417H18.1983C18.1983 10.5214 18.1371 11.0936 18.0211 11.645L18.6768 11.783L19.3325 11.921C19.4675 11.2794 19.5384 10.6147 19.5384 9.93417H18.8683ZM18.6768 11.783L18.0211 11.645C17.3497 14.8356 14.8356 17.3497 11.645 18.0211L11.783 18.6768L11.921 19.3325C15.6314 18.5517 18.5517 15.6314 19.3325 11.921L18.6768 11.783ZM11.783 18.6768L11.645 18.0211C11.0936 18.1371 10.5214 18.1983 9.93417 18.1983V18.8683V19.5384C10.6147 19.5384 11.2794 19.4675 11.921 19.3325L11.783 18.6768ZM9.93417 18.8683V18.1983C9.34694 18.1983 8.77473 18.1371 8.2233 18.0211L8.08533 18.6768L7.94735 19.3325C8.58898 19.4675 9.25366 19.5384 9.93417 19.5384V18.8683ZM1 9.93417H1.67006C1.67006 8.82791 1.88707 7.77402 2.2802 6.81148L1.65989 6.55812L1.03957 6.30476C0.581863 7.42539 0.329938 8.65119 0.329938 9.93417H1ZM8.08533 18.6768L8.2233 18.0211C5.03272 17.3497 2.5186 14.8356 1.84724 11.645L1.19153 11.783L0.535829 11.921C1.31659 15.6314 4.23689 18.5517 7.94735 19.3325L8.08533 18.6768ZM1.19153 11.783L1.84724 11.645C1.7312 11.0936 1.67006 10.5214 1.67006 9.93417H1H0.329938C0.329938 10.6147 0.400818 11.2794 0.535829 11.921L1.19153 11.783ZM1.65989 6.55812L2.2802 6.81148C3.30344 4.30622 5.52146 2.41576 8.2233 1.84724L8.08533 1.19153L7.94735 0.535829C4.8036 1.19734 2.22832 3.39426 1.03957 6.30476L1.65989 6.55812ZM8.08533 1.19153L8.2233 1.84724C8.77473 1.7312 9.34694 1.67006 9.93417 1.67006V1V0.329938C9.25366 0.329938 8.58898 0.400818 7.94735 0.535829L8.08533 1.19153ZM9.93417 1V1.67006C10.5214 1.67006 11.0936 1.7312 11.645 1.84724L11.783 1.19153L11.921 0.53583C11.2794 0.400818 10.6147 0.329938 9.93417 0.329938V1ZM11.783 1.19153L11.645 1.84724C14.3477 2.41593 16.5662 4.30736 17.5891 6.81374L18.2094 6.56056L18.8298 6.30738C17.6416 3.39559 15.0657 1.19754 11.921 0.53583L11.783 1.19153ZM11.783 1.19153L11.1447 1.39522C11.3912 2.16781 12.3037 5.13924 12.6777 7.86935L13.3416 7.7784L14.0054 7.68746C13.6148 4.83586 12.6716 1.77198 12.4214 0.987849L11.783 1.19153ZM13.3416 7.7784L12.6777 7.86935C12.7779 8.60101 12.8378 9.30368 12.8378 9.93417H13.5078H14.1779C14.1779 9.22441 14.111 8.45786 14.0054 7.68746L13.3416 7.7784ZM18.1365 6.59035L17.942 5.94914C16.9615 6.24653 15.1199 6.76883 13.22 7.11947L13.3416 7.7784L13.4632 8.43734C15.4337 8.07366 17.3293 7.53539 18.331 7.23157L18.1365 6.59035ZM13.3416 7.7784L13.22 7.11947C12.0674 7.33218 10.9166 7.47727 9.93417 7.47727V8.14733V8.8174C11.0324 8.8174 12.273 8.65699 13.4632 8.43734L13.3416 7.7784ZM13.5078 9.93417H12.8378C12.8378 10.8682 12.7066 11.9552 12.5105 13.0521L13.1701 13.1701L13.8297 13.288C14.0326 12.1528 14.1779 10.9793 14.1779 9.93417H13.5078ZM13.1701 13.1701L12.5105 13.0521C12.0806 15.4565 11.3583 17.8034 11.1447 18.4731L11.783 18.6768L12.4214 18.8805C12.6407 18.1932 13.3841 15.7799 13.8297 13.288L13.1701 13.1701ZM18.6768 11.783L18.4731 11.1447C17.8034 11.3583 15.4565 12.0806 13.0521 12.5105L13.1701 13.1701L13.288 13.8297C15.7799 13.3841 18.1932 12.6407 18.8805 12.4214L18.6768 11.783ZM13.1701 13.1701L13.0521 12.5105C11.9552 12.7066 10.8682 12.8378 9.93417 12.8378V13.5078V14.1779C10.9793 14.1779 12.1528 14.0326 13.288 13.8297L13.1701 13.1701ZM9.93417 13.5078V12.8378C9.00011 12.8378 7.91314 12.7066 6.8162 12.5105L6.69827 13.1701L6.58033 13.8297C7.71555 14.0326 8.88902 14.1779 9.93417 14.1779V13.5078ZM6.69827 13.1701L6.8162 12.5105C4.41184 12.0806 2.06493 11.3583 1.39522 11.1447L1.19153 11.783L0.987848 12.4214C1.67514 12.6407 4.0884 13.3841 6.58033 13.8297L6.69827 13.1701ZM6.3605 9.93417H5.69044C5.69044 10.9793 5.83569 12.1528 6.03867 13.288L6.69827 13.1701L7.35787 13.0521C7.16174 11.9552 7.03056 10.8682 7.03056 9.93417H6.3605ZM6.69827 13.1701L6.03867 13.288C6.48422 15.7799 7.22767 18.1932 7.44697 18.8805L8.08533 18.6768L8.72368 18.4731C8.50999 17.8034 7.78777 15.4565 7.35787 13.0521L6.69827 13.1701ZM8.08533 1.19153L7.44697 0.987848C7.19677 1.77198 6.25356 4.83586 5.86291 7.68746L6.52677 7.7784L7.19063 7.86935C7.56464 5.13924 8.47716 2.1678 8.72368 1.39522L8.08533 1.19153ZM6.52677 7.7784L5.86291 7.68746C5.75736 8.45786 5.69044 9.22441 5.69044 9.93417H6.3605H7.03056C7.03056 9.30368 7.0904 8.60101 7.19063 7.86935L6.52677 7.7784ZM9.93417 8.14733V7.47727C8.95172 7.47727 7.8009 7.33218 6.64838 7.11947L6.52677 7.7784L6.40516 8.43734C7.5953 8.65699 8.83596 8.8174 9.93417 8.8174V8.14733ZM6.52677 7.7784L6.64838 7.11947C4.74779 6.7687 2.90553 6.24616 1.92528 5.94882L1.73079 6.59003L1.53629 7.23125C2.5377 7.535 4.43394 8.07354 6.40516 8.43734L6.52677 7.7784ZM18.2094 6.56056L17.9007 5.96589C17.9125 5.95973 17.9267 5.95378 17.942 5.94914L18.1365 6.59035L18.331 7.23157C18.3971 7.21152 18.4593 7.18585 18.5182 7.15523L18.2094 6.56056ZM1.65989 6.55812L1.3103 7.12976C1.37973 7.17222 1.4551 7.20662 1.53629 7.23125L1.73079 6.59003L1.92528 5.94882C1.95625 5.95821 1.98481 5.97139 2.00947 5.98648L1.65989 6.55812Z" fill="#939393"/>
</svg>

