<svg width="58" height="44" viewBox="0 0 58 44" fill="none" xmlns="http://www.w3.org/2000/svg">
<path d="M40.5564 11.4306C41.0623 13.7861 41.0623 16.9424 41.0623 21.892C41.0623 26.8402 41.0623 29.9961 40.5569 32.3514M40.5564 11.4306C40.3642 10.5356 40.099 9.75615 39.733 9.03786C38.5638 6.7431 36.6981 4.87739 34.4033 3.70815C31.7945 2.37891 28.3794 2.37891 21.5492 2.37891C14.719 2.37891 11.3039 2.37891 8.69509 3.70815C6.40032 4.87739 4.53462 6.7431 3.36538 9.03786C2.03613 11.6467 2.03613 15.0618 2.03613 21.892C2.03613 28.7222 2.03613 32.1373 3.36538 34.7461C4.53462 37.0409 6.40032 38.9066 8.69509 40.0758C11.3039 41.405 14.719 41.405 21.5492 41.405C28.3794 41.405 31.7945 41.405 34.4033 40.0758C36.6981 38.9066 38.5638 37.0409 39.733 34.7461C40.0993 34.0273 40.3646 33.2473 40.5569 32.3514M40.5564 11.4306L41.0623 11.2129L42.034 10.7883C48.1997 8.09408 51.2826 6.74698 53.4899 8.19126C55.6971 9.63553 55.6971 12.9999 55.6971 19.7286V24.0554C55.6971 30.7841 55.6971 34.1484 53.4899 35.5927C51.2826 37.037 48.1998 35.6899 42.034 32.9957L41.0623 32.5711L40.5569 32.3514M14.2318 21.892C14.2318 17.5363 14.2318 15.3584 15.0899 14.0994C15.8384 13.0013 16.9889 12.2932 18.2553 12.1513C19.7072 11.9887 21.4766 13.0776 25.0153 15.2555C28.5541 17.4333 30.3235 18.5223 30.9173 19.9439C31.4352 21.1839 31.4352 22.6 30.9173 23.84C30.3235 25.2617 28.5541 26.3506 25.0153 28.5285C21.4766 30.7063 19.7072 31.7953 18.2553 31.6326C16.9889 31.4907 15.8384 30.7827 15.0899 29.6846C14.2318 28.4256 14.2318 26.2477 14.2318 21.892Z" stroke="url(#paint0_linear_1046_4067)" stroke-width="3.6587"/>
<defs>
<linearGradient id="paint0_linear_1046_4067" x1="-13.4532" y1="41.405" x2="61.7202" y2="5.55975" gradientUnits="userSpaceOnUse">
<stop stop-color="#175EE8"/>
<stop offset="1" stop-color="#7FFEFF"/>
</linearGradient>
</defs>
</svg>
