<svg width="39" height="39" viewBox="0 0 39 39" fill="none" xmlns="http://www.w3.org/2000/svg">
<path d="M33.4625 6.57646C33.2975 6.43397 33.0967 6.33921 32.8819 6.30238C32.667 6.26555 32.4461 6.28805 32.2431 6.36745L5.26362 16.9257C4.88126 17.0744 4.55755 17.3433 4.34122 17.6919C4.12489 18.0404 4.02765 18.4499 4.06415 18.8585C4.10064 19.2671 4.26889 19.6528 4.54356 19.9575C4.81823 20.2623 5.18447 20.4695 5.58712 20.5481L12.5776 21.9206V29.7152C12.5762 30.1398 12.7024 30.555 12.9398 30.907C13.1771 31.259 13.5148 31.5316 13.9089 31.6895C14.3024 31.8502 14.7351 31.8887 15.1509 31.8002C15.5666 31.7116 15.9461 31.5 16.2399 31.1929L19.6107 27.697L24.9584 32.3777C25.3442 32.72 25.8418 32.9094 26.3575 32.9103C26.5835 32.9101 26.8081 32.8746 27.0232 32.8051C27.3746 32.6936 27.6906 32.492 27.9398 32.2203C28.1891 31.9487 28.3628 31.6165 28.4436 31.2568L33.8473 7.74931C33.8956 7.5373 33.8853 7.31614 33.8175 7.10953C33.7498 6.90291 33.627 6.71864 33.4625 6.57646ZM25.3232 11.369L13.3963 19.9104L6.79325 18.6151L25.3232 11.369ZM14.7076 29.7152V23.3944L18.0078 26.2885L14.7076 29.7152ZM26.3602 30.7802L15.3533 21.1285L31.1954 9.77416L26.3602 30.7802Z" fill="#D5D5D5"/>
</svg>

