<svg width="39" height="39" viewBox="0 0 39 39" fill="none" xmlns="http://www.w3.org/2000/svg">
<path fill-rule="evenodd" clip-rule="evenodd" d="M31.4954 7.61437C28.2812 4.39604 24.0063 2.62277 19.4515 2.62109C10.0659 2.62109 2.42742 10.2588 2.42414 19.6468C2.42253 22.648 3.20711 25.5773 4.69709 28.1589L2.28125 36.9828L11.3077 34.6151C13.7945 35.9721 16.5948 36.6865 19.4442 36.6873H19.4515C28.8354 36.6873 36.4748 29.0488 36.478 19.6607C36.4796 15.1109 34.7105 10.8336 31.4954 7.61518V7.61437ZM19.4515 33.8118H19.4458C16.9066 33.8111 14.4158 33.1284 12.2425 31.8394L11.7257 31.5325L6.36912 32.9374L7.79868 27.7147L7.46227 27.1792C6.04579 24.9259 5.29714 22.3214 5.29875 19.6477C5.30204 11.8451 11.6506 5.49651 19.4573 5.49651C23.2372 5.49819 26.7904 6.97187 29.4625 9.64727C32.1347 12.3219 33.605 15.8783 33.6034 19.6591C33.6001 27.4625 27.2517 33.8111 19.4515 33.8111V33.8118ZM27.214 23.213C26.7887 22.9999 24.6971 21.9712 24.3068 21.8291C23.9165 21.687 23.6333 21.6161 23.3499 22.0422C23.0666 22.4685 22.2511 23.4269 22.0028 23.7102C21.7546 23.9943 21.5065 24.0295 21.0811 23.8163C20.6558 23.6032 19.2849 23.1542 17.6594 21.705C16.3948 20.5767 15.5408 19.184 15.2927 18.7577C15.0445 18.3316 15.2665 18.1013 15.4788 17.8899C15.6698 17.6989 15.9041 17.3927 16.1172 17.1445C16.3303 16.8963 16.4005 16.7184 16.5425 16.435C16.6847 16.1508 16.6136 15.9028 16.5075 15.6896C16.4013 15.4766 15.5506 13.3824 15.1955 12.5309C14.8501 11.7014 14.4991 11.8141 14.2387 11.8002C13.9904 11.7879 13.7072 11.7855 13.4231 11.7855C13.139 11.7855 12.6784 11.8916 12.2882 12.3178C11.8979 12.7439 10.799 13.7735 10.799 15.8667C10.799 17.9601 12.3233 19.9841 12.5364 20.2682C12.7494 20.5523 15.5367 24.8491 19.8042 26.6927C20.819 27.1311 21.6117 27.3931 22.2298 27.589C23.2488 27.9132 24.1762 27.8675 24.9092 27.758C25.7266 27.6356 27.4264 26.7285 27.7807 25.7349C28.1349 24.7413 28.1349 23.889 28.0289 23.7118C27.9228 23.5347 27.6387 23.4277 27.2133 23.2146L27.214 23.213Z" fill="#D5D5D5"/>
</svg>

