<svg width="54" height="61" viewBox="0 0 54 61" fill="none" xmlns="http://www.w3.org/2000/svg">
<path d="M26.4687 60.5581C20.9746 58.8088 19.1285 52.2835 17.6239 47.3313C17.4908 47.2318 14.8822 47.9579 14.4251 48.0413C8.87994 49.0658 -1.16557 49.4625 0.833853 40.8853C0.903773 40.5854 1.25202 39.1521 1.5828 39.2287L3.24741 40.3797C0.675191 47.0893 8.33672 46.8378 12.6811 46.1628C13.2042 46.0822 16.8911 45.3184 17.0215 45.1369C16.9919 43.83 16.6114 42.4746 16.4272 41.1515C16.243 39.8284 16.1018 38.3642 15.9781 36.9712C11.6861 34.0278 7.41836 30.5319 4.20746 26.408C-3.77678 16.1527 1.98752 10.8294 13.617 12.8396C14.9629 13.0722 16.2981 13.5025 17.6225 13.6813C18.7049 9.49425 21.69 0.915697 26.8048 0.457188C29.2547 0.236674 31.2595 1.90263 32.635 3.74339L30.7068 4.75991C29.9767 3.67616 28.5743 2.56552 27.2068 2.59241C23.7364 2.6583 21.0835 9.50501 20.2633 12.2937C20.1437 12.7011 19.5843 14.2259 19.8949 14.4773C20.1571 14.6898 22.5774 15.4199 23.1488 15.6498C24.5593 16.2173 25.9308 16.8761 27.3413 17.4395C32.0555 15.2908 37.2026 13.2524 42.3807 12.5492C52.9183 11.1185 57.4577 16.3988 50.9875 25.5864C49.7262 27.3774 48.1329 28.8847 46.7304 30.5574C50.2936 33.9673 57.5558 42.6655 51.9408 47.0664C51.3115 47.5585 50.5706 47.9162 49.8069 48.1529C49.4923 48.251 48.0616 48.6302 47.8586 48.6167C47.5372 48.5939 47.794 48.3021 47.794 48.286V46.3403C51.9798 45.9558 52.5862 43.0716 50.9942 39.5851C49.6993 36.7506 47.2723 34.2322 45.1115 32.0445L44.9798 32.0472C42.9467 33.8423 40.7577 35.4383 38.6077 37.0854C38.2783 40.0543 37.9139 43.0232 37.2672 45.941C36.2735 50.4225 33.8223 58.5628 29.0557 60.265L28.0781 60.5622H26.4687V60.5581ZM29.9566 18.8325C35.4156 21.5365 40.4243 25.0607 45.0457 29.0071C48.4394 26.0597 56.7813 15.9698 47.825 14.5782C45.8027 14.2635 43.7387 14.5204 41.7339 14.8525C37.7068 15.5194 33.786 16.9958 30.0386 18.5582L29.9579 18.8325H29.9566ZM15.7374 34.1287C15.6406 29.3365 15.7845 24.6035 16.4285 19.8598C16.5092 19.2614 17.1896 16.107 17.0228 15.8744C10.9977 13.9234 -1.854 12.5586 4.36477 22.8999C5.0801 24.0899 5.99174 25.222 6.89128 26.2762C9.41913 29.2411 12.5601 31.8899 15.7387 34.1287H15.7374ZM19.2266 44.4606C28.058 41.4917 36.3609 36.6834 43.3568 30.5561C43.3878 30.3759 42.3081 29.4898 42.0902 29.3042C35.5447 23.7336 27.3843 19.4201 19.3033 16.5507C17.2918 25.6254 17.4303 35.3536 19.2266 44.4606ZM36.2574 38.5564C31.1411 41.9126 25.596 44.5668 19.8196 46.5998C19.6031 46.9118 20.6318 49.8739 20.8321 50.432C21.7021 52.8536 23.9771 57.9819 26.8371 58.3759C30.208 58.8397 32.5731 53.6281 33.5426 51.0653C35.0378 47.1094 35.8083 42.7529 36.2574 38.5551V38.5564Z" fill="url(#paint0_linear_2006_83)"/>
<path d="M33.8128 5.72226C38.1343 5.12795 38.7798 11.5726 34.8401 12.1145C30.4392 12.7196 29.7239 6.28565 33.8128 5.72226Z" fill="url(#paint1_linear_2006_83)"/>
<path d="M41.7239 44.2228C47.5312 43.2358 46.356 52.441 41.1834 50.334C38.279 49.1507 38.8841 44.7055 41.7239 44.2228Z" fill="url(#paint2_linear_2006_83)"/>
<path d="M2.77559 32.968C5.57505 30.1309 10.0647 33.967 7.6901 37.1456C4.94578 40.8191 -0.357329 36.1426 2.77559 32.968Z" fill="url(#paint3_linear_2006_83)"/>
<path d="M26.7366 31.5806H23.5176V35.1358C23.5176 35.8592 21.6742 36.3352 21.3999 35.1075C21.5222 32.7182 21.135 29.9712 21.373 27.6248C21.533 26.0395 22.5871 25.2503 24.1146 25.136C26.2929 24.9733 28.654 25.058 28.8866 27.7526C29.0883 30.0895 28.7508 32.7383 28.853 35.1075C28.5787 36.3352 26.7352 35.8605 26.7352 35.1358V31.5806H26.7366ZM26.7366 29.4333C26.6599 28.9452 26.9248 27.7055 26.5483 27.4084C26.3184 27.2268 24.0689 27.2147 23.7852 27.3532C23.2944 27.5926 23.5983 28.9304 23.5176 29.4333H26.7366Z" fill="url(#paint4_linear_2006_83)"/>
<path d="M31.7958 25.1652C32.5421 25.0025 33.0893 25.3965 33.1767 26.1414C33.4967 28.8642 32.9387 32.2015 33.166 34.9916C32.971 36.238 31.0966 36.1547 31.0254 34.8679C31.2674 32.1101 30.7121 28.836 31.0254 26.1414C31.0791 25.6829 31.3158 25.2688 31.7958 25.1652Z" fill="url(#paint5_linear_2006_83)"/>
<defs>
<linearGradient id="paint0_linear_2006_83" x1="0.463937" y1="-31.9056" x2="145.415" y2="-15.5714" gradientUnits="userSpaceOnUse">
<stop stop-color="#F0F0F0"/>
<stop offset="1" stop-color="#757575"/>
</linearGradient>
<linearGradient id="paint1_linear_2006_83" x1="31.1042" y1="2.20263" x2="48.2556" y2="4.33326" gradientUnits="userSpaceOnUse">
<stop stop-color="#F0F0F0"/>
<stop offset="1" stop-color="#757575"/>
</linearGradient>
<linearGradient id="paint2_linear_2006_83" x1="39.2731" y1="40.6518" x2="56.3512" y2="42.7543" gradientUnits="userSpaceOnUse">
<stop stop-color="#F0F0F0"/>
<stop offset="1" stop-color="#757575"/>
</linearGradient>
<linearGradient id="paint3_linear_2006_83" x1="1.81006" y1="28.4724" x2="19.4823" y2="30.7211" gradientUnits="userSpaceOnUse">
<stop stop-color="#F0F0F0"/>
<stop offset="1" stop-color="#757575"/>
</linearGradient>
<linearGradient id="paint4_linear_2006_83" x1="21.2877" y1="19.2885" x2="42.1341" y2="21.1648" gradientUnits="userSpaceOnUse">
<stop stop-color="#F0F0F0"/>
<stop offset="1" stop-color="#757575"/>
</linearGradient>
<linearGradient id="paint5_linear_2006_83" x1="30.9248" y1="19.3448" x2="37.3733" y2="19.5235" gradientUnits="userSpaceOnUse">
<stop stop-color="#F0F0F0"/>
<stop offset="1" stop-color="#757575"/>
</linearGradient>
</defs>
</svg>

