<svg width="46" height="61" viewBox="0 0 46 61" fill="none" xmlns="http://www.w3.org/2000/svg">
<g opacity="0.75">
<path d="M11.0473 56.0019C10.9739 56.7589 10.0961 59.9955 9.36496 60.2201C7.15298 60.0718 8.8224 58.116 9.11023 56.9402C9.39806 55.7644 9.54054 50.2208 9.29157 49.1299C9.21673 48.8032 8.25969 47.5857 8.00208 47.1122C6.77017 44.847 5.96712 42.2652 5.71671 39.6905C2.2541 39.6732 1.33592 35.245 0.879709 32.5206C0.46955 30.0698 -0.32918 25.1608 3.27878 25.0169C2.85135 21.5442 2.58511 18.4097 3.35074 14.9529C5.12522 6.93536 11.8547 1.60329 19.8938 0.721092C23.3478 0.342594 29.0339 0.816076 31.6891 3.30293C32.0705 3.65984 32.4432 4.43123 32.685 4.60825C33.1326 4.9335 34.9445 5.36093 35.772 5.83441C39.3181 7.86362 41.6107 12.0587 42.4727 15.9574C43.1822 19.1682 43.1246 22.189 42.9735 25.4486C46.1685 25.0701 45.8792 28.9443 45.6878 31.1088C45.4604 33.6864 44.558 39.892 41.1098 39.6876C40.6032 43.4064 39.485 46.9496 37.2515 49.9905C37.4429 52.2514 37.0111 55.5068 37.6112 57.6238C37.8199 58.3578 38.7842 59.489 38.1221 60.1035C37.096 61.0576 36.4499 59.4472 36.175 58.6283C35.9721 58.0268 35.6396 56.5876 35.6396 56.0005V52.191L32.3195 54.6951C28.5431 57.0294 23.9911 57.8368 19.6448 56.7502C16.2427 55.8997 13.5529 53.4834 11.0459 51.185C10.9365 52.7365 11.1927 54.4735 11.0459 56.0019H11.0473ZM37.3666 13.803C37.4314 13.554 37.263 13.5152 37.1522 13.3713C36.3549 12.3322 33.7831 10.2569 32.639 9.54455C32.4735 9.44093 32.1079 9.08977 31.9698 9.34307L31.7539 13.1583L31.8949 13.4519L37.3666 13.803ZM30.1751 10.3534C29.2066 10.7491 28.3632 11.4126 27.3961 11.817C24.1537 13.1741 20.9905 12.3926 17.6084 12.8157C10.5825 13.6922 7.32424 17.9132 6.87667 24.8039C6.81046 25.8329 7.07671 29.7747 6.80471 30.3389C6.55573 30.8527 5.91099 30.7994 5.57711 30.4137C4.92517 29.661 5.36555 28.1744 4.29194 27.2418C3.21834 26.3093 2.45846 26.859 2.2872 28.1211C2.04542 29.8971 3.06147 36.1243 4.42435 37.3173C5.67785 38.4154 6.65648 36.7647 7.09398 37.5231C7.41059 40.5857 8.05821 43.5575 9.58372 46.2487C11.2531 49.1918 15.7893 53.7151 19.0231 54.7844C20.4652 55.2607 21.9259 55.2823 23.4154 55.4967V48.7399H20.8983C19.8981 48.7399 19.3426 47.3526 20.2536 46.9467C20.8422 46.6848 22.6297 47.2346 23.4154 47.0158V45.2888C23.2039 45.0773 18.3957 45.6069 17.4501 45.4299C16.6255 45.2759 16.46 43.8612 17.4545 43.7216C18.092 43.6324 19.1958 43.5892 19.8852 43.559C20.8134 43.5172 22.2296 43.7187 23.0556 43.5647C23.2197 43.5345 23.3463 43.5143 23.3953 43.3287L23.2082 39.8172C22.2943 39.4343 19.2879 39.4084 19.5542 37.9204C19.8032 36.5273 21.6338 37.7074 22.4972 37.7951C22.8513 37.8311 23.2053 37.8139 23.5593 37.8139C23.5622 34.4304 23.3233 31.0657 23.4082 27.6707C23.4413 26.397 23.7378 25.0241 23.4931 23.7058L29.8657 14.2851C29.9478 14.0966 30.1751 13.2979 30.1751 13.1554V10.3519V10.3534ZM37.9408 15.8178L32.19 15.0982L37.5839 22.4279L37.9408 15.8164V15.8178ZM30.8918 16.2481C30.6702 16.1934 30.6616 16.2841 30.5436 16.4007C29.8542 17.0828 28.8036 18.7767 28.1877 19.6532C27.9229 20.0302 25.5425 23.4151 25.7166 23.5792C29.2685 22.8366 33.052 22.2523 36.3577 24.1548L30.8918 16.2481ZM41.2206 22.258C41.4926 21.7961 40.2032 17.9391 39.9197 17.2196C39.7973 16.9073 39.6908 16.4093 39.3828 16.2481L39.095 23.5806L41.2206 22.258ZM41.3933 24.0124C41.2681 23.8742 39.8175 24.8715 39.675 25.1061C39.6146 25.3925 40.9141 26.3855 41.1789 26.6L41.3933 24.0138V24.0124ZM25.2863 25.4486V30.0496C27.7386 27.8535 29.7463 25.3853 33.3801 26.9195C34.1602 27.249 34.7286 27.8765 35.4237 28.3255L36.9392 25.8113C35.4885 25.0557 33.8378 25.1191 32.2619 24.8744L25.2863 25.4501V25.4486ZM40.5299 33.6432L40.9587 28.8321L39.0936 27.0303C39.4116 29.0393 39.6649 31.3564 40.2233 33.3107C40.2924 33.5525 40.1154 33.7123 40.5299 33.6432ZM41.3948 37.8139C42.1043 37.8642 42.4857 36.8726 42.7145 36.3301C43.565 34.3095 44.2342 30.2655 43.9867 28.1053C43.9047 27.3944 43.565 27.0691 42.8325 27.1727L41.3948 37.8124V37.8139ZM32.19 37.0943L39.6074 36.3805L37.7264 27.4649L32.19 37.0943ZM29.8887 28.3269C29.6412 28.2622 29.6009 28.4263 29.4556 28.5399C29.09 28.8278 26.5542 31.3362 26.5902 31.5406L30.8228 36.2308L34.6005 29.8337C34.4278 29.6553 33.0851 28.1298 32.9095 28.3269C33.3845 31.6327 29.2325 31.447 29.8887 28.3269ZM25.4302 32.925V37.4541C25.5382 37.6009 25.5555 37.6095 25.7238 37.6109C26.9155 37.6138 28.1157 37.3073 29.3131 37.3807C28.1776 35.7803 26.9025 34.2188 25.4302 32.925ZM34.7747 44.7146L39.0231 38.2456L38.8791 37.9635L32.046 38.5349C31.8071 38.7608 34.212 43.9173 34.4811 44.6283L34.7761 44.716L34.7747 44.7146ZM25.1424 39.1077V42.127C25.3928 42.1903 25.4302 42.0234 25.5742 41.9126C25.9311 41.6391 26.5125 41.0923 26.8694 40.7641C27.4638 40.2187 28.1416 39.5639 28.5949 38.8947L25.1424 39.1091V39.1077ZM30.4615 39.6833C30.1003 39.4113 26.914 42.9761 26.4391 43.3488C26.5715 43.5748 26.7471 43.5201 26.937 43.5676C28.8684 44.0454 30.7652 44.2728 32.6203 45.1463L30.4615 39.6833ZM39.2346 40.5454L35.3777 46.1178C35.2064 46.4416 36.316 48.0203 36.4326 48.0189C37.925 45.7997 38.8662 43.1992 39.2361 40.5454H39.2346ZM25.1424 45.1463V51.9032C25.4576 51.9132 25.7138 51.6657 25.9656 51.5045C27.7113 50.3849 30.155 48.668 31.7453 47.3626C31.9194 47.2202 32.1856 47.0518 32.19 46.8014C29.9549 45.9005 27.5544 45.3392 25.141 45.1463H25.1424ZM34.4883 48.1671C34.2422 47.9959 33.8594 48.7485 33.7471 48.9328C33.0678 50.0495 32.4979 51.4426 31.9021 52.6228C32.1986 52.7019 32.2936 52.5235 32.4821 52.4126C32.8764 52.1824 34.9646 50.1935 35.1057 49.8481C35.3331 49.2882 34.5991 48.7155 34.4868 48.1671H34.4883ZM26.1484 53.197L29.8887 54L32.4749 48.5989L26.1484 53.1984V53.197ZM25.1439 55.4982L27.1529 54.9945C27.1472 54.7599 25.4562 54.5009 25.1424 54.4908V55.4967L25.1439 55.4982Z" fill="url(#paint0_linear_2006_380)"/>
<path d="M14.0381 22.7617C15.5334 22.6063 18.3483 22.8826 19.7544 23.4323C21.0568 23.9418 20.6021 25.3939 19.6134 25.4313C18.7815 25.463 17.1668 24.9334 16.1522 24.8772C14.9275 24.8096 13.3286 24.8672 12.1988 25.3795C11.4879 25.7033 10.3999 27.2403 9.86166 25.9868C9.6098 25.4011 9.93074 25.0557 10.2689 24.5995C11.1195 23.4554 12.6594 22.9027 14.0381 22.7602V22.7617Z" fill="url(#paint1_linear_2006_380)"/>
<path d="M17.0887 28.7553C17.5751 31.6609 13.5009 31.3271 13.924 28.6114C12.9698 28.2199 12.3308 30.334 11.5451 29.4806C11.1551 29.0575 11.463 28.6416 11.7322 28.217C13.1598 25.9633 16.798 26.1605 18.7178 27.6299C19.3107 28.0832 20.1901 29.2432 18.9941 29.4504C18.1421 29.5986 17.9723 28.5164 17.0887 28.7553Z" fill="url(#paint2_linear_2006_380)"/>
</g>
<defs>
<linearGradient id="paint0_linear_2006_380" x1="0.469691" y1="-31.5582" x2="123.611" y2="-19.7448" gradientUnits="userSpaceOnUse">
<stop stop-color="#F0F0F0"/>
<stop offset="1" stop-color="#757575"/>
</linearGradient>
<linearGradient id="paint1_linear_2006_380" x1="9.76264" y1="20.7001" x2="35.8969" y2="30.2141" gradientUnits="userSpaceOnUse">
<stop stop-color="#F0F0F0"/>
<stop offset="1" stop-color="#757575"/>
</linearGradient>
<linearGradient id="paint2_linear_2006_380" x1="11.3536" y1="24.2256" x2="32.6658" y2="29.4255" gradientUnits="userSpaceOnUse">
<stop stop-color="#F0F0F0"/>
<stop offset="1" stop-color="#757575"/>
</linearGradient>
</defs>
</svg>

