<svg width="52" height="58" viewBox="0 0 52 58" fill="none" xmlns="http://www.w3.org/2000/svg">
<path d="M34.2725 8.62667C34.2725 7.07963 33.8109 5.56733 32.9462 4.28101C32.0814 2.99469 30.8523 1.99213 29.4143 1.4001C27.9762 0.808077 26.3939 0.653175 24.8672 0.954988C23.3406 1.2568 21.9383 2.00177 20.8377 3.0957C19.7371 4.18962 18.9875 5.58336 18.6839 7.10068C18.3802 8.618 18.5361 10.1907 19.1317 11.62C19.7274 13.0493 20.7361 14.2709 22.0303 15.1304C23.3245 15.9899 24.8461 16.4487 26.4026 16.4487C28.4898 16.4487 30.4916 15.6246 31.9675 14.1577C33.4434 12.6907 34.2725 10.7012 34.2725 8.62667ZM26.4026 12.5377C25.6243 12.5377 24.8635 12.3083 24.2164 11.8785C23.5693 11.4488 23.065 10.838 22.7672 10.1233C22.4693 9.40871 22.3914 8.62234 22.5432 7.86368C22.6951 7.10502 23.0698 6.40815 23.6202 5.86119C24.1705 5.31422 24.8716 4.94174 25.6349 4.79083C26.3982 4.63993 27.1894 4.71738 27.9084 5.01339C28.6275 5.3094 29.242 5.81068 29.6744 6.45384C30.1068 7.097 30.3375 7.85315 30.3375 8.62667C30.3375 9.66393 29.923 10.6587 29.185 11.3922C28.4471 12.1256 27.4462 12.5377 26.4026 12.5377ZM51.8569 20.2888C51.6329 19.1936 51.0311 18.2105 50.1555 17.5094C49.2799 16.8083 48.1854 16.4331 47.0611 16.4487H5.74405C4.62279 16.4486 3.53517 16.8294 2.6614 17.5278C1.78764 18.2262 1.18018 19.2003 0.939679 20.2888C0.699178 21.3773 0.840074 22.5148 1.33902 23.5128C1.83796 24.5108 2.66501 25.3095 3.68311 25.7764H3.71508L16.1963 31.2395L11.0317 50.7261C10.4913 51.9092 10.4459 53.2572 10.9055 54.4736C11.3651 55.69 12.292 56.6751 13.4824 57.2122C14.6728 57.7493 16.0291 57.7944 17.2529 57.3376C18.4767 56.8808 19.4679 55.9595 20.0083 54.7764L26.4026 43.8085L32.7969 54.7764C33.3651 55.9091 34.3532 56.7786 35.5533 57.202C36.7534 57.6254 38.0719 57.5697 39.2315 57.0466C40.3911 56.5236 41.3014 55.5739 41.771 54.3973C42.2405 53.2208 42.2326 51.9091 41.7489 50.7383L36.5843 31.2518L49.0655 25.7886H49.0975C50.1319 25.3373 50.9745 24.5399 51.4787 23.535C51.9828 22.5302 52.1166 21.3815 51.8569 20.2888ZM47.4792 22.2198L33.4781 28.3454C33.0495 28.5331 32.7023 28.8667 32.499 29.2861C32.2957 29.7054 32.2496 30.1832 32.369 30.6333L37.9935 51.892C38.0222 52.0058 38.0626 52.1164 38.114 52.222C38.1965 52.3974 38.2248 52.5933 38.1952 52.7847C38.1656 52.9761 38.0795 53.1545 37.9478 53.2972C37.8161 53.4399 37.6447 53.5405 37.4553 53.5862C37.266 53.632 37.0673 53.6208 36.8843 53.5542C36.6398 53.465 36.4407 53.283 36.331 53.0482C36.3061 52.9953 36.2781 52.9439 36.2474 52.8942L28.1045 38.9369C27.9315 38.6405 27.6833 38.3946 27.3846 38.2236C27.0859 38.0526 26.7473 37.9626 26.4026 37.9626C26.0579 37.9626 25.7193 38.0526 25.4206 38.2236C25.1219 38.3946 24.8737 38.6405 24.7007 38.9369L16.5652 52.882C16.5344 52.9317 16.5065 52.9831 16.4816 53.036C16.3718 53.2708 16.1728 53.4528 15.9282 53.542C15.7453 53.6086 15.5465 53.6198 15.3572 53.574C15.1679 53.5282 14.9965 53.4276 14.8648 53.2849C14.7331 53.1422 14.6469 52.9639 14.6173 52.7725C14.5877 52.581 14.616 52.3852 14.6985 52.2098C14.75 52.1042 14.7904 51.9936 14.819 51.8798L20.4362 30.626C20.5556 30.1758 20.5095 29.6981 20.3062 29.2787C20.1029 28.8593 19.7557 28.5258 19.327 28.3381L5.32596 22.2198C5.12498 22.1245 4.96249 21.9642 4.86505 21.7652C4.76761 21.5662 4.74099 21.3402 4.78954 21.1242C4.83809 20.9082 4.95893 20.715 5.13232 20.5761C5.3057 20.4372 5.52137 20.3609 5.74405 20.3596H47.0611C47.2844 20.3592 47.5012 20.4344 47.6759 20.5727C47.8506 20.711 47.9727 20.9042 48.0222 21.1207C48.0717 21.3371 48.0456 21.5638 47.9483 21.7636C47.851 21.9633 47.6881 22.1242 47.4866 22.2198H47.4792Z" fill="#141414"/>
</svg>

