<svg width="55" height="58" viewBox="0 0 55 58" fill="none" xmlns="http://www.w3.org/2000/svg">
<g opacity="0.75">
<path d="M41.3626 36.6351C40.9416 41.9645 35.9801 48.9078 30.5987 49.9869C22.7964 51.5525 16.4689 46.1106 14.2392 39.0137C14.1025 38.5769 13.8073 36.8856 13.6778 36.7017C13.6367 36.6424 12.7027 36.3641 12.3966 36.1415C10.5092 34.7635 9.81841 29.3265 10.0398 27.1391C10.1596 25.9546 10.9799 24.9686 12.2224 24.9698L12.3191 24.8246C11.5509 17.8124 14.4219 11.1643 21.0808 8.32116C25.0878 6.61045 30.9628 6.38905 34.7847 8.68412C35.9873 9.40639 36.02 10.0089 36.7652 10.6937C37.0072 10.9163 37.992 11.2913 38.4191 11.5781C42.4128 14.253 43.158 20.4426 42.835 24.8452C42.8798 25.0981 43.5077 24.9952 43.7763 25.0775C46.2141 25.8312 45.4507 29.6846 45.066 31.5731C44.6462 33.6383 43.919 36.5117 41.3639 36.6339L41.3626 36.6351ZM35.5481 14.2651C33.6172 16.4223 30.5745 17.3732 27.7495 17.6478C25.1532 17.8995 22.4963 17.2752 19.8928 17.5293C19.4125 17.5765 17.6195 18.0326 17.2565 18.2782C16.6939 18.6593 15.7478 21.2786 15.5603 22.0214C15.2929 23.0752 15.1078 24.3613 14.9965 25.4465C14.9312 26.0877 14.982 28.2606 14.8114 28.6453C14.6191 29.0796 14.0323 29.1232 13.7298 28.7651C13.3403 28.3041 13.5701 26.9019 12.7898 26.5644C11.1178 25.8421 11.4045 28.6538 11.4904 29.5539C11.5908 30.6004 12.3349 34.5445 13.304 34.9921C13.875 35.2559 14.5743 34.553 14.8211 34.9268C14.9143 35.0684 14.9675 36.2201 15.028 36.5323C16.4314 43.7466 21.7995 49.4074 29.5485 48.696C33.5821 48.3258 37.3206 44.0829 38.8341 40.5744C39.6096 38.779 39.8999 36.9473 40.3258 35.0551C40.8872 34.38 41.4243 35.2402 42.0002 34.9159C43.1907 34.2457 43.9227 30.3814 44.011 29.0688C44.0703 28.188 44.213 26.3962 42.9064 26.5366C41.3433 26.7047 42.3329 28.9345 41.1618 29.0071C40.5835 29.0434 40.4335 28.5776 40.3851 28.1021C40.1939 26.2414 40.5085 24.6988 40.0838 22.7231C39.3337 19.2327 37.0846 17.3163 35.5469 14.2639L35.5481 14.2651Z" fill="url(#paint0_linear_2006_590)"/>
<path d="M1.4209 44.5176C2.1125 44.4735 2.65376 45.0439 2.75 45.6631L2.80469 46.0889C2.90715 47.1004 2.84693 48.2384 2.78223 49.3564C2.70747 50.6482 2.62722 51.915 2.75781 52.999L2.77637 53.1162C2.89259 53.7022 3.33817 54.2151 3.90625 54.293L4.37305 54.3457C5.48207 54.4427 6.71901 54.3795 7.9873 54.3125C9.24541 54.246 10.5339 54.1754 11.7197 54.2676L12.2207 54.3174L12.2334 54.3193L12.2451 54.3213C12.9039 54.4687 13.2537 54.9988 13.2627 55.5215C13.2716 56.0492 12.9297 56.5704 12.2607 56.6602L12.2324 56.6641L12.2031 56.6611C10.8793 56.5302 9.39823 56.6132 7.89941 56.6865C6.59699 56.7503 5.28073 56.8067 4.07812 56.6973L3.57031 56.6396C1.87755 56.407 0.698133 54.9447 0.429688 53.3701L0.387695 53.0547C0.231198 51.3448 0.194739 47.3425 0.391602 45.6611L0.418945 45.4854C0.45339 45.3082 0.511746 45.1286 0.613281 44.9717C0.754919 44.7529 0.972399 44.5911 1.28027 44.5352L1.4209 44.5176Z" fill="url(#paint1_linear_2006_590)" stroke="url(#paint2_linear_2006_590)" stroke-width="0.5"/>
<path d="M8.15723 0.245117C9.63804 0.231993 11.1291 0.269359 11.9551 0.386719L11.9541 0.387695C12.6244 0.482201 13.123 0.849955 13.2539 1.35059C13.3899 1.87135 13.0964 2.3944 12.4746 2.71094L12.4297 2.7334L12.3799 2.7373C11.0941 2.83355 9.72558 2.77058 8.38281 2.7168C7.20153 2.66948 6.03932 2.62901 4.94531 2.70215L4.48145 2.74121C3.97294 2.79227 3.57171 2.91512 3.28711 3.13379C3.04609 3.31899 2.86926 3.58807 2.79004 3.99121L2.76172 4.17285C2.63131 5.31005 2.68559 6.55869 2.74316 7.83789C2.80034 9.10809 2.86044 10.4086 2.73145 11.6152L2.72852 11.6436L2.71875 11.6709C2.50157 12.2951 1.99381 12.6687 1.47168 12.6602C1.21038 12.6558 0.957062 12.5535 0.759766 12.3516C0.587933 12.1756 0.467553 11.934 0.412109 11.6377L0.392578 11.5078C0.307036 10.7829 0.264382 9.06705 0.279297 7.38477C0.286784 6.54082 0.30864 5.69935 0.347656 4.98828C0.386309 4.28388 0.442295 3.68767 0.522461 3.3457L0.567383 3.17285C1.06534 1.41239 2.66367 0.595518 4.3252 0.415039V0.414062C5.17368 0.322058 6.6731 0.258273 8.15723 0.245117Z" fill="url(#paint3_linear_2006_590)" stroke="url(#paint4_linear_2006_590)" stroke-width="0.5"/>
<path d="M52.7861 44.5869C53.1606 44.4601 53.5793 44.5344 53.915 44.834H53.9268L54.001 44.9111C54.1371 45.0543 54.1891 45.2432 54.2148 45.3936C54.2404 45.5426 54.2474 45.7109 54.2559 45.8105L54.3066 46.5645C54.4059 48.3956 54.4274 51.3851 54.2744 52.9902L54.2354 53.335C54.1436 54.0382 53.762 54.8167 53.2324 55.4395C52.7372 56.0217 52.0843 56.5008 51.3721 56.6357L51.2295 56.6582C49.8815 56.8231 48.379 56.7581 46.8936 56.6865C45.3986 56.6145 43.9201 56.5361 42.583 56.6621L42.5547 56.6641L42.5264 56.6602C42.2029 56.6165 41.9504 56.4658 41.7842 56.248C41.6207 56.0338 41.5513 55.7693 41.5605 55.5117C41.5791 54.9995 41.9154 54.464 42.543 54.3242L42.5557 54.3203L42.5693 54.3193C43.8607 54.1757 45.2693 54.2451 46.6445 54.3105C48.0293 54.3764 49.3799 54.4379 50.5928 54.292H50.5938L50.7266 54.2715C51.378 54.145 51.8032 53.685 51.8848 53.001L51.9209 52.5977C51.9844 51.6275 51.9007 50.4535 51.834 49.2656C51.7589 47.9296 51.705 46.5691 51.9482 45.5547L52.001 45.3818C52.145 44.991 52.436 44.7056 52.7861 44.5869Z" fill="url(#paint5_linear_2006_590)" stroke="url(#paint6_linear_2006_590)" stroke-width="0.5"/>
<path d="M43.9678 0.325195C45.7081 0.228988 48.0992 0.267584 49.6367 0.366211L49.9443 0.390625C51.45 0.533914 52.4818 0.993304 53.167 1.70508C53.8958 2.46234 54.1965 3.46821 54.3018 4.5625C54.4067 5.65397 54.3201 6.87113 54.2451 8.07227C54.1695 9.28392 54.1056 10.4839 54.2412 11.5801L54.2451 11.6143L54.2402 11.6494C54.1862 11.9942 54.0322 12.266 53.8086 12.4424C53.5858 12.6181 53.3099 12.686 53.04 12.6523C52.5277 12.5883 52.0653 12.1707 51.9219 11.4922L51.8975 11.3525C51.741 10.2326 51.8072 8.96236 51.876 7.7207C51.9368 6.62335 51.9996 5.54781 51.9277 4.57715L51.8877 4.16797C51.8715 4.03294 51.8193 3.85996 51.7402 3.69141C51.6671 3.53556 51.5785 3.40218 51.4961 3.31348L51.4736 3.29102C51.3308 3.14937 51.0948 3.02185 50.8164 2.92285C50.6109 2.84978 50.3957 2.79726 50.2031 2.76562L50.0186 2.74023C48.839 2.61931 47.5624 2.66381 46.2607 2.7168C44.9662 2.7695 43.6453 2.83147 42.4072 2.7373L42.3408 2.73145L42.2852 2.69434C41.9261 2.44899 41.6827 2.19014 41.5684 1.91895C41.448 1.63327 41.4806 1.35351 41.6338 1.11719C41.779 0.893372 42.0206 0.725268 42.2959 0.606445C42.5746 0.48619 42.9083 0.407144 43.2656 0.375H43.2666L43.9678 0.325195Z" fill="url(#paint7_linear_2006_590)" stroke="url(#paint8_linear_2006_590)" stroke-width="0.5"/>
<path d="M25.1932 35.8585C24.8689 35.5669 24.3911 34.6123 24.4503 34.1744C24.4866 33.9034 25.1218 32.9912 25.2936 32.598C25.8223 31.3881 26.2119 29.9762 26.4478 28.6756C26.5458 28.1373 26.5107 27.0339 26.6825 26.6213C26.8434 26.2342 27.7024 26.2499 27.9395 26.6467C28.4888 27.5638 27.3419 31.3349 26.9366 32.4274C26.8156 32.7516 25.9953 34.3825 26.0159 34.4938C26.1272 35.1144 28.6763 34.9499 29.1905 34.8011C29.4543 34.7249 29.6321 34.5095 29.8341 34.4672C30.698 34.2857 31.0827 35.5391 30.2636 35.994C29.2897 36.5348 26.0413 36.6195 25.1932 35.8573V35.8585Z" fill="url(#paint9_linear_2006_590)"/>
<path d="M22.8231 39.5582C25.7812 39.7566 29.3381 39.1916 32.2272 39.5267C33.2895 39.6501 33.4758 40.8563 32.3482 40.9822C29.3696 40.722 25.8223 41.3221 22.9127 40.9822C21.8988 40.8636 21.848 39.7251 22.8231 39.5594V39.5582Z" fill="url(#paint10_linear_2006_590)"/>
<path d="M17.2006 26.2012C16.4892 24.3283 19.6493 23.577 20.9959 23.4657C21.9855 23.3846 25.2594 23.6738 25.3925 24.972C25.4288 25.3204 25.2304 25.8092 24.8432 25.8697C24.1705 25.9749 22.2747 25.2309 21.2185 25.2563C20.6451 25.2708 19.6445 25.4728 19.1013 25.6809C18.4274 25.9398 17.9374 26.6464 17.2006 26.1999V26.2012Z" fill="url(#paint11_linear_2006_590)"/>
<path d="M32.9868 23.6095C34.1677 23.5176 35.2807 23.5647 36.395 23.9979C36.9672 24.2205 38.3864 25.0577 38.1916 25.7812C37.9339 26.7406 36.4724 25.7497 35.8856 25.5937C34.9915 25.3553 33.8773 25.3105 32.9518 25.388C32.0262 25.4654 30.0094 26.4514 29.8896 25.0529C29.7916 23.9132 32.1908 23.6712 32.9856 23.6083L32.9868 23.6095Z" fill="url(#paint12_linear_2006_590)"/>
<path d="M24.276 28.8618C23.613 29.3203 23.4098 28.615 22.8556 28.4093C23.0746 29.6494 21.9398 30.4261 20.834 29.8841C19.7282 29.3421 20.9393 27.4402 19.0398 29.0191C18.1554 28.8606 18.5002 28.1916 18.9829 27.7415C20.2013 26.6067 22.5907 26.4675 23.8235 27.6205C24.0921 27.8722 24.6305 28.5182 24.2748 28.8618H24.276Z" fill="url(#paint13_linear_2006_590)"/>
<path d="M35.0658 28.5275C35.1735 30.6544 32.2348 30.5528 32.5252 28.4065C32.4465 28.3122 30.7757 29.689 30.8459 28.467C30.9064 27.4157 33.0599 26.8035 33.9201 26.8289C34.7803 26.8543 36.7378 27.5221 36.6398 28.5832C36.5455 29.6079 35.1675 28.4114 35.0658 28.5287V28.5275Z" fill="url(#paint14_linear_2006_590)"/>
<path d="M25.5984 42.3314C25.8839 42.2455 29.4324 42.2395 29.8038 42.3108C30.4765 42.4391 30.5805 43.6114 29.8038 43.7554C29.3247 43.8449 26.1719 43.8461 25.6988 43.7554C25.0165 43.6247 25.0116 42.5068 25.5984 42.3314Z" fill="url(#paint15_linear_2006_590)"/>
</g>
<defs>
<linearGradient id="paint0_linear_2006_590" x1="9.97089" y1="-16.2695" x2="106.318" y2="-6.25778" gradientUnits="userSpaceOnUse">
<stop stop-color="#F0F0F0"/>
<stop offset="1" stop-color="#757575"/>
</linearGradient>
<linearGradient id="paint1_linear_2006_590" x1="0.496578" y1="38.4485" x2="34.2015" y2="42.9948" gradientUnits="userSpaceOnUse">
<stop stop-color="#F0F0F0"/>
<stop offset="1" stop-color="#757575"/>
</linearGradient>
<linearGradient id="paint2_linear_2006_590" x1="0.496578" y1="38.4485" x2="34.2015" y2="42.9948" gradientUnits="userSpaceOnUse">
<stop stop-color="#F0F0F0"/>
<stop offset="1" stop-color="#757575"/>
</linearGradient>
<linearGradient id="paint3_linear_2006_590" x1="0.516107" y1="-5.91884" x2="34.2472" y2="-1.4345" gradientUnits="userSpaceOnUse">
<stop stop-color="#F0F0F0"/>
<stop offset="1" stop-color="#757575"/>
</linearGradient>
<linearGradient id="paint4_linear_2006_590" x1="0.516107" y1="-5.91884" x2="34.2472" y2="-1.4345" gradientUnits="userSpaceOnUse">
<stop stop-color="#F0F0F0"/>
<stop offset="1" stop-color="#757575"/>
</linearGradient>
<linearGradient id="paint5_linear_2006_590" x1="41.7995" y1="38.4652" x2="75.0341" y2="42.8868" gradientUnits="userSpaceOnUse">
<stop stop-color="#F0F0F0"/>
<stop offset="1" stop-color="#757575"/>
</linearGradient>
<linearGradient id="paint6_linear_2006_590" x1="41.7995" y1="38.4652" x2="75.0341" y2="42.8868" gradientUnits="userSpaceOnUse">
<stop stop-color="#F0F0F0"/>
<stop offset="1" stop-color="#757575"/>
</linearGradient>
<linearGradient id="paint7_linear_2006_590" x1="41.735" y1="-5.87696" x2="75.0629" y2="-1.49076" gradientUnits="userSpaceOnUse">
<stop stop-color="#F0F0F0"/>
<stop offset="1" stop-color="#757575"/>
</linearGradient>
<linearGradient id="paint8_linear_2006_590" x1="41.735" y1="-5.87696" x2="75.0629" y2="-1.49076" gradientUnits="userSpaceOnUse">
<stop stop-color="#F0F0F0"/>
<stop offset="1" stop-color="#757575"/>
</linearGradient>
<linearGradient id="paint9_linear_2006_590" x1="24.4402" y1="20.9204" x2="41.5408" y2="22.2684" gradientUnits="userSpaceOnUse">
<stop stop-color="#F0F0F0"/>
<stop offset="1" stop-color="#757575"/>
</linearGradient>
<linearGradient id="paint10_linear_2006_590" x1="22.1121" y1="38.5188" x2="39.9207" y2="53.3518" gradientUnits="userSpaceOnUse">
<stop stop-color="#F0F0F0"/>
<stop offset="1" stop-color="#757575"/>
</linearGradient>
<linearGradient id="paint11_linear_2006_590" x1="17.0908" y1="21.8978" x2="37.2061" y2="29.2106" gradientUnits="userSpaceOnUse">
<stop stop-color="#F0F0F0"/>
<stop offset="1" stop-color="#757575"/>
</linearGradient>
<linearGradient id="paint12_linear_2006_590" x1="29.8799" y1="22.1588" x2="49.5456" y2="30.0593" gradientUnits="userSpaceOnUse">
<stop stop-color="#F0F0F0"/>
<stop offset="1" stop-color="#757575"/>
</linearGradient>
<linearGradient id="paint13_linear_2006_590" x1="18.4883" y1="25.0778" x2="33.8591" y2="28.6235" gradientUnits="userSpaceOnUse">
<stop stop-color="#F0F0F0"/>
<stop offset="1" stop-color="#757575"/>
</linearGradient>
<linearGradient id="paint14_linear_2006_590" x1="30.839" y1="25.0839" x2="45.9771" y2="28.5135" gradientUnits="userSpaceOnUse">
<stop stop-color="#F0F0F0"/>
<stop offset="1" stop-color="#757575"/>
</linearGradient>
<linearGradient id="paint15_linear_2006_590" x1="25.1676" y1="41.4219" x2="37.2426" y2="46.4923" gradientUnits="userSpaceOnUse">
<stop stop-color="#F0F0F0"/>
<stop offset="1" stop-color="#757575"/>
</linearGradient>
</defs>
</svg>

