<svg width="313" height="56" viewBox="0 0 313 56" fill="none" xmlns="http://www.w3.org/2000/svg">
<path d="M31.1334 0.101562V28.6665C31.1334 30.0022 30.1059 30.927 28.8729 30.927H25.4821C25.2766 30.927 25.1738 31.1325 25.1738 31.2353V55.1763C25.9958 55.1763 26.8179 55.3818 27.7426 55.3818C43.0526 55.3818 55.4855 42.9489 55.4855 27.639C55.4855 13.562 44.9021 1.74559 31.1334 0.101562ZM30.5169 42.8462C28.5646 42.8462 27.1261 41.2021 27.1261 39.4554C27.1261 37.5031 28.7701 36.0646 30.5169 36.0646C32.4692 36.0646 33.9077 37.7086 33.9077 39.4554C34.1132 41.3049 32.4692 42.8462 30.5169 42.8462ZM38.6343 42.8462C36.682 42.8462 35.2435 41.2021 35.2435 39.4554C35.2435 37.5031 36.8875 36.0646 38.6343 36.0646C40.5865 36.0646 42.0251 37.7086 42.0251 39.4554C42.0251 41.2021 40.6893 42.8462 38.6343 42.8462ZM46.8544 42.8462C44.9021 42.8462 43.4636 41.2021 43.4636 39.4554C43.4636 37.5031 45.1076 36.0646 46.8544 36.0646C48.8067 36.0646 50.2452 37.7086 50.2452 39.4554C50.2452 41.2021 48.8067 42.8462 46.8544 42.8462Z" fill="#00B956"/>
<path d="M27.7429 0C12.4329 0 0 12.4329 0 27.7429C0 41.2033 9.35038 52.1977 21.8861 54.7665V29.7979C21.8861 28.6677 22.9136 27.7429 23.9411 27.5374H27.3319C27.5374 27.5374 27.6401 27.3319 27.6401 27.2291L27.7429 0ZM22.3998 22.8108C20.4475 22.8108 19.009 21.1668 19.009 19.42C19.009 17.4677 20.653 16.0292 22.3998 16.0292C24.3521 16.0292 25.7906 17.6733 25.7906 19.42C25.7906 21.1668 24.2493 22.8108 22.3998 22.8108Z" fill="#00B956"/>
<path d="M305.481 15.1051V25.5858H291.507V15.1051H284.417V42.848H291.507V31.6481H305.481V42.848H312.365V15.1051H305.481ZM189.988 18.2904C188.858 15.8244 186.598 14.4886 184.337 14.4886C182.077 14.4886 179.713 15.8244 178.686 18.2904L167.486 42.9508H174.884L177.35 37.0939H191.735L194.201 42.9508H201.599L189.988 18.2904ZM179.302 31.5454L183.515 21.373C183.721 21.0647 183.823 21.0647 184.029 21.0647C184.234 21.0647 184.543 21.0647 184.543 21.373L188.755 31.5454H179.302ZM107.376 10.1731C104.088 10.1731 102.033 11.9198 100.492 15.4134L91.5525 36.2719L82.5104 15.3106C81.0719 11.9198 78.9141 10.0703 75.626 10.0703C72.5435 10.0703 69.4609 12.1253 69.4609 16.9547V42.7453H76.3453V17.8794L85.4902 38.5325C86.6204 41.5123 88.7782 43.259 91.5525 43.259C94.5323 43.259 96.4846 41.5123 97.6148 38.5325L106.76 17.8794V43.0535H113.644V17.2629C113.541 12.4336 110.459 10.1731 107.376 10.1731ZM125.769 36.9912C125.46 36.9912 125.049 36.6829 125.049 36.2719V31.3399H142.312V25.6885H125.049V21.4757C125.049 21.1675 125.358 20.7565 125.769 20.7565H142.928V14.8996H122.378C119.912 14.8996 118.268 16.8519 118.268 19.0097V38.4297C118.268 40.4847 120.015 42.5398 122.378 42.5398H142.928V36.6829H125.769V36.9912ZM154.539 42.848V21.6812C154.539 21.373 154.847 20.962 155.258 20.962H172.418V15.1051H151.868C149.402 15.1051 147.758 17.0574 147.758 19.2152V42.7453L154.539 42.848ZM279.896 29.0793C279.896 19.4207 275.683 14.8996 265.202 14.8996H262.736C252.256 14.8996 248.043 19.5234 248.043 29.0793C248.043 38.5325 252.256 43.259 262.736 43.259H264.997C275.683 43.0535 279.896 38.5325 279.896 29.0793ZM264.997 37.4022H262.736C257.085 37.4022 254.722 34.8334 254.722 29.0793C254.722 23.5308 256.674 20.7565 262.736 20.7565H264.997C270.854 20.7565 273.012 23.5308 273.012 29.0793C273.012 34.7307 270.854 37.4022 264.997 37.4022ZM228.828 10.7896H215.06C204.785 10.7896 200.675 16.0299 200.675 24.9693C200.675 26.4078 200.88 27.7436 200.983 28.8738C202.113 35.2444 205.915 39.149 215.471 39.149H218.553V42.7453H225.438V39.149H228.417C238.076 39.149 241.878 35.2444 242.905 28.8738C243.111 27.7436 243.214 26.4078 243.214 24.9693C243.111 16.0299 238.898 10.7896 228.828 10.7896ZM218.348 33.3949H215.265C210.539 33.3949 208.895 31.6481 207.867 28.7711C207.559 27.7436 207.559 26.305 207.559 24.8665C207.559 19.0097 210.333 16.5437 214.238 16.5437H218.451V33.3949H218.348ZM236.021 29.0793C234.994 31.8536 233.247 33.7031 228.623 33.7031H225.54V16.7492H229.753C233.658 16.7492 236.432 19.2152 236.432 25.072C236.329 26.6133 236.329 27.8463 236.021 29.0793Z" fill="#00B956"/>
</svg>

