<svg width="53" height="53" viewBox="0 0 53 53" fill="none" xmlns="http://www.w3.org/2000/svg">
<path d="M52.6681 0H0V52.6681H52.6681V0Z" fill="#FF0032"/>
<path d="M35.0879 4.05078V6.47466H40.3881V16.2025H43.3507V6.47466H48.6401V4.05078H35.0879Z" fill="white"/>
<path d="M16.0302 4.05078L12.1519 12.0873L8.28448 4.05078H4.05078V16.2025H7.02406V7.50885L10.8053 14.8559H13.5093L17.2905 7.50885V16.2025H20.2531V4.05078H16.0302Z" fill="white"/>
<path d="M45.6765 44.5657C45.6011 45.0505 45.4072 45.4491 45.0948 45.7507C44.8039 46.0308 44.4053 46.2355 43.9097 46.354C43.425 46.4618 42.7033 46.5264 41.9492 46.5264C41.1627 46.5264 40.4733 46.4294 39.8808 46.2248C39.3098 46.0308 38.8573 45.6861 38.5449 45.2121C38.2217 44.7381 38.0601 44.0487 38.0601 43.1546V41.9157C38.0601 41.0323 38.2217 40.3428 38.5449 39.858C38.8681 39.384 39.3098 39.0394 39.8808 38.8455C40.4625 38.6408 41.1627 38.5438 41.9492 38.5438C42.7033 38.5438 43.425 38.6085 43.9097 38.7162C44.4053 38.8347 44.8039 39.0285 45.0948 39.3194C45.4072 39.621 45.6011 40.0196 45.6765 40.5044H48.639C48.5528 39.5025 48.219 38.6516 47.6264 37.9621C47.0878 37.3373 46.3337 36.8848 45.3964 36.6047C44.4915 36.3354 43.2957 36.1953 41.9492 36.1953C40.5271 36.1953 39.299 36.4 38.2863 36.7986C37.263 37.208 36.4658 37.8867 35.9164 38.8239C35.3885 39.718 35.1192 40.9245 35.0977 42.3897V42.5297L35.2592 42.5405L35.0977 42.5513V42.562V42.6913C35.1192 44.1565 35.3885 45.3629 35.9164 46.2571C36.4658 47.1943 37.263 47.873 38.2863 48.2824C39.299 48.681 40.5271 48.8857 41.9492 48.8857C43.2957 48.8857 44.4915 48.7456 45.3964 48.4763C46.3337 48.1962 47.077 47.7438 47.6264 47.1189C48.219 46.4402 48.5636 45.5784 48.639 44.5765H45.6765V44.5657Z" fill="white"/>
</svg>

