<svg width="147" height="55" viewBox="0 0 147 55" fill="none" xmlns="http://www.w3.org/2000/svg">
<g clip-path="url(#clip0_2017_1575)">
<path d="M146.024 39.5258C144.822 51.6397 132.768 54.5922 122.481 54.9696L95.0137 54.9655V19.3518L123.512 19.3477C133.073 19.7364 145.163 22.9879 146.024 34.38V39.5269V39.5258ZM108.617 45.4956C116.687 45.0347 133.676 48.3501 131.756 35.0956C130.58 29.6538 124.263 28.8237 119.596 28.6102L108.617 28.6143V45.4946V45.4956Z" fill="#E61939"/>
<path d="M137.263 0.00103123C137.812 0.174279 138.466 0.144373 139.038 0.235121C142.217 0.737333 146.001 2.15425 145.919 5.97085H140.2C139.9 5.97085 139.464 5.16442 139.109 4.89939C137.025 3.34223 130.213 3.42989 129.75 6.95774C129.171 11.3663 133.296 12.2098 136.771 11.7066C137.81 11.556 139.828 11.0342 140.045 9.88232C140.029 9.8586 139.565 9.98544 139.479 9.98544H134.945L134.79 9.83076V6.8969H146.022V15.5428H142.313C142.391 15.2365 141.82 13.4855 141.643 13.4865C139.985 15.2107 137.479 15.7439 135.155 15.8563C128.973 16.1564 123.123 14.0475 123.657 6.84121C124 2.21303 128.327 0.292871 132.463 0.0948736L132.627 0H137.264L137.263 0.00103123Z" fill="white"/>
<path d="M0 19.3516H34.9846C40.6018 19.7991 47.0315 21.3027 47.4079 28.0449C47.6503 32.3936 45.4651 34.9139 41.6309 36.4876C41.2906 36.6278 40.8534 36.698 40.5409 36.8392C40.4192 36.8939 40.3543 36.7897 40.3955 37.0548C44.142 37.7096 47.2068 40.6301 47.5049 44.5188C47.7699 47.9807 46.9336 51.6457 48.2278 54.9653H34.2133C33.379 52.1644 34.4783 48.8954 33.4388 46.1142C32.4478 43.4639 29.9357 42.8854 27.3648 42.7121L13.603 42.7162V54.9653H0V19.3516ZM13.603 34.0704H30.5545C30.9474 34.0704 31.9714 33.6053 32.3065 33.3495C33.8132 32.2028 33.7441 29.6103 32.1209 28.5945C31.8734 28.4398 30.6823 27.9964 30.4524 27.9964H13.604V34.0693L13.603 34.0704Z" fill="#E61939"/>
<path d="M90.6856 19.3516V27.9974H64.7171V32.5266H90.17V41.1725H64.7171V46.1131L91.0981 46.1647V54.9653H51.3203V19.3516H90.6856Z" fill="#E61939"/>
<path d="M32.0492 0.308594L36.5845 8.74925L41.3241 0.308594H49.0522V15.543H43.2814V6.17632L37.8746 15.5502L34.9552 15.5214L29.6794 6.17632V15.543H24.0117V0.308594H32.0492Z" fill="white"/>
<path d="M116.448 8.85237V0.308594H122.219V15.543H116.396L106.865 6.38153V15.543H101.094V0.308594H107.637L116.448 8.85237Z" fill="white"/>
<path d="M0 15.5424L7.47026 0.410092L15.3076 0.300781L23.2904 15.5424H16.9009C16.5606 14.9649 16.2296 13.712 15.8604 13.2366C15.7583 13.1046 15.6923 13.0541 15.516 13.0664L7.17946 13.0891L5.97807 15.5435H0V15.5424ZM13.8093 9.26324L11.4374 4.11738L8.96555 9.26324H13.8093Z" fill="white"/>
<path d="M73.0628 15.5424H66.7249L65.4709 13.0685L56.7704 13.1366L55.5958 15.5435H49.7734L57.3437 0.300781L65.1296 0.35853L73.0628 15.5424ZM63.5817 9.26324L61.0067 4.11738L58.6348 9.26324H63.5817Z" fill="white"/>
<path d="M91.6125 0.308594V3.50026L81.823 11.3222H91.7156V15.543H73.373V12.4029L82.9563 4.32319H73.4762V0.308594H91.6125Z" fill="white"/>
<path d="M99.1356 0.308594H93.2617V15.542H99.1356V0.308594Z" fill="white"/>
</g>
<defs>
<clipPath id="clip0_2017_1575">
<rect width="146.023" height="54.9689" fill="white"/>
</clipPath>
</defs>
</svg>

