<svg width="120" height="53" viewBox="0 0 120 53" fill="none" xmlns="http://www.w3.org/2000/svg">
<path d="M84.3593 4.67033V6.5955H100.885C101.984 6.5955 103.64 6.5955 104.743 7.6944C105.847 8.79749 105.847 10.45 105.847 11.5531V28.0786C105.847 29.1817 105.847 30.8342 104.743 31.9331C103.64 33.0362 101.984 33.0362 100.885 33.0362H92.9156C91.5399 33.0362 89.7448 33.0362 89.0569 31.5221C88.3732 30.0037 89.3312 28.628 90.1642 27.5291L100.902 13.2266H84.3761L77.7491 22.0346C76.6418 23.511 75.6855 24.7903 75.6855 26.4386C75.6855 28.0912 76.5747 29.2823 77.7491 30.8426L79.4017 33.0446C81.0542 35.2466 82.7068 37.4486 84.8962 38.5391C87.1024 39.6338 89.7196 39.6338 93.2847 39.6338H100.457C104.592 39.6338 110.775 39.6338 114.927 35.5066C119.054 31.3753 119.054 25.3146 119.054 23.1335V16.5066C119.054 14.3004 119.054 8.24385 114.927 4.13346C110.792 -0.00209679 104.609 0.0104857 100.457 0.00629141L89.0485 0C87.9538 0 86.5697 -9.99993e-08 85.4666 1.10309C84.3719 2.20619 84.3719 3.58191 84.3719 4.68501" fill="#FF0032"/>
<path d="M64.6462 13.1836H81.0039L61.2908 39.6075H44.5137L64.6462 13.1836Z" fill="#FF0032"/>
<path d="M0.0545256 17.88C0.0545256 16.7811 0.0545256 15.4012 1.15762 14.2981C2.25652 13.1992 3.64063 13.1992 4.73953 13.1992H32.4217C35.9995 13.1992 38.6293 13.1992 40.8103 14.2981C43.0081 15.4054 44.6606 17.6074 46.3048 19.7926L47.9615 21.9946C49.1401 23.5591 50.0335 24.7503 50.0335 26.3986C50.0335 28.0511 49.0688 29.3304 47.9615 30.8026L41.3346 39.6106H24.8091L35.5465 25.3081C36.3728 24.205 37.3416 22.8335 36.6496 21.3151C35.9659 19.8052 34.175 19.8052 32.7992 19.8052H19.8389V52.8561H6.62695V19.8052H0V17.8758" fill="#FF0032"/>
</svg>

