<svg width="192" height="53" viewBox="0 0 192 53" fill="none" xmlns="http://www.w3.org/2000/svg">
<path d="M152.189 15.8176L159.289 10.5117H135.514V42.2988H159.289V36.9885H142.305V28.8753H156.821V23.5694H142.305V15.8176H152.189Z" fill="#21A038"/>
<path d="M117.551 22.8907H109.314V15.8176H122.491L129.595 10.5117H102.523V42.2988H116.674C124.602 42.2988 129.181 38.6543 129.181 32.3083C129.181 26.2224 125.065 22.8907 117.551 22.8907ZM116.418 36.9885H109.314V28.1967H116.418C120.742 28.1967 122.747 29.6554 122.747 32.6212C122.747 35.5871 120.587 36.9885 116.418 36.9885Z" fill="#21A038"/>
<path d="M178.538 10.5117H165.621V42.2988H172.412V33.2955H178.591C186.823 33.2955 191.97 28.9282 191.97 21.9036C191.97 14.879 186.823 10.5117 178.538 10.5117ZM178.384 27.9896H172.364V15.8176H178.384C182.76 15.8176 185.126 18.0035 185.126 21.9036C185.126 25.8037 182.76 27.9896 178.384 27.9896Z" fill="#21A038"/>
<path d="M90.8872 35.4291C89.0892 36.4207 87.0797 36.9407 85.0216 36.9407C78.896 36.9407 74.4715 32.5161 74.4715 26.4302C74.4715 20.3442 78.896 15.9197 85.0216 15.9197C87.2339 15.8712 89.3977 16.5984 91.1957 17.8984L96.0874 14.2583L95.7789 13.9454C92.9497 11.3938 89.1377 10.0938 84.8145 10.0938C80.1344 10.0938 75.8597 11.7067 72.7748 14.6197C69.6856 17.6384 67.936 21.8514 68.0374 26.2231C67.9845 30.6432 69.6856 34.9091 72.7748 38.0292C76.0139 41.1008 80.3371 42.8195 84.766 42.7137C89.6533 42.7137 93.9236 40.995 96.8057 37.875L92.4341 34.5962L90.8872 35.4291Z" fill="#21A038"/>
<path d="M46.7838 10.3047C48.0178 11.9176 49.049 13.6848 49.9215 15.5577L26.1462 33.2956L16.1602 26.9496V19.3565L26.0933 25.6496L46.7838 10.3047Z" fill="#21A038"/>
<path d="M6.01985 26.4271C6.01985 26.0614 6.01985 25.7529 6.07273 25.3871L0.052883 25.0742C0.052883 25.4929 0 25.96 0 26.3743C0 33.6589 2.93501 40.2649 7.66804 45.0508L11.9383 40.732C8.285 37.0919 6.01985 32.046 6.01985 26.4271Z" fill="url(#paint0_linear_2024_1592)"/>
<path d="M26.0933 6.14064C26.4547 6.14064 26.7631 6.14064 27.1245 6.19352L27.433 0.107569C27.0187 0.107569 26.556 0.0546875 26.1462 0.0546875C18.9409 0.0546875 12.4054 3.02054 7.66797 7.80645L11.9383 12.1252C15.5431 8.43224 20.5846 6.14064 26.0933 6.14064Z" fill="url(#paint1_linear_2024_1592)"/>
<path d="M26.0936 46.719C25.7322 46.719 25.4238 46.719 25.0624 46.6661L24.7539 52.752C25.1682 52.752 25.6309 52.8049 26.0407 52.8049C33.246 52.8049 39.7859 49.8391 44.5189 45.0532L40.2486 40.7344C36.6438 44.4803 31.6507 46.719 26.0936 46.719Z" fill="url(#paint2_linear_2024_1592)"/>
<path d="M37.4151 9.67759L42.5095 5.87883C38.0321 2.23871 32.3207 0 26.0938 0V6.08595C30.3156 6.13884 34.2245 7.43888 37.4151 9.67759Z" fill="url(#paint3_linear_2024_1592)"/>
<path d="M52.2392 26.4283C52.2392 24.8154 52.085 23.2554 51.8249 21.6953L46.2149 25.9083C46.2149 26.0626 46.2149 26.2741 46.2149 26.4283C46.2149 32.4129 43.6413 37.7717 39.5781 41.4647L43.6413 45.9906C48.8943 41.2047 52.2392 34.1801 52.2392 26.4283Z" fill="#21A038"/>
<path d="M26.093 46.7195C20.1745 46.7195 14.8729 44.1195 11.2196 40.0078L6.74219 44.1195C11.5281 49.4783 18.4249 52.8055 26.093 52.8055V46.7195Z" fill="url(#paint4_linear_2024_1592)"/>
<path d="M12.6611 11.3931L8.59349 6.86719C3.29197 11.706 0 18.6777 0 26.4295H6.01985C6.01985 20.4978 8.59349 15.0905 12.6611 11.3931Z" fill="url(#paint5_linear_2024_1592)"/>
<defs>
<linearGradient id="paint0_linear_2024_1592" x1="7.02609" y1="44.3108" x2="0.843457" y2="26.3585" gradientUnits="userSpaceOnUse">
<stop offset="0.1444" stop-color="#F2E913"/>
<stop offset="0.3037" stop-color="#E7E518"/>
<stop offset="0.5823" stop-color="#CADB26"/>
<stop offset="0.891" stop-color="#A3CD39"/>
</linearGradient>
<linearGradient id="paint1_linear_2024_1592" x1="9.38504" y1="7.11943" x2="25.0064" y2="1.13942" gradientUnits="userSpaceOnUse">
<stop offset="0.0592" stop-color="#0FA8E0"/>
<stop offset="0.5385" stop-color="#0099F9"/>
<stop offset="0.9234" stop-color="#0291EB"/>
</linearGradient>
<linearGradient id="paint2_linear_2024_1592" x1="24.4022" y1="47.6287" x2="43.016" y2="43.4029" gradientUnits="userSpaceOnUse">
<stop offset="0.1226" stop-color="#A3CD39"/>
<stop offset="0.2846" stop-color="#86C339"/>
<stop offset="0.8693" stop-color="#21A038"/>
</linearGradient>
<linearGradient id="paint3_linear_2024_1592" x1="24.8568" y1="3.87782" x2="40.3366" y2="8.67573" gradientUnits="userSpaceOnUse">
<stop offset="0.0566" stop-color="#0291EB"/>
<stop offset="0.79" stop-color="#0C8ACB"/>
</linearGradient>
<linearGradient id="paint4_linear_2024_1592" x1="8.27295" y1="45.0823" x2="24.9037" y2="51.3244" gradientUnits="userSpaceOnUse">
<stop offset="0.1324" stop-color="#F2E913"/>
<stop offset="0.2977" stop-color="#EBE716"/>
<stop offset="0.5306" stop-color="#D9E01F"/>
<stop offset="0.8023" stop-color="#BBD62D"/>
<stop offset="0.9829" stop-color="#A3CD39"/>
</linearGradient>
<linearGradient id="paint5_linear_2024_1592" x1="4.61401" y1="27.1649" x2="11.2971" y2="9.7009" gradientUnits="userSpaceOnUse">
<stop offset="0.0698" stop-color="#A3CD39"/>
<stop offset="0.2599" stop-color="#81C55F"/>
<stop offset="0.9216" stop-color="#0FA8E0"/>
</linearGradient>
</defs>
</svg>

