<svg width="74" height="54" viewBox="0 0 74 54" fill="none" xmlns="http://www.w3.org/2000/svg">
<path d="M13.9443 0C17.5554 0 21.1666 0 24.8872 0C24.8872 4.13535 24.8872 8.2707 24.8872 12.5314C28.4983 12.5314 32.1095 12.5314 35.83 12.5314C35.83 16.1425 35.83 19.7537 35.83 23.4742C32.2189 23.4742 28.6077 23.4742 24.8872 23.4742C24.8872 29.5899 24.8872 35.7056 24.8872 42.0066C29.8962 42.0066 34.9052 42.0066 40.066 42.0066C40.066 45.6759 40.066 49.3453 40.066 53.1259C37.4122 53.1478 37.4122 53.1478 34.7049 53.1701C34.1533 53.1765 33.6017 53.1829 33.0334 53.1895C28.1969 53.2224 23.9365 52.4653 20.1217 49.243C19.9822 49.1292 19.8428 49.0155 19.6991 48.8983C16.6931 46.342 14.4814 42.5944 13.9443 38.6531C13.8495 37.3866 13.8772 36.1135 13.8842 34.8444C13.8843 34.4632 13.8842 34.0821 13.8839 33.7009C13.8838 32.6724 13.8869 31.6438 13.8906 30.6153C13.8939 29.5381 13.8942 28.4609 13.8948 27.3837C13.8965 25.3466 13.9008 23.3095 13.9061 21.2724C13.9121 18.9521 13.915 16.6318 13.9176 14.3115C13.9232 9.54099 13.9329 4.7705 13.9443 0Z" fill="#FEFEFE"/>
<path d="M65.9887 9.34367C69.9604 12.3924 72.695 16.3961 73.3796 21.4448C73.3993 21.7092 73.4134 21.9741 73.4237 22.2391C73.4328 22.4302 73.4419 22.6213 73.4513 22.8182C73.4953 24.5637 73.2749 26.1879 72.8942 27.887C72.8512 28.0811 72.8082 28.2751 72.7639 28.4751C71.6418 32.7028 68.4914 36.3561 64.7725 38.5341C64.5987 38.6317 64.4249 38.7293 64.2458 38.8299C64.1229 38.9002 64.0001 38.9705 63.8735 39.0429C61.7366 40.189 59.3751 40.8333 56.9555 40.8114C56.802 40.8115 56.6486 40.8115 56.4905 40.8116C55.9901 40.8113 55.4897 40.8086 54.9893 40.8058C54.6396 40.8052 54.29 40.8047 53.9403 40.8043C53.0252 40.803 52.11 40.7995 51.1949 40.7956C50.0941 40.7913 48.9933 40.7897 47.8925 40.7877C46.2248 40.7843 44.5572 40.7775 42.8895 40.7714C42.8895 37.102 42.8895 33.4326 42.8895 29.652C43.9286 29.6454 44.9677 29.6388 46.0382 29.632C46.6986 29.6266 47.359 29.6211 48.0194 29.6151C49.0663 29.6055 50.1132 29.5965 51.1602 29.5908C52.0048 29.5862 52.8493 29.5791 53.6939 29.5702C54.0152 29.5673 54.3366 29.5653 54.6579 29.5642C55.1099 29.5624 55.5618 29.5575 56.0138 29.5518C56.2107 29.5522 56.2107 29.5522 56.4116 29.5526C58.1126 29.5226 59.5168 28.9186 60.7158 27.7105C61.9897 25.9903 62.3343 24.3636 62.1278 22.2391C61.6952 20.6236 60.9083 19.3441 59.5245 18.4002C58.0807 17.5717 56.5458 17.2555 54.8914 17.4736C53.2612 17.9154 51.8538 18.7589 50.9099 20.1831C50.3354 21.2571 50.0998 22.2762 49.773 23.4745C46.1618 23.4745 42.5507 23.4745 38.8301 23.4745C38.8301 20.9817 38.8301 20.9817 39.1059 19.8122C39.1369 19.6783 39.1679 19.5444 39.1998 19.4064C40.2868 15.0118 43.144 11.2362 46.949 8.8252C52.8861 5.26839 60.2834 5.33237 65.9887 9.34367Z" fill="#FDFDFD"/>
<path d="M42.8887 42.0078C52.6737 42.0078 62.4588 42.0078 72.5404 42.0078C72.5404 45.6772 72.5404 49.3466 72.5404 53.1272C62.7553 53.1272 52.9702 53.1272 42.8887 53.1272C42.8887 49.4578 42.8887 45.7884 42.8887 42.0078Z" fill="#FCFCFC"/>
<path d="M0 12.5312C3.61115 12.5312 7.2223 12.5312 10.9429 12.5312C10.9429 16.1424 10.9429 19.7536 10.9429 23.4741C7.33173 23.4741 3.72058 23.4741 0 23.4741C0 19.863 0 16.2518 0 12.5312Z" fill="#FF3495"/>
</svg>

