<svg width="195" height="58" viewBox="0 0 195 58" fill="none" xmlns="http://www.w3.org/2000/svg">
<path d="M96.7293 23.9601C95.3887 23.4443 93.6352 23.2899 91.727 23.2899H81.1029V19.9892H99.3595V14.3164H73.625V38.8646H91.0566C93.4805 38.8646 95.285 38.6584 96.6264 38.1422C99.4628 37.0593 101.371 34.4292 101.371 30.974C101.371 27.4673 99.5659 25.0432 96.7293 23.9601ZM93.0161 32.4696C92.6038 32.6244 92.0365 32.6757 91.3141 32.6757H81.1029V28.7562H91.3141C92.1395 28.7562 92.8097 28.8081 93.3257 29.0658C93.9444 29.3753 94.254 29.9426 94.254 30.6643C94.254 31.3865 93.8931 32.1601 93.0161 32.4696Z" fill="white"/>
<path d="M122.339 14.3164H111.406L101.35 38.8646H109.808L111.2 35.306H122.546L123.99 38.8646H132.396L122.339 14.3164ZM113.056 29.8908L116.615 19.9892H117.182L120.741 29.8908H113.056Z" fill="white"/>
<path d="M142.021 29.7366V38.8648H134.543V14.3164H142.021V23.2901H154.037V14.3164H161.515V38.8648H154.037V29.7366H142.021Z" fill="white"/>
<path d="M173.351 29.582V38.8648H165.873V14.3164H173.351V23.548H175.414L184.439 14.3164H193.825L181.86 26.0748L194.289 38.8648H184.336L175.414 29.582H173.351Z" fill="white"/>
<path d="M0 0H59.3094V27.7832C59.3094 35.4298 55.2301 42.496 48.6083 46.3196L29.6549 57.2642L10.7012 46.3196C4.0792 42.496 6.79761e-06 35.4298 6.79761e-06 27.7832L0 0Z" fill="#FFDD2D"/>
<path fill-rule="evenodd" clip-rule="evenodd" d="M16.3613 14.3164V23.5353C17.622 22.1117 19.9141 21.1484 22.5348 21.1484H25.3827V31.8652C25.3827 34.7164 24.608 37.5082 23.4586 38.8809H35.8467C34.6998 37.5068 33.9269 34.7184 33.9269 31.8708V21.1484H36.775C39.3957 21.1484 41.6877 22.1117 42.9483 23.5353V14.3164H16.3613Z" fill="#333333"/>
</svg>

