<svg width="311" height="55" viewBox="0 0 311 55" fill="none" xmlns="http://www.w3.org/2000/svg">
<path d="M94.4482 33.7101C94.4482 37.8351 90.6076 40.8222 85.2024 40.8222H72.543V15.2188H84.7757C90.0387 15.2188 93.737 18.0636 93.737 22.0463C93.737 24.7489 92.3146 26.4558 90.1809 27.4516C92.4568 28.305 94.4482 30.5808 94.4482 33.7101ZM78.0904 19.9127V25.4601H84.6335C86.6249 25.4601 87.9051 24.3222 87.9051 22.7576C87.9051 21.1929 86.4826 19.9127 84.6335 19.9127H78.0904ZM85.2024 36.1283C87.3361 36.1283 88.9008 34.8481 88.9008 32.9989C88.9008 31.1498 87.4783 29.8696 85.2024 29.8696H78.0904V36.1283H85.2024Z" fill="white"/>
<path d="M115.357 40.68L106.538 30.5809H105.115V40.68H99.4258V15.2188H105.115V25.0334H106.538L115.072 15.2188H121.758L111.09 27.4516L122.753 40.68H115.357Z" fill="white"/>
<path d="M122.754 28.0215C122.754 20.3404 128.444 14.793 136.409 14.793C144.375 14.793 150.065 20.3404 150.065 28.0215C150.065 35.7025 144.375 41.2499 136.409 41.2499C128.444 41.2499 122.754 35.7025 122.754 28.0215ZM144.091 28.0215C144.091 23.1852 140.961 19.9137 136.409 19.9137C131.857 19.9137 128.729 23.1852 128.729 28.0215C128.729 32.8576 131.857 36.1293 136.409 36.1293C140.961 36.1293 144.091 32.8576 144.091 28.0215Z" fill="white"/>
<path d="M171.828 15.2188H177.519V40.68H171.828V30.4386H160.449V40.68H154.76V15.2188H160.449V25.3178H171.828V15.2188Z" fill="white"/>
<path d="M189.751 40.68V20.3394H180.932V15.2188H204.117V20.3394H195.298V40.68H189.751Z" fill="white"/>
<path d="M228.582 26.4568V40.6809H224.457L223.319 36.6982C222.039 38.8318 219.337 41.2499 215.212 41.2499C210.091 41.2499 206.393 37.8361 206.393 33.1421C206.393 28.4481 210.091 25.1766 217.63 25.1766H223.177C222.893 21.905 221.186 19.6292 218.057 19.6292C215.496 19.6292 213.789 21.0516 212.936 22.6163L207.815 21.7628C209.096 17.3533 213.505 14.793 218.341 14.793C224.6 14.793 228.582 19.0602 228.582 26.4568ZM223.035 29.5861H217.773C213.505 29.5861 212.082 31.0085 212.082 32.8576C212.082 34.9912 213.789 36.4137 216.634 36.4137C220.332 36.4137 223.035 33.7112 223.035 29.5861Z" fill="white"/>
<path d="M250.487 40.68L241.669 30.5809H240.246V40.68H234.557V15.2188H240.246V25.0334H241.669L250.203 15.2188H256.889L246.221 27.4516L257.884 40.68H250.487Z" fill="white"/>
<path d="M268.125 40.68V20.3394H259.307V15.2188H282.492V20.3394H273.673V40.68H268.125Z" fill="white"/>
<path d="M310.94 29.5861H290.458C291.027 33.5689 293.872 36.1293 298.139 36.1293C301.126 36.1293 303.402 34.8491 304.683 32.9999L309.945 33.8534C308.096 38.6896 303.117 41.2499 297.712 41.2499C290.031 41.2499 284.484 35.7025 284.484 28.0215C284.484 20.3404 290.031 14.793 297.712 14.793C305.394 14.793 310.94 20.3404 310.94 27.737C311.083 28.4481 310.94 29.0172 310.94 29.5861ZM290.885 25.1766H304.967C303.971 22.0473 301.41 19.7714 297.854 19.7714C294.44 19.6292 291.738 21.905 290.885 25.1766Z" fill="white"/>
<path d="M0 26.0814C0 13.7865 0 7.63907 3.81954 3.81954C7.63907 0 13.7865 0 26.0814 0H28.2549C40.5498 0 46.6972 0 50.5168 3.81954C54.3363 7.63907 54.3363 13.7865 54.3363 26.0814V28.2549C54.3363 40.5498 54.3363 46.6972 50.5168 50.5168C46.6972 54.3363 40.5498 54.3363 28.2549 54.3363H26.0814C13.7865 54.3363 7.63907 54.3363 3.81954 50.5168C0 46.6972 0 40.5498 0 28.2549V26.0814Z" fill="#0077FF"/>
<path d="M28.912 39.1448C16.5279 39.1448 9.46424 30.6548 9.16992 16.5273H15.3733C15.5771 26.8965 20.1503 31.2887 23.7727 32.1943V16.5273H29.6141V25.4702C33.1912 25.0853 36.949 21.0101 38.2169 16.5273H44.0581C43.0846 22.0515 39.0094 26.1268 36.1115 27.8021C39.0094 29.1605 43.6508 32.715 45.4168 39.1448H38.9867C37.6057 34.8432 34.1647 31.5151 29.6141 31.0623V39.1448H28.912Z" fill="white"/>
</svg>

