<svg width="167" height="60" viewBox="0 0 167 60" fill="none" xmlns="http://www.w3.org/2000/svg">
<path fill-rule="evenodd" clip-rule="evenodd" d="M11.3311 0L8.49659 7.76439H47.7772L50.6117 0H11.3311ZM7.07843 11.6448L4.24387 19.4075H43.5245L46.359 11.6448H7.07843ZM2.83455 23.2897L0 31.0523H39.2806L42.1134 23.2897H2.83455Z" fill="#009FDF"/>
<mask id="mask0_2017_1586" style="mask-type:luminance" maskUnits="userSpaceOnUse" x="58" y="11" width="109" height="49">
<path d="M58.9336 59.3587H166.46V11.7969H58.9336V59.3587Z" fill="white"/>
</mask>
<g mask="url(#mask0_2017_1586)">
<path fill-rule="evenodd" clip-rule="evenodd" d="M83.5082 34.0139V34.1777C85.3034 34.8366 87.0181 35.9888 87.9166 36.7287C90.6924 39.033 91.9177 42.0772 91.9177 46.027C91.9177 52.5295 88.4882 57.2192 82.8545 58.7008C81.1397 59.1941 79.3446 59.3597 75.9954 59.3597H58.9336V11.7969H74.0378C77.1404 11.7969 79.2624 11.9607 81.1397 12.454C86.6109 13.9356 90.2029 17.7215 90.2029 23.7272C90.2029 26.9371 89.0598 29.6537 87.1825 31.4629C86.3662 32.2856 85.223 33.274 83.5082 34.0139ZM68.4041 39.033V51.5412H74.9362C76.8939 51.5412 78.6908 51.3774 79.9983 50.1424C81.3041 48.9074 81.8756 47.3448 81.8756 45.2871C81.8756 43.7245 81.4666 42.2429 80.6503 41.1735C79.2624 39.4453 77.5477 39.033 74.6093 39.033H68.4041ZM68.3219 30.804H73.6287C75.2613 30.804 76.0776 30.804 76.8939 30.5574C79.0999 29.8985 80.4878 27.9254 80.4878 25.2088C80.4878 22.0007 79.0177 20.6001 76.8939 19.9431C75.9954 19.6964 75.0988 19.6136 73.3018 19.6136H68.3219V30.804ZM106.123 59.3597V19.7774H92.4893V11.7969H130.373L127.679 19.7774H115.594V59.3597H106.123ZM133.311 59.3597V11.7969H164.011L161.317 19.7774H142.701V30.3107H150.295C156.418 30.3107 159.602 31.7924 161.807 33.6844C163.521 35.166 166.46 38.4569 166.46 44.9595C166.46 51.3774 163.439 54.9149 160.908 56.726C157.97 58.7818 154.867 59.3597 148.58 59.3597H133.311ZM142.701 51.3774H149.805C152.499 51.3774 154.131 50.7185 155.274 49.2369C155.846 48.497 156.662 47.1792 156.662 44.711C156.662 42.2429 155.846 40.5146 154.213 39.2796C153.235 38.5397 151.927 38.1293 149.723 38.1293H142.701V51.3774Z" fill="white"/>
</g>
</svg>

