<svg width="176" height="54" viewBox="0 0 176 54" fill="none" xmlns="http://www.w3.org/2000/svg">
<path d="M42.9349 45.3711L37.8733 36.958L32.9165 45.3711H26.9817L34.6062 32.6994L26.8359 20.935H33.0352L38.013 28.7895L42.7606 20.935H48.6948L41.0501 33.0833L48.9043 45.3711H42.9349Z" fill="white"/>
<path d="M68.1934 37.066C68.1934 42.4418 64.1442 45.793 58.8379 45.793C54.1602 45.793 50.2217 43.2099 49.8379 37.5895H54.8995C55.2485 40.0331 57.2035 41.0804 59.3331 41.0804C61.986 41.0804 63.1318 39.3 63.1318 36.9961C63.1318 34.5873 61.3516 33.0864 58.8729 33.0864C56.8134 33.0864 55.452 34.0637 54.8237 35.1111H49.9852L51.6579 20.9381H67.5715L67.0415 25.6858H55.6582L55.2063 30.376C55.2063 30.376 56.4024 28.9672 60.025 28.9672C64.3887 28.9672 68.1934 31.8995 68.1934 37.066Z" fill="white"/>
<path d="M50.4376 17.8943C47.7416 7.38358 39.1859 -0.000884079 21.4336 -0.000884079H0L2.90958 19.6729C5.09833 37.4254 11.888 43.1368 23.9032 45.2395C23.9599 45.2483 24.3389 45.3023 24.3446 44.8568C24.3465 44.6966 24.2445 44.5583 24.1056 44.4996C15.9841 41.0798 15.0572 29.8666 13.3228 18.6131L11.98 9.64584H24.2158C35.4969 9.64584 44.2052 9.46767 49.7206 18.1748C49.8032 18.2979 49.9303 18.3881 50.0815 18.3881C50.2949 18.3881 50.4527 18.2149 50.4527 18.0014C50.4527 17.9642 50.4473 17.9284 50.4376 17.8943Z" fill="#55B435"/>
<path d="M72.4395 33.136C72.4395 25.545 77.9507 20.0684 85.611 20.0684C90.741 20.0684 95.3856 23.0493 96.7375 27.1394L93.8606 28.1101C92.8207 25.0597 89.3892 22.8414 85.611 22.8414C79.7531 22.8414 75.5937 27.1048 75.5937 33.136C75.5937 39.0979 79.7877 43.4652 85.611 43.4652C90.8796 43.4652 95.039 39.6871 95.1777 34.7651L83.0461 34.7304V31.9228H98.3666C98.8865 40.2417 93.5486 46.2383 85.611 46.2383C77.9507 46.2383 72.4395 40.727 72.4395 33.136Z" fill="white"/>
<path d="M102.158 27.8669H104.966V30.2238H105.278C106.075 28.6294 108.016 27.5203 109.957 27.5203C110.754 27.5203 111.586 27.6936 112.106 27.9708V30.6397C111.205 30.2585 110.165 30.1198 109.507 30.1198C106.872 30.1198 105.035 32.4768 105.035 35.943V45.3711H102.158V27.8669Z" fill="white"/>
<path d="M129.636 36.6037C129.636 32.6521 126.898 29.7752 123.12 29.7752C119.307 29.7752 116.603 32.6521 116.603 36.6037C116.603 40.5898 119.307 43.4667 123.12 43.4667C126.898 43.4667 129.636 40.5898 129.636 36.6037ZM113.727 36.6037C113.727 31.0925 117.609 27.1757 123.12 27.1757C128.597 27.1757 132.513 31.0925 132.513 36.6037C132.513 42.1496 128.597 46.0664 123.12 46.0664C117.609 46.0664 113.727 42.1496 113.727 36.6037Z" fill="white"/>
<path d="M151.86 45.3721H148.983V42.9805H148.636C147.423 44.8868 145.448 45.9961 143.16 45.9961C138.689 45.9961 135.881 42.7726 135.881 38.301V27.8679H138.758V38.301C138.758 41.282 140.491 43.3964 143.507 43.3964C146.453 43.3964 148.983 41.1433 148.983 38.0585V27.8679H151.86V45.3721Z" fill="white"/>
<path d="M159.252 36.6021C159.252 40.4494 161.99 43.465 165.768 43.465C169.511 43.465 172.25 40.4494 172.25 36.6021C172.25 32.6853 169.511 29.7736 165.768 29.7736C161.99 29.7736 159.252 32.7545 159.252 36.6021ZM175.127 36.6021C175.127 42.0787 171.21 46.0647 166.114 46.0647C163.307 46.0647 160.95 44.8515 159.667 42.7719H159.355V53.3438H156.479V27.8673H159.355V30.5363H159.667C160.95 28.4219 163.203 27.174 166.08 27.174C171.175 27.174 175.127 31.1255 175.127 36.6021Z" fill="white"/>
</svg>

