<svg width="192" height="56" viewBox="0 0 192 56" fill="none" xmlns="http://www.w3.org/2000/svg">
<path d="M182.911 48.2485C186.675 48.2485 189.341 47.569 191.327 46.1052V39.4663C189.289 40.8777 186.832 41.7664 183.381 41.7664C177.579 41.7664 175.174 37.2707 175.174 30.1613C175.174 22.6859 178.102 18.8698 183.434 18.8698C186.57 18.8698 189.654 19.9676 191.275 21.0131V14.1127C189.55 13.1718 186.57 12.4922 182.493 12.4922C172.09 12.4922 166.706 19.9676 166.706 30.4226C166.758 41.8709 172.038 48.2485 182.911 48.2485ZM132.047 45.2166V38.5776C129.538 40.3027 125.251 41.8187 121.331 41.8187C115.371 41.8187 113.123 38.9958 112.757 33.2455H132.413V28.9589C132.413 16.9879 127.133 12.4922 119.03 12.4922C109.098 12.4922 104.393 20.0721 104.393 30.4749C104.393 42.446 110.3 48.2485 120.651 48.2485C125.826 48.2485 129.642 46.8371 132.047 45.2166ZM57.4501 13.1195V26.7111H46.5768V13.1195H38.4219V47.569H46.5768V33.1932H57.4501V47.569H65.6051V13.1195H57.4501ZM102.355 41.0868H98.7476V13.1195H75.0146V16.0469C75.0146 24.4632 74.4919 35.3365 71.6167 41.0868H69.003V55.4103H76.5306V47.569H94.7747V55.4103H102.302V41.0868H102.355ZM158.028 47.569H167.281L154.212 29.0112L165.712 13.1195H157.505L146.005 29.0112V13.1195H137.85V47.569H146.005V30.6317L158.028 47.569ZM118.821 18.8698C122.847 18.8698 124.101 22.2154 124.101 26.5543V27.2338H112.757C112.967 21.7449 114.953 18.8698 118.821 18.8698ZM90.5927 41.0868H79.0921C81.3399 35.9115 81.9673 26.502 81.9673 20.5426V19.4971H90.5927V41.0868Z" fill="white"/>
<path d="M31.6266 47.5706H23.3148V6.42987H19.6033C12.8075 6.42987 9.25274 9.82777 9.25274 14.8985C9.25274 20.6488 11.7097 23.3148 16.7804 26.7127L20.9624 29.5356L8.93909 47.5706H0L10.821 31.4698C4.60023 27.0264 1.09778 22.6875 1.09778 15.369C1.09778 6.22077 7.47538 0 19.551 0H31.5743V47.5706H31.6266Z" fill="#FC3F1D"/>
</svg>

