<svg width="151" height="53" viewBox="0 0 151 53" fill="none" xmlns="http://www.w3.org/2000/svg">
<path d="M0 2.78381C0.524211 -0.0431201 4.08206 -1.05764 5.85313 1.35422C6.82797 2.68129 6.34675 4.7095 6.4468 6.2904C7.12563 17.0326 21.658 20.0059 26.4875 10.5428C27.9708 7.63648 27.421 5.81249 27.6815 2.82267C27.9436 -0.183681 32.196 -1.05516 33.6785 1.62625C34.4606 3.04013 34.1349 6.92789 33.8579 8.57824C32.7127 15.4037 27.1457 21.118 20.326 22.3797L20.2425 22.6269L20.2507 29.9303C26.6248 31.0606 31.8983 36.0662 33.528 42.2939C34.0191 44.1716 34.5028 48.3587 33.9191 50.1472C33.2353 52.2415 30.5431 52.979 28.8398 51.5966C27.2234 50.2844 27.7691 48.5357 27.6872 46.7232C27.5095 42.7917 25.7731 39.3818 22.2856 37.4288C15.3774 33.5609 6.9429 38.2259 6.4468 46.0676C6.32525 47.9875 6.98424 50.2083 5.28179 51.5891C3.29823 53.1973 0.489484 51.9819 0 49.5742V45.531L0.386957 43.0703C1.81076 36.4209 7.15208 31.2466 13.8056 29.884L13.7998 22.3433C7.31828 21.2469 2.03152 16.023 0.485349 9.68537L0 6.74516V2.78381Z" fill="#00AEEF"/>
<path d="M17.6012 52.6251C17.3135 52.6524 16.8149 52.6524 16.5272 52.6251C8.11086 51.8189 9.64297 39.0469 17.9634 40.2565C25.1436 41.3 24.8773 51.9305 17.6012 52.6251Z" fill="#00AEEF"/>
<path d="M86.5051 11.967C97.9319 11.16 105.521 23.6203 99.4475 33.391C94.1707 41.8809 81.7707 42.1959 76.0424 34.002C69.823 25.1061 75.7117 12.7293 86.5051 11.967ZM86.8359 17.8259C81.4805 18.2997 78.1475 24.228 80.2535 29.1361C82.8729 35.2406 91.0544 35.8905 94.3873 30.0696C97.5789 24.4968 93.3224 17.2521 86.8367 17.8259H86.8359Z" fill="#00AEEF"/>
<path d="M143.198 33.8274L131.527 33.8084C130.847 35.1727 130.458 36.9744 129.703 38.2725C128.07 41.0787 123.632 39.6277 124.205 36.3311C126.789 29.2418 129.969 22.3618 132.783 15.3544C134.5 11.6981 139.324 11.2599 141.56 14.7078C141.925 15.2701 142.151 15.8761 142.423 16.4872C145.178 22.671 147.508 29.0583 150.236 35.257C151.259 37.597 149.819 40.0411 147.159 39.7327C144.458 39.4193 144.261 35.7664 143.196 33.8283L143.198 33.8274ZM140.897 28.2852L137.385 19.372L133.79 28.2852H140.896H140.897Z" fill="#00AEEF"/>
<path d="M60.4917 23.5807L67.1038 13.3098C70.0755 10.1794 74.0806 14.0258 71.7134 17.4175L63.6758 29.6091C63.4542 31.9333 63.8163 34.4427 63.6336 36.7463C63.5055 38.3636 62.4736 39.6675 60.7827 39.7576C55.9061 40.0189 58.1013 32.6047 57.5779 29.7488L49.3501 17.4175C47.7643 15.0808 48.9458 11.9257 52.0224 12.1902C53.4363 12.3118 54.0788 13.4098 54.7898 14.4607C56.7817 17.4059 58.5701 20.5826 60.4908 23.5807H60.4917Z" fill="#00AEEF"/>
<path d="M117.345 18.4618V37.0705C117.345 37.1598 117.09 37.932 117.029 38.0751C116.133 40.2 112.852 40.3588 111.766 38.3504C111.659 38.1528 111.312 37.3194 111.312 37.1523V18.461H105.239C101.563 18.461 100.972 12.6856 105.235 12.3516H123.422C127.773 12.6558 127.138 18.461 123.418 18.461H117.344L117.345 18.4618Z" fill="#00AEEF"/>
</svg>

